<?xml version="1.0" standalone="no"?>
<!DOCTYPE svg PUBLIC "-//W3C//DTD SVG 20010904//EN"
 "http://www.w3.org/TR/2001/REC-SVG-20010904/DTD/svg10.dtd">
<svg version="1.0" xmlns="http://www.w3.org/2000/svg"
 width="474.000000pt" height="259.000000pt" viewBox="0 0 474.000000 259.000000"
 preserveAspectRatio="xMidYMid meet">

<g transform="translate(0.000000,259.000000) scale(0.100000,-0.100000)"
fill="#000000" stroke="none">
<path d="M0 2536 l0 -54 68 -32 c37 -17 118 -52 180 -77 61 -25 115 -50 118
-55 4 -6 -2 -8 -17 -4 -21 6 -22 5 -6 -4 10 -7 24 -9 32 -6 10 3 12 0 8 -11
-5 -11 -3 -14 6 -8 10 6 11 3 2 -13 -12 -23 -13 -23 -288 94 -46 19 -87 33
-91 30 -13 -8 -15 -116 -2 -116 5 0 10 -8 10 -17 0 -15 2 -15 9 -4 7 11 13 12
23 4 7 -5 34 -18 59 -28 32 -11 46 -22 44 -33 -1 -10 0 -11 2 -4 12 34 55 0
47 -39 l-5 -24 12 23 c14 26 17 27 69 6 25 -10 37 -20 33 -28 -4 -6 1 -5 10 3
23 18 22 12 -12 -61 -51 -113 -132 -304 -234 -551 -24 -60 -51 -117 -60 -128
-15 -16 -17 -47 -17 -213 0 -193 0 -195 23 -202 12 -4 45 -18 72 -31 64 -32
296 -120 325 -125 17 -2 27 5 39 29 9 18 27 38 41 45 14 7 28 17 32 23 6 8 63
14 150 15 19 0 26 4 22 14 -3 8 -13 12 -25 9 -11 -3 -19 0 -19 6 0 7 -5 9 -10
6 -6 -3 -10 -2 -10 2 0 5 -8 9 -17 10 -34 3 -75 12 -124 28 -44 15 -48 18 -38
37 6 11 8 22 6 25 -3 2 -8 -5 -12 -17 -5 -16 -12 -20 -28 -16 -12 3 -26 6 -30
6 -5 0 -6 4 -3 9 4 5 -3 7 -14 4 -11 -3 -20 0 -20 6 0 6 -3 10 -8 10 -22 -4
-31 3 -26 19 5 16 5 16 -6 -1 -19 -30 -31 -8 -14 26 13 29 13 30 -1 13 -8 -11
-15 -23 -15 -28 0 -4 -7 -8 -15 -8 -8 0 -15 4 -15 9 0 5 -13 8 -29 7 -26 -2
-28 0 -21 24 16 55 173 436 184 448 11 11 49 1 209 -54 131 -45 193 -71 184
-77 -7 -5 -2 -7 14 -3 16 3 67 -6 125 -23 104 -30 264 -75 400 -111 l81 -22
-15 -54 c-11 -38 -18 -51 -24 -42 -6 8 -7 5 -3 -10 4 -14 1 -32 -9 -47 -9 -13
-13 -32 -9 -41 5 -13 3 -15 -7 -9 -8 5 -11 4 -6 -3 11 -17 -15 -106 -26 -90
-6 9 -7 6 -3 -10 7 -23 -24 -132 -53 -190 -14 -27 -15 -34 -4 -41 25 -15 1
-106 -38 -141 -29 -25 -73 -195 -65 -248 5 -34 9 -42 17 -31 7 10 8 8 3 -8 -3
-12 -8 -58 -9 -102 -2 -43 -7 -84 -10 -90 -4 -6 -2 -11 4 -11 16 0 36 -51 38
-103 l2 -27 247 2 247 3 43 175 c23 96 45 184 47 196 3 11 17 26 32 33 24 10
26 10 19 -6 -4 -10 -9 -31 -11 -48 -2 -20 1 -15 12 18 15 46 16 47 57 48 23 0
51 2 62 4 11 3 38 6 60 9 22 2 62 8 89 12 41 6 48 5 41 -7 -8 -12 -6 -12 8 -1
9 8 21 11 27 7 5 -3 10 -2 10 3 0 5 16 9 37 10 44 2 117 12 122 18 2 2 12 22
22 44 l18 40 -24 -16 c-22 -14 -23 -14 -21 10 0 13 4 22 8 19 15 -9 51 -12 61
-6 6 4 -5 13 -24 20 -31 12 -31 13 -4 7 17 -4 39 -6 49 -6 18 1 18 0 -2 -14
-60 -42 -82 -148 -42 -204 22 -30 19 -77 -6 -114 -12 -17 -10 -27 15 -70 25
-44 28 -60 25 -118 -1 -43 1 -68 8 -68 7 0 8 16 4 46 -6 49 6 84 29 84 12 0
15 -15 16 -67 1 -63 2 -65 11 -33 5 19 8 49 6 67 -2 18 -2 33 2 34 53 7 64 19
19 20 -19 1 -26 3 -16 6 9 2 17 9 17 14 0 11 -41 29 -52 22 -11 -6 -10 11 1
39 8 20 14 23 53 20 l45 -4 -5 -49 c-2 -27 0 -55 5 -61 10 -13 10 -18 -1 -98
-5 -38 -5 -41 5 -20 10 24 12 68 7 172 -1 26 0 49 3 52 3 3 20 7 38 8 41 4 57
-25 36 -65 -7 -15 -13 -50 -12 -79 0 -29 -2 -65 -6 -80 -4 -16 -3 -28 2 -28
12 0 21 51 21 117 0 50 2 55 20 50 11 -3 18 -1 15 3 -3 5 5 14 17 21 20 10 21
10 12 -2 -6 -8 -14 -36 -17 -64 -4 -27 -9 -67 -13 -88 -4 -24 -3 -37 4 -37 6
0 13 17 15 38 l4 37 1 -37 c3 -67 22 -41 22 30 0 38 7 91 16 118 8 27 19 62
24 77 7 24 5 32 -15 49 -24 20 -24 23 -8 40 14 16 15 23 5 38 -7 11 -12 22
-12 24 0 9 177 106 245 135 104 44 149 55 170 43 16 -8 15 -10 -12 -16 -17 -4
-34 -6 -39 -5 -17 5 -74 -13 -74 -22 0 -6 4 -8 9 -4 5 3 12 -3 14 -12 4 -17 5
-17 6 0 0 9 9 18 19 18 9 1 38 3 65 4 l47 3 1 -36 2 -37 6 39 c5 35 9 39 39
41 98 8 162 18 157 24 -7 13 -125 27 -180 22 l-20 -2 20 -9 c24 -10 1 -13 -34
-3 l-23 6 23 13 c13 7 31 13 39 14 8 0 38 11 65 24 l51 23 51 -22 c57 -26 113
-95 113 -140 0 -42 28 -84 66 -100 42 -18 160 -109 174 -135 6 -10 10 -34 10
-52 0 -21 14 -55 40 -96 22 -34 40 -65 40 -68 0 -12 42 -65 48 -60 2 3 -1 13
-9 23 -9 11 -10 14 -1 9 18 -11 15 7 -13 63 -14 28 -29 74 -32 102 -4 38 -18
69 -48 114 l-41 62 39 43 c39 42 56 42 57 0 0 -8 7 -28 15 -43 8 -16 15 -44
17 -63 2 -34 18 -49 18 -17 0 15 2 15 13 -2 7 -11 30 -58 51 -105 21 -47 47
-103 57 -124 12 -26 15 -44 9 -51 -7 -9 1 -12 29 -13 29 -1 48 5 76 28 21 17
41 30 44 30 3 0 -5 -9 -19 -20 -14 -11 -20 -20 -15 -20 6 0 3 -5 -5 -10 -35
-23 23 -9 65 15 l43 26 20 -26 c11 -14 22 -25 26 -25 9 0 -6 34 -21 46 -11 10
-8 14 17 22 16 6 30 16 30 21 0 6 -14 4 -34 -5 -23 -12 -39 -14 -51 -7 -16 9
-16 11 -1 16 11 4 15 3 10 -4 -4 -8 1 -9 17 -4 45 14 41 23 -8 19 -45 -3 -50
-1 -70 29 -12 18 -25 44 -28 60 -6 22 -4 26 9 21 8 -3 27 3 42 15 38 30 55 26
19 -5 l-30 -25 35 17 c24 12 35 13 38 5 2 -6 16 -26 30 -43 29 -34 34 -47 36
-98 2 -43 14 -80 26 -80 5 0 4 11 -2 25 -9 20 -8 28 5 43 21 23 22 39 2 22
-13 -11 -15 -8 -15 18 0 19 -13 47 -34 76 l-35 45 33 -20 c47 -27 62 -48 71
-93 8 -47 37 -116 47 -116 12 0 10 7 -11 48 -10 20 -22 59 -25 85 -6 41 -13
52 -49 78 -70 50 -75 56 -87 101 -31 119 -46 152 -111 237 -60 80 -99 140 -99
155 0 3 18 15 40 26 23 12 45 32 51 47 13 35 3 42 -24 14 -17 -19 -18 -23 -4
-18 27 10 20 -7 -9 -20 -22 -10 -24 -10 -14 3 8 9 9 14 2 14 -6 0 -14 -5 -17
-10 -3 -6 -12 -10 -18 -10 -7 0 -1 9 13 20 14 11 20 20 14 20 -8 0 -10 11 -5
33 4 17 9 68 10 112 1 44 7 84 12 89 12 13 12 29 -1 21 -6 -3 -11 6 -11 22 -3
57 -8 96 -13 119 -4 13 -4 24 -2 24 14 0 58 -21 53 -26 -3 -3 1 -21 9 -41 8
-19 18 -72 21 -117 5 -72 3 -87 -17 -126 -12 -25 -30 -54 -39 -64 -9 -11 -10
-16 -3 -12 6 4 12 2 12 -3 0 -6 -4 -11 -10 -11 -5 0 -10 -5 -10 -12 0 -6 10
-2 23 10 13 12 28 22 34 22 6 0 13 21 17 46 3 25 13 52 21 60 18 18 20 118 4
193 -14 64 -60 130 -98 137 -24 5 -30 12 -35 45 -4 22 -13 42 -22 46 -21 8
-44 56 -44 94 0 18 11 96 25 173 13 78 30 201 36 274 12 131 12 133 -10 153
-12 12 -25 18 -28 15 -4 -3 1 -12 11 -19 18 -14 27 -69 15 -107 -6 -21 -7 -22
-9 -5 -7 76 -10 91 -24 101 -9 6 -12 15 -8 19 4 5 1 5 -5 1 -7 -4 -22 -2 -34
4 -16 9 -24 9 -33 -1 -8 -9 -8 -10 1 -5 9 5 13 -1 13 -21 l0 -28 -31 38 c-35
43 -65 60 -159 92 -37 13 -86 35 -110 50 -31 20 -41 23 -37 11 10 -26 -8 -18
-23 9 -7 14 -16 25 -19 25 -3 0 -17 9 -31 20 -18 13 -20 18 -8 16 9 -1 25 -9
35 -17 19 -16 229 -112 273 -124 14 -4 30 -11 36 -16 9 -8 119 -39 136 -39 4
0 7 15 7 33 -1 24 -3 26 -6 9 -4 -20 -9 -22 -36 -16 -25 5 -157 56 -314 121
-7 3 -13 15 -14 27 0 18 -2 18 -7 4 -6 -16 -11 -15 -51 7 -23 14 -54 27 -68
30 -31 5 -73 32 -73 46 0 6 -4 8 -10 4 -5 -3 -17 2 -27 12 -20 19 -30 21 -173
25 -86 3 -100 1 -146 -23 l-51 -26 -11 41 c-14 53 -44 91 -99 126 -23 15 -41
29 -39 31 6 5 -34 9 -120 11 -61 2 -76 -2 -117 -25 -53 -31 -103 -81 -129
-130 -24 -42 -24 -124 -2 -129 13 -2 18 -17 21 -58 2 -36 15 -79 38 -125 19
-39 35 -78 35 -87 0 -28 30 -36 103 -27 37 5 72 11 77 14 5 3 20 3 34 -1 l26
-6 -41 -47 c-23 -25 -52 -68 -66 -95 -13 -26 -33 -51 -44 -53 -10 -3 -19 -14
-19 -24 0 -23 -118 -137 -173 -166 -35 -19 -56 -23 -132 -22 -118 2 -147 9
-162 39 -7 14 -13 20 -13 13 0 -6 -15 -21 -34 -32 -18 -12 -46 -39 -61 -61
l-27 -40 -19 24 c-27 34 -24 57 12 94 22 23 26 30 13 26 -17 -7 -17 -5 2 17
33 37 40 57 12 31 -14 -13 -33 -41 -43 -63 -18 -40 -35 -51 -35 -23 0 19 45
98 67 115 13 11 18 10 32 -7 14 -18 19 -18 44 -6 16 8 31 11 34 8 3 -3 -17
-16 -43 -29 -28 -13 -48 -29 -46 -37 2 -7 -4 -27 -12 -44 -8 -17 -17 -44 -20
-61 -6 -29 -6 -29 10 5 22 48 71 98 106 105 15 4 28 11 28 16 0 15 -23 10 -58
-11 -38 -23 -49 -25 -33 -7 6 8 29 22 51 32 47 21 49 29 15 51 -14 9 -32 32
-40 50 -16 38 -44 45 -52 13 -4 -16 -11 -7 -29 38 -26 64 -28 73 -15 73 5 0
16 -19 25 -41 9 -23 20 -39 23 -35 12 12 -30 86 -49 86 -28 0 -58 -18 -58 -35
0 -8 -4 -15 -10 -15 -5 0 -9 -17 -9 -37 l2 -38 6 34 c5 28 8 31 17 20 18 -22
36 -87 28 -100 -4 -8 -12 -2 -22 16 -13 26 -15 27 -24 10 -20 -35 -3 -141 36
-218 36 -73 52 -89 111 -106 17 -5 70 -21 118 -35 49 -15 115 -37 147 -51 33
-14 70 -25 83 -25 13 0 56 24 96 53 120 85 250 165 350 213 90 43 94 45 125
31 17 -9 47 -22 66 -30 28 -11 43 -29 69 -76 31 -60 32 -64 20 -106 -10 -33
-21 -47 -46 -59 -18 -9 -33 -21 -33 -28 0 -6 -9 -30 -19 -52 -10 -23 -33 -71
-50 -107 -35 -75 -37 -89 -17 -89 8 0 17 -3 19 -7 3 -5 -5 -8 -18 -8 -13 0
-21 3 -18 8 7 12 -11 7 -31 -8 -32 -24 -47 -19 -40 13 4 15 4 24 0 21 -4 -4
-9 -26 -12 -50 -3 -32 -2 -40 6 -29 9 13 10 13 10 0 -1 -14 -58 -61 -246 -199
-64 -47 -93 -62 -139 -70 -69 -13 -75 -16 -40 -25 14 -4 25 -13 25 -21 0 -17
16 -20 25 -5 3 5 20 19 38 31 18 12 -4 -14 -48 -57 -94 -94 -145 -159 -145
-185 0 -11 7 -36 15 -56 8 -20 13 -38 11 -41 -3 -2 -19 6 -37 18 -30 22 -31
26 -26 74 4 48 8 54 88 129 60 56 77 76 59 72 -25 -7 -25 -7 -5 10 20 16 20
17 0 10 -11 -3 -16 -3 -12 1 11 11 -31 36 -51 30 -9 -3 -35 -7 -57 -11 -36 -5
-211 -37 -350 -65 -27 -5 -70 -12 -95 -15 -25 -3 -47 -10 -48 -15 -2 -6 -8 -8
-12 -5 -5 3 -102 -10 -217 -29 -222 -37 -323 -51 -336 -48 -5 2 -24 -2 -44 -7
-34 -10 -35 -10 -28 17 9 38 14 42 91 58 92 19 118 18 110 -2 -3 -8 -2 -12 4
-9 6 3 10 13 10 20 0 8 12 17 28 21 15 3 34 8 42 10 8 3 61 14 118 25 58 11
183 38 279 59 96 22 177 39 181 38 4 -1 14 1 22 5 8 3 29 10 45 16 l30 11 -35
-6 c-19 -3 -44 -7 -55 -8 -11 -2 -27 -6 -35 -9 -8 -3 -28 -8 -44 -12 l-28 -6
7 47 c8 56 25 95 36 88 5 -3 9 0 9 6 0 7 -7 9 -16 6 -9 -3 -23 -6 -32 -6 -11
0 -13 -3 -6 -8 8 -5 9 -24 1 -69 -10 -62 -10 -63 -49 -74 -22 -6 -42 -8 -45
-6 -4 4 6 49 23 110 3 9 1 17 -3 17 -5 0 -15 -30 -22 -66 -11 -55 -18 -67 -39
-75 -13 -5 -27 -8 -29 -5 -5 5 18 99 28 112 5 6 6 13 3 16 -3 3 22 122 56 263
34 142 63 267 64 279 1 12 6 28 10 35 4 7 5 15 2 18 -3 4 -6 1 -6 -5 0 -7 -5
-12 -11 -12 -5 0 -8 4 -4 9 3 5 1 12 -5 16 -6 4 -8 11 -5 16 4 5 2 9 -4 9 -6
0 -7 7 -4 17 4 10 2 14 -5 9 -6 -3 -13 3 -17 15 -4 11 -16 30 -27 41 -14 14
-17 23 -8 33 8 10 7 17 -5 29 -9 9 -14 16 -10 16 3 0 -2 14 -11 31 -8 17 -11
28 -5 25 6 -4 11 -1 11 6 1 7 3 30 6 52 5 28 3 36 -6 31 -9 -5 -10 -1 -5 16
10 34 53 99 70 106 8 3 12 9 9 15 -7 11 46 5 71 -9 9 -5 27 -27 40 -49 23 -37
24 -38 25 -12 0 30 45 72 67 63 8 -2 11 0 8 5 -3 6 -3 10 2 10 4 1 21 11 37
24 20 17 25 26 16 31 -9 5 -11 4 -6 -3 6 -11 -6 -16 -26 -13 -5 0 -8 -4 -8
-10 0 -5 -13 -15 -30 -20 -16 -6 -30 -15 -30 -21 0 -5 -5 -6 -10 -3 -7 4 -6
14 2 28 7 12 11 25 11 28 -1 4 5 6 14 5 8 0 17 7 18 17 3 17 -19 25 -28 10 -2
-5 -2 -2 -1 5 2 6 -2 12 -8 12 -7 0 -3 7 8 15 10 8 24 14 29 14 6 0 1 -6 -9
-14 -15 -11 -16 -15 -5 -15 8 0 20 5 26 11 13 13 36 3 28 -12 -10 -15 8 -10
33 9 22 17 23 19 6 33 -16 12 -17 12 -11 -3 7 -20 -8 -34 -19 -17 -5 8 -3 9 6
4 8 -5 11 -4 7 3 -4 5 -15 8 -26 5 -10 -2 -24 2 -32 10 -8 7 -20 12 -28 9 -9
-3 -11 0 -6 8 5 8 4 11 -2 7 -10 -6 -107 23 -120 36 -3 4 -15 7 -25 7 -10 0
-18 4 -18 10 0 5 -8 6 -17 3 -16 -6 -16 -5 -4 10 7 9 9 17 3 17 -16 0 -24 -33
-10 -42 15 -9 15 -9 46 -12 21 -3 46 -25 38 -34 -2 -2 -21 4 -41 12 -49 21
-61 20 -39 -1 10 -10 29 -18 44 -19 14 -1 37 -4 51 -8 13 -3 18 -3 12 0 -7 3
-13 12 -13 21 0 11 7 9 32 -8 17 -13 28 -18 24 -11 -5 8 -2 10 8 6 22 -8 8
-27 -15 -21 -11 3 -16 1 -13 -5 6 -9 -12 -6 -55 10 -10 4 -12 1 -6 -7 6 -10 3
-11 -14 -2 -11 7 -21 9 -21 7 0 -3 -64 17 -142 45 -79 28 -165 57 -191 65 -37
12 -47 19 -43 31 5 12 3 13 -7 5 -16 -14 -99 8 -105 28 -3 7 0 10 7 6 6 -4 11
-2 11 3 0 16 -20 14 -26 -2 -4 -11 -23 -7 -89 16 -47 16 -82 34 -79 39 3 5 19
6 35 3 19 -4 29 -3 29 5 0 6 -4 9 -9 6 -5 -4 -21 -2 -36 4 -15 6 -24 6 -20 1
8 -15 -14 -24 -29 -12 -7 6 -16 8 -19 4 -4 -3 -7 -1 -7 6 0 7 7 11 15 8 8 -4
17 -2 20 4 4 5 3 9 -2 8 -8 -2 -26 4 -73 23 -43 18 -81 27 -75 19 2 -5 19 -11
37 -15 29 -6 31 -8 14 -18 -11 -6 -21 -7 -25 -1 -10 16 -69 35 -82 27 -8 -4
-10 -3 -5 5 4 6 0 13 -8 16 -49 15 -50 16 -39 23 9 6 7 11 -7 20 -12 7 -21 8
-25 2 -3 -6 1 -10 10 -10 9 0 14 -4 10 -10 -3 -6 -15 -5 -31 2 -18 9 -21 14
-12 20 9 6 5 7 -9 3 -27 -7 -66 3 -58 15 3 4 -2 13 -10 20 -12 10 -18 10 -29
1 -12 -10 -21 -9 -43 4 -26 15 -16 14 22 -1 8 -3 15 -1 15 5 0 6 -3 10 -7 9
-14 -3 -112 36 -107 43 2 4 -12 9 -30 11 -31 3 -34 2 -24 -15 10 -19 10 -19
-15 -1 -14 11 -23 22 -21 26 4 7 -98 48 -119 48 -7 0 -3 -7 7 -15 26 -20 6
-19 -22 0 -16 12 -42 15 -101 13 -44 -1 -79 -3 -78 -4 5 -5 148 -61 292 -116
88 -33 169 -65 180 -71 11 -6 28 -12 38 -14 9 -2 49 -14 89 -28 39 -14 73 -23
75 -21 3 3 -36 18 -149 57 -20 7 -35 16 -32 20 2 4 -6 5 -18 2 -19 -4 -20 -3
-8 7 12 9 10 10 -10 5 -19 -6 -22 -4 -14 5 9 9 23 8 62 -6 28 -10 49 -21 47
-24 -2 -3 7 -6 18 -6 12 -1 40 -10 62 -19 22 -10 46 -19 54 -21 7 -1 42 -13
78 -25 54 -19 62 -25 49 -35 -14 -9 7 -20 115 -58 73 -26 134 -45 136 -43 2 3
-53 24 -121 48 -74 26 -122 47 -116 53 5 5 22 3 42 -4 18 -7 74 -27 123 -45
50 -18 128 -48 175 -65 47 -18 102 -37 123 -43 20 -6 37 -15 37 -19 0 -4 5 -8
11 -8 18 0 429 -153 424 -158 -2 -2 -54 14 -116 37 -61 23 -113 40 -115 38 -2
-2 43 -21 101 -42 90 -33 106 -42 114 -67 8 -22 7 -28 -5 -28 -7 0 -14 4 -14
8 0 4 -8 8 -17 9 -16 2 -303 97 -408 136 -22 8 -51 17 -65 19 -14 1 -27 5 -30
8 -13 13 -142 50 -153 44 -6 -5 -5 1 3 11 14 17 14 18 -7 7 -28 -15 -36 -15
-27 0 4 7 3 8 -5 4 -6 -4 -19 0 -28 9 -9 9 -24 14 -35 12 -11 -3 -16 -1 -11 6
4 6 -2 8 -15 5 -12 -4 -22 -2 -22 3 0 4 -7 5 -17 2 -9 -4 -14 -2 -11 3 3 5 -1
16 -10 24 -14 13 -15 13 -10 -1 5 -13 1 -15 -20 -11 -16 3 -21 7 -13 10 8 3
-8 13 -34 23 -27 10 -51 16 -54 14 -2 -3 2 -5 9 -5 7 0 11 -2 8 -5 -7 -7 -69
16 -64 24 3 4 -10 7 -27 7 -18 1 -48 8 -67 17 -32 15 -22 15 30 0 26 -8 -24
21 -57 33 -18 6 -36 7 -41 2 -5 -5 -22 -3 -41 3 -17 6 -30 13 -28 15 2 3 16 0
30 -5 17 -7 28 -7 32 0 4 5 3 9 -2 8 -4 -1 -15 1 -23 4 -67 28 -177 63 -188
60 -7 -3 -12 -1 -11 4 4 22 -2 32 -17 26 -13 -5 -13 -8 -2 -15 13 -10 9 -9
-54 14 -16 5 -28 14 -28 20 0 5 -4 7 -10 3 -5 -3 -25 1 -45 9 -19 8 -43 13
-53 10 -14 -5 -15 -4 -2 5 13 9 12 11 -3 11 -11 0 -15 4 -11 12 5 8 2 9 -9 5
-22 -8 -49 2 -41 15 4 6 -4 4 -17 -3 -22 -11 -23 -11 -10 5 13 16 12 17 -12
11 -19 -5 -28 -3 -33 8 -3 9 -12 13 -21 10 -10 -4 -14 -2 -10 4 4 6 1 11 -6
10 -35 -1 -48 4 -41 16 6 10 4 10 -7 0 -15 -15 -33 -17 -25 -4 9 14 -14 18
-117 20 l-97 2 0 -55z m473 32 c-2 -5 10 -8 27 -8 21 0 29 -4 24 -12 -5 -8 -2
-9 9 -5 10 4 17 2 17 -4 0 -6 7 -9 15 -5 8 3 15 1 15 -5 0 -6 7 -8 16 -5 10 4
13 2 8 -6 -5 -8 -2 -9 9 -5 10 4 17 2 17 -4 0 -6 7 -9 15 -5 8 3 21 -2 30 -10
8 -8 20 -12 25 -9 6 4 16 2 23 -3 7 -5 29 -15 50 -21 33 -11 51 -31 28 -31
-10 0 -373 139 -379 145 -3 2 9 3 26 2 16 -1 28 -5 25 -9z m197 -34 c0 -12 -4
-12 -20 -4 -11 6 -18 15 -15 20 8 13 35 0 35 -16z m2000 -90 c0 -8 -6 -14 -12
-15 -7 0 -24 -2 -38 -5 l-25 -4 28 25 c29 26 47 25 47 -1z m90 12 c19 -4 43
-8 52 -10 24 -3 31 -12 25 -30 -5 -14 -12 -13 -52 4 -25 11 -45 17 -45 13 0
-3 -6 0 -13 6 -8 6 -17 8 -20 4 -4 -3 -7 1 -7 9 0 9 6 15 13 14 6 -2 28 -6 47
-10z m-180 -36 c-10 -19 -40 -28 -40 -12 0 13 23 32 37 32 11 0 11 -5 3 -20z
m363 -12 c32 -17 17 -24 -28 -14 -25 6 -45 16 -45 23 0 14 37 9 73 -9z m-2223
-58 c-6 -11 -13 -20 -16 -20 -2 0 0 9 6 20 6 11 13 20 16 20 2 0 0 -9 -6 -20z
m2653 -29 c63 -29 123 -69 83 -54 -15 5 -17 3 -11 -8 8 -12 6 -12 -8 0 -9 7
-14 17 -11 22 3 5 -2 6 -10 3 -9 -3 -27 3 -41 14 -55 44 -207 53 -290 17 -47
-20 -118 -100 -132 -148 l-11 -42 -1 38 c-1 21 5 52 13 70 13 33 74 87 98 87
7 0 26 9 43 20 25 17 42 19 122 15 75 -4 105 -10 156 -34z m-2114 0 c19 -12
-4 -24 -30 -16 -17 6 -19 9 -8 16 17 11 21 11 38 0z m-568 -28 c-12 -20 -14
-14 -5 12 4 9 9 14 11 11 3 -2 0 -13 -6 -23z m1948 -4 c19 -15 22 -22 12 -28
-10 -6 -9 -9 3 -14 8 -3 17 -1 19 6 3 8 13 4 31 -12 22 -21 35 -24 88 -22 35
1 78 4 96 7 l32 6 -35 -51 c-34 -52 -50 -93 -61 -164 -6 -33 -10 -38 -28 -33
-12 3 -29 6 -40 6 -15 0 -16 3 -6 15 8 9 8 15 2 15 -6 0 -14 -9 -17 -20 -3
-11 -12 -21 -18 -22 -7 0 -16 -2 -22 -2 -5 -1 -16 -5 -22 -9 -7 -5 -13 -4 -13
2 0 6 -7 8 -15 5 -18 -7 -45 12 -45 32 0 7 -14 37 -31 66 -18 31 -34 75 -39
107 -6 48 -4 56 17 79 12 14 23 28 23 33 0 6 17 14 40 18 3 0 16 -9 29 -20z
m-1972 -61 c-3 -8 -6 -5 -6 6 -1 11 2 17 5 13 3 -3 4 -12 1 -19z m55 -39 c29
-12 233 -81 452 -155 220 -73 404 -139 410 -145 8 -8 4 -9 -14 -4 -24 7 -24 6
-6 -7 13 -10 15 -17 8 -22 -6 -4 -8 -14 -5 -23 4 -10 2 -14 -4 -10 -7 5 -9 -1
-5 -15 4 -16 2 -19 -8 -13 -9 5 -11 4 -6 -4 9 -15 -3 -73 -14 -66 -4 3 -6 -5
-2 -17 4 -16 2 -19 -8 -13 -9 6 -11 4 -5 -4 10 -17 -15 -102 -28 -94 -7 4 -8
0 -4 -12 8 -20 -23 -141 -32 -127 -3 5 -20 13 -38 16 -30 7 -31 9 -22 33 5 14
7 28 5 31 -3 2 -8 -7 -12 -22 -7 -30 -20 -32 -69 -12 -19 8 -35 12 -35 9 0 -3
-6 -1 -12 4 -7 6 -31 14 -53 17 -69 12 -107 29 -102 46 3 8 8 24 11 35 4 11
-1 5 -10 -12 -10 -18 -22 -33 -28 -33 -21 0 -157 47 -168 58 -6 6 -17 8 -24 5
-9 -3 -14 3 -15 18 -1 17 -3 19 -6 7 -5 -18 -28 -24 -37 -10 -2 4 4 27 15 51
11 24 18 46 16 48 -3 2 -14 -19 -26 -47 -12 -27 -23 -50 -24 -50 -14 0 -113
42 -115 49 -2 6 -9 8 -17 5 -13 -5 -162 42 -178 56 -5 4 -1 22 7 39 9 17 14
31 11 31 -2 0 -13 -17 -24 -37 -15 -29 -21 -34 -26 -22 -4 10 25 89 70 195 96
225 105 244 116 244 4 0 32 -9 61 -21z m2132 -152 c-1 -19 -4 -39 -8 -45 -9
-15 8 -15 37 -1 21 10 22 10 2 -6 -31 -25 -50 -15 -48 24 4 59 19 83 17 28z
m-738 -23 c-6 -7 -18 -9 -26 -4 -8 4 -22 10 -30 12 -8 3 3 5 26 4 30 0 38 -4
30 -12z m-157 -116 c-2 -2 -17 -14 -34 -28 l-30 -25 20 25 c24 29 38 41 44 34
2 -2 2 -5 0 -6z m817 -47 c-14 -22 -26 -48 -26 -56 0 -9 -5 -13 -10 -10 -14 9
-3 42 29 87 34 48 40 31 7 -21z m969 39 c13 -6 15 -9 5 -9 -8 0 -22 4 -30 9
-18 12 -2 12 25 0z m-1697 -106 c8 -16 8 -24 -1 -34 -8 -8 -8 -11 -1 -7 7 4
17 1 23 -7 9 -11 5 -20 -18 -44 -24 -24 -31 -26 -36 -14 -3 8 -1 20 5 26 8 8
9 6 5 -6 -10 -25 -2 -22 26 9 17 18 19 24 7 20 -12 -4 -21 5 -33 36 -29 71
-34 94 -22 106 8 8 14 1 22 -26 6 -21 17 -47 23 -59z m1780 34 c6 -16 10 -28
7 -28 -5 0 -35 56 -35 67 0 12 15 -10 28 -39z m-1705 -67 c11 -22 12 -32 3
-41 -8 -8 -6 -9 9 -4 15 5 17 4 9 -5 -25 -27 -63 23 -48 63 8 22 10 21 27 -13z
m1737 14 c11 -13 10 -14 -4 -9 -9 3 -16 10 -16 15 0 13 6 11 20 -6z m-1150
-34 c0 -17 5 -33 10 -36 6 -3 10 -16 10 -28 0 -19 -2 -18 -19 9 -25 42 -38 48
-50 27 -6 -10 -11 -13 -11 -7 0 6 7 17 15 24 8 7 13 16 10 20 -5 8 9 17 28 19
4 1 7 -12 7 -28z m1269 4 c-37 -20 -110 -24 -117 -6 -3 10 -1 11 9 5 19 -12
29 -12 69 2 48 17 71 16 39 -1z m-1989 -41 c0 -14 4 -34 10 -44 10 -20 4 -50
-11 -50 -4 0 -6 7 -3 15 4 8 1 15 -6 15 -10 0 -10 3 0 15 9 10 9 15 1 15 -6 0
-11 16 -11 36 0 21 4 33 10 29 6 -3 10 -17 10 -31z m2010 11 c0 -17 -26 -31
-55 -29 -56 3 -58 6 -10 24 64 23 65 23 65 5z m-3579 -52 c-12 -20 -14 -14 -5
12 4 9 9 14 11 11 3 -2 0 -13 -6 -23z m3497 -10 c-8 -10 -14 -10 -24 -2 -20
16 -18 19 10 17 19 -2 22 -5 14 -15z m72 3 c0 -9 -8 -12 -26 -8 -19 3 -22 7
-12 13 20 13 38 11 38 -5z m-15 -56 c-6 -19 -12 -21 -38 -16 -32 7 -73 36 -49
36 7 0 12 -4 12 -8 0 -5 7 -9 15 -9 8 0 15 4 15 8 0 7 41 18 48 13 2 -2 1 -12
-3 -24z m-1796 -65 c-10 -16 -21 -47 -24 -67 -4 -21 -11 -35 -16 -32 -15 9
-10 38 15 87 27 55 21 59 -20 15 -18 -19 -23 -29 -12 -25 12 4 15 2 11 -8 -3
-8 -9 -12 -14 -9 -5 3 -14 -7 -20 -23 -10 -26 -12 -26 -19 -8 -9 23 14 60 61
99 24 20 33 23 43 14 10 -10 9 -18 -5 -43z m315 -7 c-33 -67 -38 -71 -29 -29
5 23 3 36 -5 41 -9 6 -4 13 16 24 45 24 46 20 18 -36z m1420 11 c-4 -6 -11 -6
-20 2 -21 17 -17 31 6 19 11 -6 18 -15 14 -21z m-1699 -9 c-8 -16 -15 -47 -15
-70 0 -28 -4 -40 -14 -40 -8 0 -18 4 -21 10 -8 14 14 92 32 113 25 27 35 20
18 -13z m93 -20 c-10 -19 -21 -52 -24 -72 -4 -21 -10 -38 -15 -38 -18 0 -9 72
12 102 12 16 19 31 16 34 -8 8 -44 -58 -52 -95 l-7 -35 -14 25 c-18 32 -17 65
1 93 12 18 24 23 59 22 l43 -1 -19 -35z m62 32 c0 -5 -8 -16 -18 -25 -27 -24
-30 -121 -5 -136 23 -13 12 -14 -23 -1 -26 10 -27 13 -21 65 6 55 31 104 55
105 6 0 12 -4 12 -8z m1590 -17 c0 -17 -2 -18 -25 -9 -13 5 -14 8 -3 15 19 13
28 11 28 -6z m-17 -29 c9 5 9 4 1 -5 -15 -16 -64 -3 -64 16 0 13 3 13 25 -1
14 -9 31 -14 38 -10z m-1823 -36 c0 -11 -4 -20 -9 -20 -5 0 -7 9 -4 20 3 11 7
20 9 20 2 0 4 -9 4 -20z m1190 -34 c8 -3 4 -4 -10 -1 -14 2 -36 5 -50 5 -16 0
-29 8 -36 24 l-11 24 46 -23 c25 -12 53 -25 61 -29z m640 23 c0 -33 -73 -36
-78 -3 -3 19 2 21 37 20 31 -1 41 -5 41 -17z m-735 -48 c-3 -6 -11 -11 -17
-11 -6 0 -6 6 2 15 14 17 26 13 15 -4z m741 -9 c-9 -28 -33 -35 -39 -11 -4 14
1 23 16 28 27 11 31 8 23 -17z m-353 11 c-7 -2 -19 -2 -25 0 -7 3 -2 5 12 5
14 0 19 -2 13 -5z m-45 -8 c-7 -7 -138 -8 -145 -1 -4 3 29 6 72 6 43 0 76 -2
73 -5z m342 -11 c0 -2 -15 -4 -32 -4 -23 0 -29 3 -19 9 12 8 51 4 51 -5z
m-635 -14 c-3 -5 -12 -10 -18 -10 -7 0 -6 4 3 10 19 12 23 12 15 0z m42 4 c-3
-3 -12 -4 -19 -1 -8 3 -5 6 6 6 11 1 17 -2 13 -5z m156 -21 c21 -13 -27 -133
-54 -133 -10 0 -25 -3 -34 -6 -12 -5 -16 -2 -13 12 2 12 -3 19 -12 19 -8 0
-15 -9 -15 -20 0 -15 -11 -22 -50 -31 -28 -6 -59 -15 -70 -19 -38 -15 6 21 63
50 46 24 73 45 58 45 -11 0 -103 -54 -137 -80 -31 -25 -100 -60 -117 -60 -11
0 125 101 166 122 23 13 42 27 42 31 0 9 -35 -9 -93 -48 -39 -25 -36 2 3 40
17 16 30 34 30 39 -1 6 -14 -4 -30 -23 -16 -19 -33 -30 -40 -26 -6 4 -19 1
-28 -7 -15 -12 -16 -11 -4 4 8 9 23 19 35 21 21 3 21 4 3 12 -15 7 -25 1 -48
-25 -15 -19 -28 -30 -28 -25 1 20 51 66 87 82 82 34 248 50 286 26z m334 11
c-3 -3 -12 -4 -19 -1 -8 3 -5 6 6 6 11 1 17 -2 13 -5z m177 -3 c6 -8 -26 -51
-38 -51 -13 0 -5 33 12 46 21 16 20 16 26 5z m46 -26 c0 -8 -7 -15 -15 -15 -8
0 -15 7 -15 15 0 8 7 15 15 15 8 0 15 -7 15 -15z m-45 -36 c-4 -5 -13 -9 -22
-9 -13 0 -13 3 -3 15 13 15 35 11 25 -6z m42 -5 c-3 -3 -12 -4 -19 -1 -8 3 -5
6 6 6 11 1 17 -2 13 -5z m-9 -31 c-10 -2 -28 -2 -40 0 -13 2 -5 4 17 4 22 1
32 -1 23 -4z m103 -29 c11 -10 19 -22 19 -27 0 -6 -10 -1 -23 11 -13 12 -28
22 -33 22 -6 0 -19 7 -30 15 -17 13 -16 14 15 5 19 -5 42 -17 52 -26z m-956 6
c-5 -27 -14 -40 -27 -40 -6 0 -3 9 7 20 10 11 15 20 11 20 -4 0 -4 5 -1 10 10
16 14 12 10 -10z m403 -21 c-32 -16 -82 -53 -111 -83 -73 -75 -106 -139 -114
-223 -3 -37 -8 -62 -11 -55 -2 6 -8 12 -12 12 -17 0 33 -115 61 -142 31 -29
84 -48 140 -48 31 0 44 9 96 63 33 34 67 63 75 65 8 1 -19 -33 -60 -75 -72
-76 -124 -153 -102 -153 6 0 8 -5 5 -10 -9 -14 -25 -1 -49 42 -17 28 -17 31
-2 19 12 -10 20 -11 28 -3 22 22 0 40 -59 47 -69 8 -78 14 -120 83 -38 62 -41
98 -17 203 14 62 23 79 79 143 48 55 80 80 135 109 40 20 77 37 84 37 6 -1
-15 -14 -46 -31z m319 17 c3 -5 1 -6 -5 -2 -5 3 -12 2 -14 -3 -1 -5 -14 -3
-28 5 l-25 14 33 -2 c19 -1 36 -7 39 -12z m72 -10 c-2 -2 -15 -9 -29 -15 -24
-11 -24 -11 -6 3 16 13 49 24 35 12z m89 -36 c6 -16 8 -30 4 -30 -4 0 -12 16
-18 35 -13 41 0 37 14 -5z m-32 8 c1 -10 -2 -20 -7 -24 -19 -12 -7 -84 15 -84
17 0 22 -225 5 -235 -8 -6 -10 -4 -4 5 6 9 2 10 -15 5 -17 -6 -21 -4 -14 6 16
26 12 39 -9 39 -15 0 -27 10 -37 33 -18 40 -18 44 -26 138 -6 72 -5 77 15 89
13 6 29 9 37 6 9 -3 12 -1 9 4 -3 6 -1 10 4 10 6 0 11 4 11 10 0 5 -18 3 -40
-5 -48 -17 -53 -10 -7 10 40 18 59 15 63 -7z m160 -148 c3 -59 2 -67 -5 -35
-5 22 -11 60 -15 85 -3 25 -8 56 -11 70 -4 17 0 14 11 -10 9 -19 18 -68 20
-110z m-1084 99 c-18 -18 -35 -29 -38 -26 -8 8 42 57 57 57 7 0 -2 -14 -19
-31z m965 -71 l1 -73 -8 65 c-7 57 -6 80 4 80 2 0 3 -33 3 -72z m-3873 -47
c-15 -39 -29 -70 -31 -67 -3 2 8 36 23 75 15 39 29 69 31 67 2 -2 -8 -36 -23
-75z m1423 22 c15 -7 29 -11 31 -8 3 2 -7 10 -22 16 -24 12 -35 28 -18 30 4 0
15 2 24 4 12 2 15 -2 10 -13 -5 -15 -4 -16 13 -2 17 14 18 13 12 -2 -3 -10 -2
-18 3 -18 6 0 10 6 11 13 0 6 7 -3 15 -20 8 -18 19 -33 25 -33 6 0 9 -9 6 -19
-4 -15 -1 -18 12 -14 13 5 13 3 -3 -15 -11 -13 -16 -30 -13 -43 3 -11 3 -18 0
-15 -8 8 -33 -13 -33 -28 0 -6 5 -4 11 4 9 13 10 13 6 0 -2 -9 -13 -14 -27
-12 -21 4 -22 2 -11 -12 12 -14 12 -16 -3 -10 -9 4 -16 3 -15 -2 4 -18 -14
-44 -31 -44 -9 0 -27 -9 -40 -20 -27 -23 -38 -26 -21 -6 10 12 8 13 -10 9 -16
-5 -20 -3 -14 6 6 10 3 11 -12 3 -15 -9 -23 -7 -35 8 -24 28 -38 57 -31 64 3
3 0 6 -7 6 -7 0 -10 3 -7 7 4 3 23 -10 42 -30 20 -21 41 -37 46 -37 6 0 -6 15
-25 34 -24 22 -36 43 -37 62 -1 29 -1 29 -9 4 -4 -14 -9 -19 -10 -12 -8 41 -3
61 22 92 15 19 28 40 28 47 0 17 47 46 60 38 8 -5 2 -18 -17 -38 l-28 -31 32
25 c18 13 33 33 34 44 l2 20 4 -20 c2 -11 16 -26 30 -32z m1483 -44 c0 -6 -4
-7 -10 -4 -5 3 -10 11 -10 16 0 6 5 7 10 4 6 -3 10 -11 10 -16z m721 -31 c11
-10 13 -23 8 -48 l-6 -35 -2 32 c-1 27 -6 34 -28 38 -16 3 -41 10 -58 14 -27
8 -25 9 21 10 27 1 57 -5 65 -11z m142 -67 c3 -13 -1 -21 -13 -24 -14 -4 -15
-1 -6 19 13 29 12 29 19 5z m-999 -186 c15 -22 43 -56 62 -77 19 -20 34 -39
34 -41 0 -10 -62 -37 -71 -31 -13 8 -49 78 -81 159 -15 39 -27 70 -27 70 1 0
-4 18 -10 40 -20 72 -12 71 27 -5 22 -41 51 -93 66 -115z m-105 113 c8 -29 20
-65 28 -80 7 -16 10 -28 6 -28 -12 0 -74 140 -68 151 12 19 22 7 34 -43z
m1031 -21 c0 -4 -13 6 -30 23 -16 17 -30 36 -30 43 1 13 59 -52 60 -66z m120
69 c0 -2 -20 -11 -45 -19 -52 -18 -60 -14 -12 7 32 14 57 20 57 12z m121 -29
l-24 -22 19 27 c10 14 21 24 23 22 3 -3 -6 -15 -18 -27z m-1278 -89 c24 -51
61 -118 82 -148 34 -51 35 -55 18 -68 -16 -12 -21 -10 -42 17 -27 35 -56 85
-109 189 -36 72 -36 74 -18 88 11 8 21 14 22 14 1 0 22 -42 47 -92z m886 89
c-2 -1 -15 -11 -28 -22 l-24 -20 12 23 c6 12 19 22 28 22 9 0 14 -1 12 -3z
m250 -14 c-13 -15 -12 -15 10 -4 19 11 22 11 16 0 -6 -9 -3 -11 8 -6 11 4 17
1 17 -8 0 -8 -7 -15 -15 -15 -8 0 -15 3 -15 8 0 4 -20 6 -45 5 -51 -2 -58 8
-17 24 44 18 57 16 41 -4z m-2134 -13 c-11 -5 -27 -9 -35 -9 -9 0 -8 4 5 9 11
5 27 9 35 9 9 0 8 -4 -5 -9z m936 -86 c16 -34 29 -66 29 -72 0 -6 6 -15 14
-19 13 -8 76 -104 76 -117 0 -19 -20 -1 -33 32 -9 20 -22 46 -31 57 -9 12 -5
-6 10 -43 23 -59 25 -90 3 -76 -29 18 -110 244 -108 304 0 15 3 19 6 10 3 -8
19 -42 34 -76z m-1016 66 c-3 -5 -14 -10 -23 -9 -14 0 -13 2 3 9 27 11 27 11
20 0z m965 -21 c0 -25 47 -182 67 -224 l14 -30 -23 29 c-28 36 -108 183 -108
198 0 14 30 48 42 48 4 0 8 -9 8 -21z m1264 -27 c17 -34 17 -37 0 -49 -10 -7
-24 -13 -31 -13 -8 0 -25 -12 -38 -26 l-25 -27 0 42 c0 28 -7 52 -21 69 l-21
27 26 10 c14 6 41 9 60 7 27 -3 37 -11 50 -40z m49 33 c-3 -9 -8 -14 -10 -11
-3 3 -2 9 2 15 9 16 15 13 8 -4z m-2383 -15 c-8 -5 -22 -9 -30 -9 -10 0 -8 3
5 9 27 12 43 12 25 0z m2360 -5 c0 -8 -2 -15 -4 -15 -2 0 -6 7 -10 15 -3 8 -1
15 4 15 6 0 10 -7 10 -15z m-152 -28 c23 -34 30 -91 12 -102 -15 -9 -12 -25 3
-19 15 5 26 -6 98 -94 50 -63 57 -92 22 -92 -15 0 -16 2 -3 10 17 11 9 13 -15
4 -12 -5 -13 -9 -4 -14 8 -6 2 -13 -19 -24 -18 -9 -35 -17 -39 -17 -5 0 -16
-7 -25 -16 -15 -13 -17 -13 -26 4 -5 10 -12 32 -16 48 -4 17 -16 39 -27 51
-19 20 -19 22 -2 35 16 13 17 12 4 -3 -18 -24 -6 -22 29 4 35 26 41 45 7 23
-13 -8 -27 -12 -30 -9 -4 4 -13 2 -21 -5 -18 -15 -30 11 -13 28 6 6 7 11 1 11
-6 0 -15 -5 -22 -12 -7 -7 -12 -8 -12 -2 0 14 21 34 36 34 13 0 13 -17 1 -37
-13 -21 6 -14 36 12 32 29 33 30 7 32 -13 1 -18 -3 -14 -10 3 -7 -1 -4 -8 5
-13 15 -17 15 -42 2 -16 -7 -34 -14 -41 -14 -15 0 -41 119 -28 130 24 23 100
69 113 70 8 0 25 -15 38 -33z m-1373 -57 c3 -5 1 -10 -4 -10 -6 0 -11 5 -11
10 0 6 2 10 4 10 3 0 8 -4 11 -10z m1505 0 c-8 -5 -22 -9 -30 -9 -10 0 -8 3 5
9 27 12 43 12 25 0z m-1582 -21 c17 -7 24 -5 28 6 4 8 11 15 16 15 7 0 6 -5
-1 -14 -9 -11 -6 -15 15 -20 l27 -7 -21 -22 c-16 -16 -25 -18 -33 -10 -8 8 -7
11 6 10 10 -1 20 3 22 9 3 8 -18 14 -59 19 -35 4 -74 13 -88 21 -23 12 -22 13
20 7 25 -3 55 -9 68 -14z m1291 -31 c6 -29 13 -63 15 -74 3 -15 -8 -33 -37
-60 -23 -22 -35 -30 -27 -19 8 11 25 28 38 39 13 10 20 21 17 24 -3 3 -21 -10
-40 -28 l-35 -34 -21 21 c-13 12 -23 38 -26 64 -4 42 -3 45 43 82 26 20 50 37
54 37 4 0 12 -24 19 -52z m341 17 c14 -19 14 -19 -2 -6 -10 7 -18 18 -18 24 0
6 1 8 3 6 1 -2 9 -13 17 -24z m-1725 1 c28 -8 43 -15 35 -15 -8 0 -37 6 -65
13 -27 8 -43 15 -35 15 8 0 38 -6 65 -13z m1721 -42 c21 -31 53 -73 69 -93 49
-58 66 -89 85 -158 l18 -64 -39 -26 c-22 -14 -42 -24 -44 -21 -3 2 14 15 38
28 23 14 35 25 27 27 -51 7 -88 8 -84 1 3 -4 -2 -8 -10 -8 -27 0 -27 18 1 29
28 11 28 11 -4 5 -21 -3 -33 -1 -33 5 0 6 7 11 15 11 8 0 15 5 15 10 0 6 -11
8 -27 4 -22 -6 -25 -4 -20 10 4 9 2 16 -4 16 -10 0 -7 50 5 68 3 5 -4 18 -15
28 -11 10 -40 47 -65 81 -25 35 -50 63 -56 63 -27 0 46 37 78 39 6 1 28 -24
50 -55z m-1836 32 c25 -8 36 -15 25 -15 -11 0 -33 6 -50 14 -39 18 -31 18 25
1z m-62 -8 c6 -1 12 -4 12 -8 0 -3 33 -12 74 -19 49 -8 80 -19 91 -31 16 -18
16 -20 2 -20 -8 0 -22 7 -31 15 -8 8 -19 15 -25 15 -6 0 -11 -7 -11 -15 0 -8
-9 -15 -21 -15 -11 0 -17 5 -14 10 3 6 -1 11 -9 11 -35 3 -41 5 -39 16 1 6 -5
14 -13 17 -12 5 -14 1 -8 -16 6 -20 5 -21 -10 -6 -9 9 -16 21 -16 27 0 6 -5
11 -11 11 -5 0 -7 -4 -4 -10 10 -16 -1 -11 -19 9 -16 17 -15 18 11 14 15 -2
34 -5 41 -5z m259 -4 c-3 -3 -12 -4 -19 -1 -8 3 -5 6 6 6 11 1 17 -2 13 -5z
m-300 -59 c23 -3 43 -11 43 -16 0 -6 -8 -8 -17 -5 -10 3 -60 14 -112 25 -51
11 -95 22 -98 25 -3 2 18 4 46 3 28 -1 51 -5 51 -9 0 -5 8 -8 18 -8 13 0 14 2
3 9 -8 6 -10 14 -5 22 6 11 11 7 18 -13 7 -21 18 -27 53 -33z m-12 17 c-3 -3
-11 0 -18 7 -9 10 -8 11 6 5 10 -3 15 -9 12 -12z m1996 1 c13 -16 12 -17 -3
-4 -10 7 -18 15 -18 17 0 8 8 3 21 -13z m-481 -97 c10 -13 10 -19 -1 -32 -12
-15 -11 -16 9 -10 18 6 21 4 16 -9 -4 -9 -13 -14 -21 -11 -8 4 -26 9 -39 12
-51 13 -63 87 -22 131 l22 23 11 -44 c7 -25 17 -52 25 -60z m-1809 66 c-7 -2
-18 1 -23 6 -8 8 -4 9 13 5 13 -4 18 -8 10 -11z m2370 -69 c44 -67 19 -49 -30
20 -24 34 -34 53 -22 42 13 -11 36 -39 52 -62z m-1951 57 c12 -7 10 -9 -8 -7
-12 0 -22 5 -22 9 0 11 12 10 30 -2z m1505 -50 c-21 -22 -44 -40 -49 -40 -6 0
8 18 29 40 21 22 44 40 49 40 6 0 -8 -18 -29 -40z m51 21 c-4 -5 -2 -11 3 -13
5 -1 -6 -20 -25 -40 -19 -21 -34 -33 -34 -28 0 5 -8 7 -17 3 -10 -3 2 15 27
41 42 44 58 57 46 37z m-1862 -31 c4 -4 -9 -7 -30 -5 -22 2 -46 4 -54 4 -12 1
-13 3 -1 10 15 10 71 4 85 -9z m1896 -8 c0 -13 -69 -76 -75 -70 -4 3 8 22 25
42 31 34 50 45 50 28z m-150 -52 c-6 -11 -15 -20 -20 -20 -6 0 -5 9 2 20 7 11
16 20 21 20 4 0 3 -9 -3 -20z m370 -1 c0 -6 -18 -18 -40 -26 -22 -9 -40 -20
-40 -25 0 -12 10 -10 46 13 29 17 34 18 34 5 0 -9 -6 -16 -14 -16 -7 0 -35
-12 -62 -26 -41 -22 -45 -22 -25 -5 15 14 18 21 9 21 -8 0 -19 -5 -26 -12 -6
-6 -14 -9 -17 -6 -4 4 122 88 133 88 1 0 2 -5 2 -11z m-350 -20 c-7 -11 -14
-18 -17 -15 -8 8 5 36 17 36 7 0 7 -6 0 -21z m539 -24 l0 -20 -9 20 c-5 11 -9
27 -9 35 -1 13 0 13 9 0 5 -8 9 -24 9 -35z m-496 2 c-3 -5 4 -15 15 -23 36
-25 82 -117 82 -163 0 -23 7 -53 16 -67 9 -13 15 -27 12 -29 -3 -3 -21 21 -41
54 -26 42 -37 71 -37 98 0 27 -6 46 -20 58 -11 10 -22 26 -25 36 -4 11 -11 16
-17 13 -7 -4 -8 2 -3 17 7 21 6 22 -9 10 -18 -15 -22 -1 -5 16 13 13 41 -5 32
-20z m312 -27 c4 -6 -18 -21 -50 -35 -62 -28 -65 -29 -65 -16 0 5 23 21 52 35
60 30 55 29 63 16z m-1565 -36 c0 -2 -11 -4 -25 -4 -14 0 -25 4 -25 9 0 4 11
6 25 3 14 -2 25 -6 25 -8z m61 0 c39 -20 34 -24 -16 -14 -22 4 -34 8 -27 9 7
0 10 6 7 11 -9 14 1 12 36 -6z m1519 7 c0 -5 -14 -14 -30 -21 -17 -7 -33 -16
-35 -21 -5 -7 30 1 69 17 15 6 18 4 13 -8 -4 -11 2 -18 19 -22 14 -4 22 -11
19 -16 -3 -6 -1 -10 4 -10 6 0 11 -8 11 -19 0 -10 13 -45 30 -77 16 -32 30
-60 30 -61 0 0 -15 -10 -32 -22 -18 -11 -44 -28 -58 -37 -14 -9 -9 -2 10 15
42 37 30 41 -16 6 l-33 -25 -56 115 c-30 64 -55 122 -55 129 0 6 24 24 53 38
62 32 57 30 57 19z m-1280 -54 c-1 -21 -1 -21 -15 -3 -8 10 -12 23 -9 28 9 14
24 -2 24 -25z m-315 1 c4 4 5 -4 2 -18 -4 -14 -7 -31 -7 -37 0 -7 -11 -13 -25
-13 -18 0 -26 7 -31 25 -8 33 12 58 36 45 9 -5 21 -6 25 -2z m285 -8 c8 -15 6
-23 -12 -40 -45 -43 -53 -42 -54 5 -1 45 -2 44 48 54 4 0 12 -8 18 -19z m1402
8 c-9 -9 -15 -9 -24 0 -9 9 -7 12 12 12 19 0 21 -3 12 -12z m88 2 c0 -5 -5
-10 -11 -10 -5 0 -7 5 -4 10 3 6 8 10 11 10 2 0 4 -4 4 -10z m-1783 -96 c-3
-3 -12 -4 -19 -1 -8 3 -5 6 6 6 11 1 17 -2 13 -5z m23 -18 c0 -11 -19 -15 -25
-6 -3 5 1 10 9 10 9 0 16 -2 16 -4z m1398 -101 c-3 -3 -9 2 -12 12 -6 14 -5
15 5 6 7 -7 10 -15 7 -18z m318 -16 c-13 -10 -28 -19 -32 -19 -5 0 2 7 14 16
12 8 20 20 17 25 -3 5 1 6 9 3 13 -5 12 -9 -8 -25z"/>
<path d="M2646 2221 c8 -29 7 -97 0 -110 -3 -4 -8 -28 -11 -52 -4 -35 -2 -40
6 -26 6 11 12 24 13 30 1 7 4 12 7 12 3 0 13 6 22 14 25 20 20 6 -13 -41 -16
-22 -30 -45 -30 -51 0 -5 20 20 45 56 l44 65 -19 38 c-11 21 -20 50 -20 64 -1
22 -2 23 -13 8 -12 -15 -14 -15 -25 0 -11 15 -12 14 -6 -7z m61 -104 c0 -12
-1 -16 -4 -9 -3 9 -9 10 -17 3 -9 -8 -13 -7 -13 4 0 8 5 11 10 8 6 -4 8 0 4
10 -4 10 -2 14 6 11 7 -2 13 -15 14 -27z"/>
<path d="M2552 2201 c-10 -28 -10 -32 3 -27 18 7 19 -5 3 -23 -11 -11 -10 -12
7 -3 12 7 20 22 21 42 1 20 -1 27 -6 20 -6 -9 -9 -8 -12 6 -3 15 -7 11 -16
-15z"/>
<path d="M2574 2135 c-10 -8 -14 -14 -9 -14 6 0 19 6 29 14 11 8 15 15 10 15
-6 0 -19 -7 -30 -15z"/>
<path d="M2690 2034 c-18 -25 -30 -47 -27 -50 2 -3 12 7 21 22 21 30 33 26 16
-6 -8 -15 -8 -20 -1 -16 6 4 19 22 28 39 15 30 15 31 0 18 -19 -15 -22 -8 -7
20 19 35 1 20 -30 -27z"/>
<path d="M667 2181 c2 -10 -5 -36 -16 -57 -12 -21 -21 -43 -21 -49 1 -11 26
33 46 81 11 27 11 33 0 37 -9 4 -12 0 -9 -12z"/>
<path d="M737 2149 c4 -16 8 -17 14 -7 7 10 9 10 9 -2 0 -13 1 -13 10 0 7 11
5 17 -8 22 -27 11 -30 9 -25 -13z"/>
<path d="M798 2143 c6 -2 12 -14 12 -26 1 -21 1 -21 11 -3 11 19 -2 37 -26 35
-5 0 -4 -3 3 -6z"/>
<path d="M676 2123 c-6 -14 -5 -15 5 -6 7 7 10 15 7 18 -3 3 -9 -2 -12 -12z"/>
<path d="M726 2103 c-6 -14 -5 -15 5 -6 7 7 10 15 7 18 -3 3 -9 -2 -12 -12z"/>
<path d="M999 2066 c6 -7 9 -22 6 -32 -4 -12 -2 -11 6 4 13 23 30 30 25 10 -1
-7 -1 -10 1 -5 3 4 9 5 14 1 5 -3 9 -1 9 4 0 6 -14 15 -31 21 -41 14 -44 14
-30 -3z"/>
<path d="M846 2035 c-9 -26 -7 -32 5 -12 6 10 9 21 6 23 -2 3 -7 -2 -11 -11z"/>
<path d="M1080 2036 c0 -8 4 -18 10 -21 6 -4 7 1 3 11 -4 12 -3 15 5 10 7 -4
12 -2 12 3 0 6 -7 11 -15 11 -8 0 -15 -6 -15 -14z"/>
<path d="M1015 2009 c-4 -6 -5 -12 -2 -15 2 -3 7 2 10 11 7 17 1 20 -8 4z"/>
<path d="M1066 1960 c-22 -56 -19 -65 5 -11 11 24 18 46 15 48 -2 2 -11 -14
-20 -37z"/>
<path d="M1250 1988 c14 -7 28 -17 32 -23 5 -6 8 -6 8 0 0 6 5 3 10 -5 8 -13
10 -13 10 1 0 9 -11 20 -24 23 -13 3 -32 8 -43 11 -10 3 -7 0 7 -7z"/>
<path d="M806 1940 c-9 -22 -16 -48 -16 -58 1 -9 9 8 20 38 22 65 20 79 -4 20z"/>
<path d="M1253 1940 c0 -23 3 -28 9 -16 5 9 5 23 0 32 -6 12 -9 7 -9 -16z"/>
<path d="M1360 1950 c8 -5 22 -9 30 -9 10 0 8 3 -5 9 -27 12 -43 12 -25 0z"/>
<path d="M1411 1924 c0 -11 3 -14 6 -6 3 7 2 16 -1 19 -3 4 -6 -2 -5 -13z"/>
<path d="M682 1905 c-17 -37 -14 -45 4 -12 9 16 14 31 11 33 -2 2 -9 -7 -15
-21z"/>
<path d="M1438 1923 c7 -3 16 -2 19 1 4 3 -2 6 -13 5 -11 0 -14 -3 -6 -6z"/>
<path d="M552 1895 c-17 -37 -14 -45 4 -12 9 16 14 31 11 33 -2 2 -9 -7 -15
-21z"/>
<path d="M766 1895 c-9 -26 -7 -32 5 -12 6 10 9 21 6 23 -2 3 -7 -2 -11 -11z"/>
<path d="M1501 1894 c0 -11 3 -14 6 -6 3 7 2 16 -1 19 -3 4 -6 -2 -5 -13z"/>
<path d="M1405 1849 c-4 -6 -5 -12 -2 -15 2 -3 7 2 10 11 7 17 1 20 -8 4z"/>
<path d="M588 1805 c-3 -11 -9 -29 -13 -40 -3 -11 1 -7 10 8 9 16 15 33 12 40
-2 6 -6 3 -9 -8z"/>
<path d="M1193 1615 c-3 -9 -3 -18 -1 -21 3 -3 8 4 11 16 6 23 -1 27 -10 5z"/>
<path d="M1226 1595 c-9 -26 -7 -32 5 -12 6 10 9 21 6 23 -2 3 -7 -2 -11 -11z"/>
<path d="M1406 1575 c-9 -26 -7 -32 5 -12 6 10 9 21 6 23 -2 3 -7 -2 -11 -11z"/>
<path d="M1281 1573 c-1 -6 -4 -20 -7 -30 -5 -17 -5 -17 6 0 6 10 9 23 6 30
-3 9 -5 9 -5 0z"/>
<path d="M3935 1590 c-3 -5 -1 -10 4 -10 6 0 11 5 11 10 0 6 -2 10 -4 10 -3 0
-8 -4 -11 -10z"/>
<path d="M2235 1499 c-9 -17 -14 -38 -12 -47 3 -12 5 -11 6 5 0 12 5 24 10 27
9 6 22 46 15 46 -2 0 -11 -14 -19 -31z"/>
<path d="M3375 1340 c-3 -6 1 -13 10 -16 19 -8 30 0 20 15 -8 14 -22 14 -30 1z"/>
<path d="M3421 1286 c-9 -10 -8 -15 4 -20 10 -4 15 1 15 14 0 24 -4 25 -19 6z"/>
<path d="M1640 1036 c0 -2 8 -10 18 -17 15 -13 16 -12 3 4 -13 16 -21 21 -21
13z"/>
<path d="M1456 965 c-9 -26 -7 -32 5 -12 6 10 9 21 6 23 -2 3 -7 -2 -11 -11z"/>
<path d="M1666 933 c-6 -14 -5 -15 5 -6 7 7 10 15 7 18 -3 3 -9 -2 -12 -12z"/>
<path d="M1595 851 c-6 -6 -23 -17 -40 -25 -16 -9 -23 -16 -15 -16 14 0 82 49
70 50 -4 0 -10 -4 -15 -9z"/>
<path d="M3931 431 c-28 -38 -26 -45 4 -25 14 9 23 19 20 22 -2 3 0 11 6 19 8
9 8 13 1 13 -6 0 -20 -13 -31 -29z"/>
<path d="M3738 483 c-19 -23 -31 -43 -24 -43 2 0 14 14 26 30 23 33 22 40 -2
13z"/>
<path d="M4095 86 c-28 -12 -65 -46 -51 -46 4 0 20 10 35 21 16 12 33 19 38
16 4 -3 17 1 28 9 19 14 19 14 -1 14 -10 -1 -33 -7 -49 -14z"/>
<path d="M630 2586 c0 -2 9 -6 20 -9 11 -3 18 -1 14 4 -5 9 -34 13 -34 5z"/>
<path d="M740 2584 c0 -1 14 -7 30 -13 17 -5 28 -6 25 -1 -3 4 0 10 6 12 7 2
-4 4 -24 4 -21 0 -37 -1 -37 -2z"/>
<path d="M2200 2580 c8 -5 20 -10 25 -10 6 0 3 5 -5 10 -8 5 -19 10 -25 10 -5
0 -3 -5 5 -10z"/>
<path d="M2527 2579 c7 -7 15 -10 18 -7 3 3 -2 9 -12 12 -14 6 -15 5 -6 -5z"/>
<path d="M2820 2586 c0 -2 7 -7 16 -10 8 -3 12 -2 9 4 -6 10 -25 14 -25 6z"/>
<path d="M2877 2579 c7 -7 15 -10 18 -7 3 3 -2 9 -12 12 -14 6 -15 5 -6 -5z"/>
<path d="M2910 2586 c0 -2 7 -7 16 -10 8 -3 12 -2 9 4 -6 10 -25 14 -25 6z"/>
<path d="M3024 2569 c13 -11 25 -14 31 -8 5 5 14 9 20 9 5 0 1 -7 -9 -15 -17
-13 -23 -12 -54 7 -20 12 -32 16 -28 9 7 -10 3 -12 -15 -7 -21 6 -20 4 4 -9
39 -22 27 -31 -13 -10 -21 11 -29 12 -24 4 5 -9 2 -10 -9 -6 -46 19 -47 16 -5
-7 45 -25 68 -46 51 -46 -5 0 -13 3 -19 8 -5 4 -4 1 2 -6 9 -11 28 -2 96 40
l85 54 -67 0 c-65 0 -66 -1 -46 -17z m-2 -23 c15 -11 15 -14 -10 -28 -25 -15
-29 -15 -51 3 -13 10 -18 19 -13 19 6 0 17 -6 24 -14 9 -10 17 -10 30 -3 15
10 15 12 0 24 -9 7 -12 12 -7 12 6 0 18 -5 27 -13z"/>
<path d="M3197 2578 c-15 -12 -14 -13 12 -15 16 -1 35 4 41 12 8 10 9 15 2 15
-6 0 -14 -4 -17 -10 -3 -5 -11 -10 -16 -10 -6 0 -7 5 -4 10 8 13 2 13 -18 -2z"/>
<path d="M3848 2540 c-1 -28 0 -50 5 -50 4 0 7 23 7 50 0 65 -7 65 -12 0z"/>
<path d="M4365 2579 c-10 -28 -12 -64 -4 -74 4 -6 9 -140 10 -298 1 -231 -1
-290 -12 -304 -13 -16 -12 -17 3 -5 14 11 17 10 22 -5 2 -10 2 142 -1 337 -3
195 -7 357 -9 359 -2 2 -6 -2 -9 -10z"/>
<path d="M2760 2575 c0 -7 61 -37 66 -33 2 3 -12 12 -31 21 -19 9 -35 15 -35
12z"/>
<path d="M4490 2560 c0 -11 4 -20 9 -20 5 0 7 9 4 20 -3 11 -7 20 -9 20 -2 0
-4 -9 -4 -20z"/>
<path d="M732 2561 c-11 -7 -11 -9 0 -14 9 -3 15 1 15 9 0 8 -1 14 -1 14 -1 0
-7 -4 -14 -9z"/>
<path d="M830 2560 c-8 -5 -10 -10 -5 -10 6 0 17 5 25 10 8 5 11 10 5 10 -5 0
-17 -5 -25 -10z"/>
<path d="M2660 2560 c8 -5 20 -10 25 -10 6 0 3 5 -5 10 -8 5 -19 10 -25 10 -5
0 -3 -5 5 -10z"/>
<path d="M1266 2545 c-11 -8 -15 -15 -9 -15 6 0 16 7 23 15 16 19 11 19 -14 0z"/>
<path d="M1570 2556 c0 -2 7 -7 16 -10 8 -3 12 -2 9 4 -6 10 -25 14 -25 6z"/>
<path d="M2030 2550 c8 -5 20 -10 25 -10 6 0 3 5 -5 10 -8 5 -19 10 -25 10 -5
0 -3 -5 5 -10z"/>
<path d="M3188 2555 c-3 -3 -16 -8 -29 -10 -13 -3 -30 -12 -36 -22 -7 -9 -13
-13 -13 -8 0 4 -8 1 -18 -8 -10 -10 -22 -14 -27 -10 -4 5 -5 3 -2 -3 4 -7 -10
-19 -33 -29 -22 -10 -37 -22 -34 -27 3 -4 10 -6 15 -2 5 3 16 0 24 -6 12 -10
15 -8 16 11 1 15 5 8 9 -16 l7 -40 2 42 c1 32 6 45 22 54 21 11 21 10 16 -47
-4 -39 -3 -49 2 -29 5 17 9 44 10 62 1 24 8 35 37 52 19 12 40 19 45 16 5 -4
9 1 9 9 0 16 -12 21 -22 11z"/>
<path d="M3221 2519 c1 -19 5 -47 10 -64 5 -20 6 -9 2 30 -6 66 -14 88 -12 34z"/>
<path d="M3322 2520 c0 -14 2 -19 5 -12 2 6 2 18 0 25 -3 6 -5 1 -5 -13z"/>
<path d="M4526 2488 c-7 -64 -4 -154 7 -164 4 -4 7 -20 7 -36 0 -15 5 -28 10
-28 7 0 9 13 5 33 -12 65 -17 133 -16 190 1 71 -6 74 -13 5z"/>
<path d="M1410 2520 c8 -5 20 -10 25 -10 6 0 3 5 -5 10 -8 5 -19 10 -25 10 -5
0 -3 -5 5 -10z"/>
<path d="M2500 2526 c0 -2 7 -7 16 -10 8 -3 12 -2 9 4 -6 10 -25 14 -25 6z"/>
<path d="M3903 2490 c0 -25 2 -35 4 -22 2 12 2 32 0 45 -2 12 -4 2 -4 -23z"/>
<path d="M4249 2443 c0 -49 -2 -99 -3 -113 -2 -14 0 -34 4 -45 4 -11 8 18 9
70 0 50 4 109 7 133 4 28 3 42 -5 42 -7 0 -11 -30 -12 -87z"/>
<path d="M1505 2510 c-3 -6 1 -7 9 -4 18 7 21 14 7 14 -6 0 -13 -4 -16 -10z"/>
<path d="M3193 2480 c0 -25 2 -35 4 -22 2 12 2 32 0 45 -2 12 -4 2 -4 -23z"/>
<path d="M4496 2504 c-8 -22 -6 -85 4 -109 6 -14 9 3 9 53 1 73 -2 85 -13 56z"/>
<path d="M4583 2475 c0 -22 2 -30 4 -17 2 12 2 30 0 40 -3 9 -5 -1 -4 -23z"/>
<path d="M1465 2490 c-3 -6 1 -7 9 -4 18 7 21 14 7 14 -6 0 -13 -4 -16 -10z"/>
<path d="M3866 2478 c-7 -29 -8 -103 0 -96 6 6 15 118 9 118 -1 0 -5 -10 -9
-22z"/>
<path d="M4694 2415 c0 -49 1 -71 3 -48 2 23 2 64 0 90 -2 26 -3 8 -3 -42z"/>
<path d="M3411 2474 c0 -11 3 -14 6 -6 3 7 2 16 -1 19 -3 4 -6 -2 -5 -13z"/>
<path d="M1030 2476 c0 -2 9 -6 20 -9 11 -3 18 -1 14 4 -5 9 -34 13 -34 5z"/>
<path d="M3842 2450 c0 -19 2 -27 5 -17 2 9 2 25 0 35 -3 9 -5 1 -5 -18z"/>
<path d="M2130 2466 c0 -2 7 -7 16 -10 8 -3 12 -2 9 4 -6 10 -25 14 -25 6z"/>
<path d="M2337 2459 c7 -7 15 -10 18 -7 3 3 -2 9 -12 12 -14 6 -15 5 -6 -5z"/>
<path d="M3213 2435 c0 -22 2 -30 4 -17 2 12 2 30 0 40 -3 9 -5 -1 -4 -23z"/>
<path d="M2480 2456 c0 -2 7 -7 16 -10 8 -3 12 -2 9 4 -6 10 -25 14 -25 6z"/>
<path d="M965 2440 c-16 -7 -17 -9 -3 -9 9 -1 20 4 23 9 7 11 7 11 -20 0z"/>
<path d="M2060 2430 c8 -5 20 -10 25 -10 6 0 3 5 -5 10 -8 5 -19 10 -25 10 -5
0 -3 -5 5 -10z"/>
<path d="M3406 2418 c-3 -13 -5 -34 -5 -48 1 -15 5 -7 10 19 9 47 6 68 -5 29z"/>
<path d="M2042 2411 c-11 -7 -10 -10 3 -15 9 -3 24 -1 33 4 14 9 12 10 -7 4
-16 -4 -21 -3 -17 5 8 13 6 14 -12 2z"/>
<path d="M4720 2400 c0 -5 5 -10 10 -10 6 0 10 5 10 10 0 6 -4 10 -10 10 -5 0
-10 -4 -10 -10z"/>
<path d="M1140 2380 c-9 -6 -10 -10 -3 -10 6 0 15 5 18 10 8 12 4 12 -15 0z"/>
<path d="M2120 2386 c0 -2 7 -7 16 -10 8 -3 12 -2 9 4 -6 10 -25 14 -25 6z"/>
<path d="M3422 2370 c0 -14 2 -19 5 -12 2 6 2 18 0 25 -3 6 -5 1 -5 -13z"/>
<path d="M1867 2339 c7 -7 15 -10 18 -7 3 3 -2 9 -12 12 -14 6 -15 5 -6 -5z"/>
<path d="M2163 2325 c0 -7 6 -11 14 -8 7 3 13 6 13 8 0 2 -6 5 -13 8 -8 3 -14
-1 -14 -8z"/>
<path d="M3593 2290 c0 -25 2 -35 4 -22 2 12 2 32 0 45 -2 12 -4 2 -4 -23z"/>
<path d="M1100 2312 c8 -5 26 -13 40 -16 17 -5 20 -4 10 2 -8 5 -26 13 -40 16
-17 5 -20 4 -10 -2z"/>
<path d="M4148 2273 c-3 -21 -2 -47 2 -58 5 -13 8 1 9 38 1 65 -5 75 -11 20z"/>
<path d="M4273 2260 c0 -30 2 -43 4 -27 2 15 2 39 0 55 -2 15 -4 2 -4 -28z"/>
<path d="M340 2286 c0 -2 7 -7 16 -10 8 -3 12 -2 9 4 -6 10 -25 14 -25 6z"/>
<path d="M1415 2280 c-3 -5 -1 -10 4 -10 6 0 11 5 11 10 0 6 -2 10 -4 10 -3 0
-8 -4 -11 -10z"/>
<path d="M1570 2276 c0 -2 9 -6 20 -9 11 -3 18 -1 14 4 -5 9 -34 13 -34 5z"/>
<path d="M1480 2250 c-13 -8 -12 -10 3 -10 9 0 17 5 17 10 0 12 -1 12 -20 0z"/>
<path d="M1547 2233 c-3 -3 1 -12 9 -20 8 -9 18 -13 21 -10 3 3 -1 13 -10 21
-8 8 -17 12 -20 9z"/>
<path d="M4242 2220 c0 -14 2 -19 5 -12 2 6 2 18 0 25 -3 6 -5 1 -5 -13z"/>
<path d="M1867 2213 c-3 -5 6 -9 20 -10 19 -1 22 1 12 8 -17 11 -26 11 -32 2z"/>
<path d="M3963 2160 c0 -36 2 -50 4 -32 2 17 2 47 0 65 -2 17 -4 3 -4 -33z"/>
<path d="M4622 2168 c-8 -32 -8 -46 2 -60 11 -16 13 -10 15 42 1 33 0 60 -2
60 -3 0 -9 -19 -15 -42z"/>
<path d="M2441 2170 c-24 -16 -48 -27 -54 -23 -5 3 -7 1 -4 -4 10 -16 -23 -25
-39 -12 -9 7 -14 8 -14 1 0 -6 6 -12 12 -14 7 -3 -4 -15 -24 -29 -41 -26 -48
-39 -20 -34 9 1 16 8 14 14 -1 7 3 11 10 9 19 -4 109 52 102 63 -3 6 2 9 12 7
12 -2 18 2 16 11 -2 8 3 11 11 8 8 -3 20 -1 28 4 11 7 11 9 1 9 -7 0 -10 5 -7
10 9 15 4 13 -44 -20z m-41 -45 c0 -2 -10 -9 -22 -15 -22 -11 -22 -10 -4 4 21
17 26 19 26 11z"/>
<path d="M4277 2130 c7 -89 13 -104 13 -31 0 29 5 61 10 72 7 13 7 19 0 19 -5
0 -10 -8 -11 -17 -1 -12 -4 -10 -9 7 -5 15 -6 -6 -3 -50z"/>
<path d="M1465 2180 c27 -12 43 -12 25 0 -8 5 -22 9 -30 9 -10 0 -8 -3 5 -9z"/>
<path d="M4244 2105 c0 -49 1 -71 3 -48 2 23 2 64 0 90 -2 26 -3 8 -3 -42z"/>
<path d="M1670 2176 c0 -2 7 -7 16 -10 8 -3 12 -2 9 4 -6 10 -25 14 -25 6z"/>
<path d="M1530 2158 c67 -30 129 -52 210 -75 52 -15 -30 20 -118 51 -102 35
-142 46 -92 24z"/>
<path d="M246 2145 c-9 -24 -7 -32 4 -15 9 13 10 13 10 0 1 -11 3 -11 11 3 6
10 8 21 5 24 -3 4 -6 0 -6 -8 0 -11 -2 -12 -9 -1 -7 11 -10 10 -15 -3z"/>
<path d="M4445 2150 c-3 -5 -2 -18 4 -27 7 -14 9 -12 8 10 -2 30 -3 31 -12 17z"/>
<path d="M4327 2126 c-9 -23 -21 -122 -14 -116 7 6 27 123 22 128 -1 2 -5 -4
-8 -12z"/>
<path d="M2282 2121 c-11 -6 -10 -10 4 -15 9 -3 19 -4 22 -1 3 3 0 5 -7 5 -7
0 -9 5 -6 10 7 12 4 12 -13 1z"/>
<path d="M1910 2110 c8 -5 20 -10 25 -10 6 0 3 5 -5 10 -8 5 -19 10 -25 10 -5
0 -3 -5 5 -10z"/>
<path d="M2462 2115 c11 -11 -60 -58 -74 -49 -7 4 -8 3 -4 -4 7 -11 -7 -17
-29 -12 -5 1 -7 -2 -3 -6 4 -4 0 -13 -10 -21 -21 -18 -1 -8 52 25 31 19 40 21
47 10 7 -11 9 -10 9 1 0 8 7 22 16 32 12 14 13 18 2 25 -7 4 -10 4 -6 -1z"/>
<path d="M1930 2080 c8 -5 20 -10 25 -10 6 0 3 5 -5 10 -8 5 -19 10 -25 10 -5
0 -3 -5 5 -10z"/>
<path d="M1760 2077 c0 -7 122 -48 127 -43 3 2 -20 12 -49 21 -29 10 -59 20
-65 23 -7 2 -13 2 -13 -1z"/>
<path d="M227 2055 c-4 -10 -3 -23 3 -29 8 -8 9 -6 4 8 -5 13 -4 17 4 12 6 -3
14 -1 18 5 4 7 3 9 -4 5 -5 -3 -12 -1 -14 6 -3 7 -7 4 -11 -7z"/>
<path d="M4520 1988 c0 -29 -3 -77 -6 -105 -4 -29 -3 -53 2 -53 5 0 10 47 12
105 2 58 1 105 -2 105 -3 0 -6 -24 -6 -52z"/>
<path d="M2199 2018 c-7 -23 -5 -38 3 -36 14 5 20 38 7 38 -5 0 -9 -1 -10 -2z"/>
<path d="M2290 2005 c0 -2 7 -8 15 -15 12 -10 15 -10 15 2 0 8 -7 15 -15 15
-8 0 -15 -1 -15 -2z"/>
<path d="M2272 1974 c-1 -13 0 -24 2 -24 7 0 14 40 7 44 -4 3 -8 -6 -9 -20z"/>
<path d="M4113 1950 c0 -30 2 -43 4 -27 2 15 2 39 0 55 -2 15 -4 2 -4 -28z"/>
<path d="M4492 1910 c0 -19 2 -27 5 -17 2 9 2 25 0 35 -3 9 -5 1 -5 -18z"/>
<path d="M4174 1835 c0 -55 1 -76 3 -47 2 29 2 74 0 100 -2 26 -3 2 -3 -53z"/>
<path d="M4540 1897 c0 -20 4 -37 10 -37 5 0 7 14 3 33 -8 45 -13 47 -13 4z"/>
<path d="M2431 1884 c0 -11 3 -14 6 -6 3 7 2 16 -1 19 -3 4 -6 -2 -5 -13z"/>
<path d="M2180 1870 c0 -11 2 -20 4 -20 2 0 6 9 9 20 3 11 1 20 -4 20 -5 0 -9
-9 -9 -20z"/>
<path d="M2151 1864 c0 -11 3 -14 6 -6 3 7 2 16 -1 19 -3 4 -6 -2 -5 -13z"/>
<path d="M4111 1864 c0 -11 3 -14 6 -6 3 7 2 16 -1 19 -3 4 -6 -2 -5 -13z"/>
<path d="M4384 1755 c0 -66 1 -92 3 -57 2 34 2 88 0 120 -2 31 -3 3 -3 -63z"/>
<path d="M4232 1820 c0 -14 2 -19 5 -12 2 6 2 18 0 25 -3 6 -5 1 -5 -13z"/>
<path d="M4197 1823 c-4 -3 -6 -27 -6 -52 l2 -46 7 50 c8 53 7 59 -3 48z"/>
<path d="M4493 1775 c0 -33 2 -45 4 -27 2 18 2 45 0 60 -2 15 -4 0 -4 -33z"/>
<path d="M2462 1795 c0 -16 2 -22 5 -12 2 9 2 23 0 30 -3 6 -5 -1 -5 -18z"/>
<path d="M2621 1774 c0 -11 3 -14 6 -6 3 7 2 16 -1 19 -3 4 -6 -2 -5 -13z"/>
<path d="M4544 1765 c-4 -8 -4 -25 -1 -38 3 -12 -1 -31 -9 -41 -9 -13 -14 -44
-14 -83 0 -50 -4 -65 -16 -70 -24 -9 -49 11 -49 40 -1 31 -21 57 -46 57 -30 0
-43 -36 -26 -72 8 -18 -7 -58 -21 -58 -4 0 -9 15 -10 33 -4 47 -32 117 -48
117 -8 0 -13 3 -13 8 4 21 -4 31 -28 41 -18 7 -21 10 -8 8 11 -1 26 2 32 6 9
6 11 3 6 -10 -6 -16 -5 -16 11 -4 22 18 2 33 -34 24 -40 -9 -50 -23 -50 -68 0
-26 -6 -47 -15 -55 -9 -7 -13 -20 -10 -29 2 -9 1 -36 -3 -61 -5 -33 -14 -48
-32 -58 l-25 -14 25 6 c14 3 34 6 45 6 17 0 17 2 5 10 -10 6 -11 10 -2 10 6 0
12 9 12 20 0 12 7 20 16 20 13 0 14 -3 5 -14 -24 -28 37 -26 185 8 173 39 246
51 224 38 -8 -6 -49 -15 -90 -22 -41 -6 -82 -15 -91 -20 -17 -9 -126 -33 -149
-33 -8 0 -19 -3 -25 -7 -5 -4 -41 -13 -80 -20 -38 -7 -76 -14 -82 -16 -9 -2
-12 -23 -11 -66 l2 -63 5 60 5 60 6 -70 6 -70 2 73 c2 63 4 72 21 72 16 0 19
-12 26 -102 5 -57 7 -107 6 -112 -1 -4 9 -6 21 -3 13 3 44 9 70 12 37 6 44 10
35 20 -9 9 -14 10 -19 1 -4 -6 -7 41 -6 104 l2 115 6 -85 6 -85 2 71 c2 57 6
75 22 89 15 14 20 15 21 4 0 -8 2 -26 4 -42 2 -15 0 -25 -4 -22 -8 4 3 -69 16
-110 l6 -20 8 20 c6 17 8 16 8 -8 1 -16 -2 -26 -6 -24 -5 3 -17 1 -28 -4 -38
-15 9 -10 145 16 73 14 134 25 136 25 2 0 4 7 4 16 0 14 -1 14 -16 0 -17 -18
-64 -22 -64 -5 0 5 6 7 13 3 7 -5 6 0 -3 11 -9 11 -10 16 -2 11 9 -5 12 9 13
61 1 71 5 64 23 -40 4 -21 11 -35 17 -32 5 4 5 14 -1 26 -8 15 -8 19 2 17 7
-2 17 -16 23 -33 9 -28 12 -30 50 -24 22 3 30 7 18 8 -20 1 -23 7 -25 49 l-1
47 -7 -45 c-6 -33 -7 -26 -4 29 2 41 4 93 4 116 0 36 4 43 28 52 27 11 27 11
-5 6 -18 -3 -33 -3 -33 0 0 4 15 11 33 16 l32 9 -32 1 c-31 1 -32 3 -44 60 -8
45 -17 62 -35 72 -14 7 -24 21 -24 35 0 33 -55 49 -66 19z m46 -33 c0 -13 -12
-22 -22 -16 -10 6 -1 24 13 24 5 0 9 -4 9 -8z m50 -57 c0 -8 -7 -15 -15 -15
-13 0 -14 3 -3 15 16 18 18 18 18 0z m-80 -19 c0 -11 -19 -15 -25 -6 -3 5 1
10 9 10 9 0 16 -2 16 -4z m-255 -36 c-3 -5 -11 -10 -16 -10 -6 0 -7 5 -4 10 3
6 11 10 16 10 6 0 7 -4 4 -10z m15 -24 c0 -8 -8 -13 -17 -12 -21 4 -33 -11
-33 -42 0 -19 4 -21 25 -16 21 5 25 3 25 -15 0 -17 -6 -21 -29 -21 -26 0 -29
3 -33 40 -4 46 -2 52 27 68 27 15 35 15 35 -2z m320 0 c0 -8 -5 -18 -12 -22
-7 -4 -8 -3 -4 4 4 7 2 12 -4 12 -6 0 -8 5 -5 10 9 15 25 12 25 -4z m-214 -7
c10 -17 -13 -36 -27 -22 -12 12 -4 33 11 33 5 0 12 -5 16 -11z m-196 -7 c0
-13 -12 -22 -22 -16 -10 6 -1 24 13 24 5 0 9 -4 9 -8z m340 -2 c0 -5 -4 -10
-10 -10 -5 0 -10 5 -10 10 0 6 5 10 10 10 6 0 10 -4 10 -10z m37 -26 c-3 -3
-12 -4 -19 -1 -8 3 -5 6 6 6 11 1 17 -2 13 -5z m50 -76 c-2 -13 -4 -5 -4 17
-1 22 1 32 4 23 2 -10 2 -28 0 -40z m13 -65 c-11 -17 -11 -17 -6 0 3 10 7 40
8 65 l2 47 3 -47 c2 -26 -1 -56 -7 -65z m-149 48 c7 12 9 11 9 -2 0 -16 -38
-34 -49 -24 -2 3 1 5 7 5 7 0 13 15 13 33 l2 32 4 -29 c4 -22 7 -26 14 -15z
m-54 -58 c-2 -16 -4 -5 -4 22 0 28 2 40 4 28 2 -13 2 -35 0 -50z m55 22 c9 -4
13 -24 12 -68 -2 -87 -2 -86 -21 -84 -16 1 -18 10 -15 79 2 43 5 78 7 78 2 0
9 -2 17 -5z m-35 -67 c-3 -7 -5 -2 -5 12 0 14 2 19 5 13 2 -7 2 -19 0 -25z
m-72 3 c-3 -6 -11 -11 -16 -11 -5 0 -4 6 3 14 14 16 24 13 13 -3z m41 -27 c-4
-14 -9 -24 -12 -21 -3 2 -2 17 2 31 3 15 9 25 11 22 3 -3 2 -17 -1 -32z m-216
-1 c0 -10 -4 -14 -8 -8 -4 6 -11 13 -16 18 -5 4 -2 7 7 7 10 0 17 -8 17 -17z
m242 -35 c-3 -25 -9 -38 -19 -38 -12 0 -13 7 -8 27 6 26 25 57 30 51 1 -2 0
-20 -3 -40z m-208 -50 c4 -20 2 -28 -6 -28 -8 0 -14 17 -15 48 -2 48 6 39 21
-20z m166 27 c0 -14 -4 -25 -10 -25 -5 0 -10 11 -10 25 0 14 5 25 10 25 6 0
10 -11 10 -25z"/>
<path d="M2612 1730 c0 -14 2 -19 5 -12 2 6 2 18 0 25 -3 6 -5 1 -5 -13z"/>
<path d="M97 1703 c3 -7 6 -13 8 -13 2 0 5 6 8 13 3 8 -1 14 -8 14 -7 0 -11
-6 -8 -14z"/>
<path d="M4066 1649 c-3 -34 -6 -76 -5 -93 l1 -31 9 30 c5 17 7 35 4 42 -2 7
0 35 4 62 4 28 5 51 1 51 -4 0 -10 -28 -14 -61z"/>
<path d="M4305 1689 c-11 -17 1 -21 15 -4 8 9 8 15 2 15 -6 0 -14 -5 -17 -11z"/>
<path d="M4182 1670 c0 -14 2 -19 5 -12 2 6 2 18 0 25 -3 6 -5 1 -5 -13z"/>
<path d="M86 1665 c-9 -26 -7 -32 5 -12 6 10 9 21 6 23 -2 3 -7 -2 -11 -11z"/>
<path d="M2341 1594 c0 -11 3 -14 6 -6 3 7 2 16 -1 19 -3 4 -6 -2 -5 -13z"/>
<path d="M3001 1584 c0 -11 3 -14 6 -6 3 7 2 16 -1 19 -3 4 -6 -2 -5 -13z"/>
<path d="M4033 1555 c0 -27 2 -38 4 -22 2 15 2 37 0 50 -2 12 -4 0 -4 -28z"/>
<path d="M409 1581 c12 -8 10 -21 -13 -81 -15 -40 -25 -74 -23 -76 2 -2 17 32
34 76 25 65 28 80 16 84 -22 9 -30 7 -14 -3z"/>
<path d="M446 1554 c-9 -24 -2 -26 12 -4 7 11 8 20 3 20 -5 0 -12 -7 -15 -16z"/>
<path d="M498 1550 c12 -5 22 -14 22 -20 0 -6 5 -8 11 -4 8 4 9 -1 5 -17 l-7
-24 16 25 c13 20 15 21 12 5 -3 -11 -8 -29 -11 -40 -4 -11 1 -5 10 12 14 27
22 32 43 27 14 -2 -3 7 -39 20 -36 14 -69 25 -75 25 -5 0 0 -4 13 -9z"/>
<path d="M4103 1520 c0 -25 2 -35 4 -22 2 12 2 32 0 45 -2 12 -4 2 -4 -23z"/>
<path d="M2989 1522 c-2 -13 -6 -30 -8 -34 -1 -2 -3 -39 -6 -83 -2 -44 -2 -75
0 -70 7 19 25 189 20 193 -3 3 -6 0 -6 -6z"/>
<path d="M661 1492 c26 -12 34 -22 31 -37 l-4 -20 17 20 17 20 -7 -20 c-16
-46 -15 -48 4 -15 l19 35 -31 11 c-62 22 -83 25 -46 6z"/>
<path d="M4120 1465 c0 -29 -16 -34 -23 -7 -3 11 -5 9 -6 -8 0 -14 4 -32 10
-40 9 -13 10 -12 5 3 -3 11 0 17 9 17 10 0 15 10 15 30 0 17 -2 30 -5 30 -3 0
-5 -11 -5 -25z"/>
<path d="M4238 1463 c7 -3 16 -2 19 1 4 3 -2 6 -13 5 -11 0 -14 -3 -6 -6z"/>
<path d="M4071 1448 c0 -10 -3 -18 -5 -18 -2 0 -11 -3 -19 -6 -10 -3 -17 2
-20 13 -4 14 -5 13 -6 -6 -1 -20 2 -22 26 -16 35 8 36 9 30 32 -4 16 -5 16 -6
1z"/>
<path d="M830 1440 c8 -5 20 -10 25 -10 6 0 3 5 -5 10 -8 5 -19 10 -25 10 -5
0 -3 -5 5 -10z"/>
<path d="M3101 1424 c0 -11 3 -14 6 -6 3 7 2 16 -1 19 -3 4 -6 -2 -5 -13z"/>
<path d="M676 1413 c-6 -14 -5 -15 5 -6 7 7 10 15 7 18 -3 3 -9 -2 -12 -12z"/>
<path d="M867 1423 c-4 -3 -7 -11 -7 -17 0 -6 4 -4 10 4 18 30 23 -2 7 -48
-23 -65 -21 -79 4 -17 32 83 32 85 11 85 -10 0 -22 -3 -25 -7z"/>
<path d="M552 1395 c-7 -14 -12 -31 -12 -38 1 -7 7 3 16 22 17 39 13 54 -4 16z"/>
<path d="M953 1403 c4 -6 24 -14 44 -18 21 -4 42 -9 47 -13 12 -7 72 -14 65
-8 -2 2 -32 11 -66 20 -34 9 -70 19 -79 23 -11 4 -15 2 -11 -4z"/>
<path d="M4055 1403 c-11 -3 -24 -9 -29 -14 -5 -5 5 -4 24 1 51 15 55 25 5 13z"/>
<path d="M1021 1363 c-1 -6 -4 -20 -7 -30 -5 -17 -5 -17 6 0 6 10 9 23 6 30
-3 9 -5 9 -5 0z"/>
<path d="M1026 1315 c-9 -26 -7 -32 5 -12 6 10 9 21 6 23 -2 3 -7 -2 -11 -11z"/>
<path d="M1240 1320 c20 -13 33 -13 25 0 -3 6 -14 10 -23 10 -15 0 -15 -2 -2
-10z"/>
<path d="M539 1283 c-5 -14 -8 -30 -6 -36 1 -5 8 7 14 27 13 42 7 49 -8 9z"/>
<path d="M1212 1278 c-16 -51 -24 -94 -18 -87 8 7 36 113 31 117 -2 2 -8 -12
-13 -30z"/>
<path d="M1305 1301 c3 -6 10 -9 15 -6 4 3 11 0 13 -5 3 -6 4 -5 3 2 -1 7 -11
15 -21 16 -11 3 -15 0 -10 -7z"/>
<path d="M2172 1290 c0 -14 2 -19 5 -12 2 6 2 18 0 25 -3 6 -5 1 -5 -13z"/>
<path d="M2621 1294 c0 -11 3 -14 6 -6 3 7 2 16 -1 19 -3 4 -6 -2 -5 -13z"/>
<path d="M316 1285 c-9 -26 -7 -32 5 -12 6 10 9 21 6 23 -2 3 -7 -2 -11 -11z"/>
<path d="M2962 1280 c0 -14 2 -19 5 -12 2 6 2 18 0 25 -3 6 -5 1 -5 -13z"/>
<path d="M1381 1274 c0 -11 3 -14 6 -6 3 7 2 16 -1 19 -3 4 -6 -2 -5 -13z"/>
<path d="M2901 1234 c0 -11 3 -14 6 -6 3 7 2 16 -1 19 -3 4 -6 -2 -5 -13z"/>
<path d="M2952 1215 c0 -16 2 -22 5 -12 2 9 2 23 0 30 -3 6 -5 -1 -5 -18z"/>
<path d="M3021 1214 c0 -11 3 -14 6 -6 3 7 2 16 -1 19 -3 4 -6 -2 -5 -13z"/>
<path d="M511 1204 c0 -11 3 -14 6 -6 3 7 2 16 -1 19 -3 4 -6 -2 -5 -13z"/>
<path d="M981 1179 c-6 -18 -9 -34 -7 -36 2 -2 9 10 15 28 6 18 9 34 7 36 -2
2 -9 -10 -15 -28z"/>
<path d="M546 1185 c-9 -26 -7 -32 5 -12 6 10 9 21 6 23 -2 3 -7 -2 -11 -11z"/>
<path d="M1306 1154 c-4 -14 -5 -28 -3 -31 3 -2 8 8 11 23 4 14 5 28 3 31 -3
2 -8 -8 -11 -23z"/>
<path d="M3000 1160 c-18 -12 -2 -12 25 0 13 6 15 9 5 9 -8 0 -22 -4 -30 -9z"/>
<path d="M2821 1144 c0 -11 3 -14 6 -6 3 7 2 16 -1 19 -3 4 -6 -2 -5 -13z"/>
<path d="M522 1125 c-7 -14 -12 -31 -12 -38 1 -7 7 3 16 22 17 39 13 54 -4 16z"/>
<path d="M1266 1135 c-3 -9 -6 -22 -5 -28 0 -7 5 -1 10 12 5 13 8 26 5 28 -2
2 -6 -3 -10 -12z"/>
<path d="M2876 1135 c-3 -8 -1 -15 4 -15 6 0 10 7 10 15 0 8 -2 15 -4 15 -2 0
-6 -7 -10 -15z"/>
<path d="M2930 1139 c-12 -8 -9 -9 13 -5 15 4 27 3 26 -1 -1 -5 -1 -17 0 -28
2 -19 2 -19 12 -2 22 37 -14 62 -51 36z"/>
<path d="M404 1126 c-3 -8 -4 -23 -2 -33 3 -11 6 -6 9 15 6 34 2 42 -7 18z"/>
<path d="M4582 1105 c0 -16 2 -22 5 -12 2 9 2 23 0 30 -3 6 -5 -1 -5 -18z"/>
<path d="M1086 1103 c-6 -14 -5 -15 5 -6 7 7 10 15 7 18 -3 3 -9 -2 -12 -12z"/>
<path d="M2849 1112 c0 -4 -3 -34 -5 -67 -2 -33 -6 -65 -9 -72 -2 -7 0 -15 5
-18 6 -4 10 6 11 22 1 51 9 117 15 122 3 3 9 -1 14 -9 8 -13 10 -13 10 1 0 16
-39 35 -41 21z"/>
<path d="M886 1093 c-6 -14 -5 -15 5 -6 7 7 10 15 7 18 -3 3 -9 -2 -12 -12z"/>
<path d="M2798 1103 c6 -2 18 -2 25 0 6 3 1 5 -13 5 -14 0 -19 -2 -12 -5z"/>
<path d="M591 1049 c-6 -18 -9 -34 -7 -36 2 -2 9 10 15 28 6 18 9 34 7 36 -2
2 -9 -10 -15 -28z"/>
<path d="M2011 1064 c0 -11 3 -14 6 -6 3 7 2 16 -1 19 -3 4 -6 -2 -5 -13z"/>
<path d="M2960 1069 c0 -5 5 -7 10 -4 6 3 10 8 10 11 0 2 -4 4 -10 4 -5 0 -10
-5 -10 -11z"/>
<path d="M2660 1066 c0 -2 7 -7 16 -10 8 -3 12 -2 9 4 -6 10 -25 14 -25 6z"/>
<path d="M2719 1068 c-2 -3 -5 -25 -13 -98 -4 -33 -13 -60 -23 -67 -26 -20
-11 -23 37 -7 25 8 33 13 18 11 -33 -5 -33 -2 -14 96 7 37 9 67 4 67 -4 0 -9
-1 -9 -2z"/>
<path d="M4696 1061 c-18 -7 -18 -8 -3 -14 20 -7 47 1 47 14 0 11 -17 11 -44
0z"/>
<path d="M826 1031 c-17 -14 -44 -41 -60 -59 -37 -42 -67 -54 -130 -53 -93 1
-171 -63 -191 -159 -4 -19 -18 -55 -30 -80 -21 -43 -22 -46 -5 -82 9 -21 20
-41 24 -45 8 -8 -8 37 -23 65 -6 12 -3 28 8 50 l17 34 12 -40 c12 -38 70 -102
93 -102 5 0 4 -12 -4 -27 -8 -16 -13 -41 -12 -58 1 -16 -1 -32 -5 -35 -4 -3
-13 -19 -22 -36 -14 -29 -14 -31 2 -27 14 4 19 -4 24 -40 6 -38 3 -51 -17 -80
-14 -20 -27 -33 -31 -30 -3 4 -6 1 -6 -6 0 -8 -8 -11 -20 -8 -15 4 -22 -1 -27
-21 -3 -15 -14 -38 -25 -51 -10 -13 -18 -30 -18 -38 0 -11 -4 -11 -28 1 -16 8
-34 22 -41 30 -7 9 -16 14 -20 12 -4 -3 -18 4 -31 15 l-25 20 40 -7 c22 -4 55
-13 73 -20 18 -7 30 -9 27 -4 -3 6 -2 10 4 10 6 0 8 7 4 16 -5 13 -7 13 -14 2
-7 -11 -9 -11 -9 1 0 11 -3 11 -15 1 -8 -6 -18 -9 -23 -6 -10 6 -59 17 -87 19
-11 1 -23 7 -27 12 -5 6 -8 6 -8 -2 0 -30 144 -114 248 -144 35 -10 79 -27 98
-39 39 -22 59 -26 48 -9 -4 8 3 9 22 5 70 -14 104 -18 104 -13 0 3 -26 11 -57
17 -32 6 -66 15 -76 21 -10 5 -22 7 -27 4 -6 -4 -10 -1 -10 6 0 6 -10 10 -23
7 -21 -4 -23 -1 -22 40 0 48 12 60 42 43 20 -10 52 2 66 26 4 7 14 13 22 13
22 0 42 40 44 89 2 54 8 66 26 51 10 -8 14 -2 19 32 3 24 8 60 12 81 3 21 2
36 -3 35 -4 -2 -21 9 -36 23 -38 35 -28 62 19 53 20 -4 34 -2 34 4 0 13 38 23
46 11 3 -5 10 -7 15 -4 14 9 29 -38 17 -52 -6 -7 -15 -13 -21 -13 -7 0 -7 4 1
12 7 7 12 19 12 27 0 10 -7 5 -18 -12 -10 -15 -27 -34 -38 -41 -10 -8 -16 -18
-11 -22 4 -4 7 -2 7 4 0 7 6 12 14 12 11 0 10 -11 -6 -57 -10 -31 -17 -62 -15
-67 2 -5 11 17 20 50 16 56 37 100 37 79 0 -5 -12 -55 -25 -109 -14 -55 -24
-104 -21 -110 2 -6 5 -1 5 12 2 40 42 23 54 -23 3 -11 4 13 1 53 -6 84 9 147
33 138 8 -3 19 -6 25 -6 11 0 8 -45 -11 -197 -12 -92 -42 -179 -59 -176 -7 2
-12 -2 -12 -9 0 -6 -8 -20 -17 -30 -16 -18 -14 -19 75 -17 51 1 92 3 92 5 0 3
-11 9 -25 14 -14 5 -25 17 -25 25 0 9 4 14 8 11 4 -2 9 5 9 17 l2 22 -19 -23
c-20 -24 -45 -29 -56 -11 -4 8 1 9 17 4 23 -7 24 -7 4 9 -11 8 -15 16 -8 16 6
0 15 -5 18 -10 4 -6 11 -8 16 -4 6 4 6 11 -2 20 -10 13 -8 13 15 4 40 -15 48
-13 86 23 47 44 66 82 73 147 l6 55 -13 -45 -12 -45 -17 25 c-9 14 -41 51 -72
83 -59 63 -62 80 -29 135 8 12 11 22 7 22 -4 0 1 6 12 14 11 7 31 13 45 12 22
-1 25 -5 24 -41 0 -22 -4 -67 -7 -100 -8 -69 -2 -63 8 8 6 45 7 47 37 45 l30
-2 -5 -56 c-3 -34 -2 -47 3 -35 5 11 9 40 9 64 1 24 6 72 13 108 10 54 15 64
35 70 14 3 35 23 49 44 13 22 29 39 35 39 6 0 9 9 6 20 -3 11 -1 23 4 26 6 3
6 11 -1 19 -7 8 -9 18 -6 24 3 5 -1 12 -10 15 -22 9 -31 7 -16 -3 24 -14 21
-75 -4 -104 -12 -14 -24 -23 -28 -20 -3 3 -13 2 -23 -2 -16 -7 -15 -9 7 -15
l25 -6 -35 -22 c-48 -31 -83 -26 -91 13 -4 17 -7 22 -8 12 -2 -26 -21 -10 -21
17 0 24 34 76 50 76 4 0 6 -10 4 -22 -2 -13 -1 -16 2 -8 4 8 12 21 18 29 8 11
8 13 -1 7 -8 -4 -13 -2 -13 4 0 6 -4 8 -10 5 -13 -8 -13 8 1 22 7 7 7 13 0 17
-12 8 -43 -48 -33 -59 4 -5 1 -5 -7 0 -9 5 -12 4 -7 -3 8 -13 -10 -52 -24 -52
-6 0 -10 5 -10 11 0 6 -9 22 -20 36 -26 33 -25 28 5 -31 16 -31 23 -57 19 -70
-6 -18 -5 -19 10 -7 9 7 16 9 16 4 0 -5 -9 -17 -21 -26 -11 -10 -18 -21 -15
-24 3 -4 17 4 31 17 14 13 28 20 32 16 10 -9 -33 -46 -53 -46 -17 0 -27 22
-49 103 -13 45 -24 63 -53 84 -20 15 -48 38 -61 51 -14 12 -30 21 -38 18 -7
-3 -13 -1 -13 4 0 6 6 10 13 11 6 0 3 4 -8 9 -13 6 -15 9 -5 9 12 1 13 3 1 10
-7 5 -16 31 -19 59 -4 46 -2 53 30 87 l34 38 -4 -37 c-7 -61 -1 -67 56 -49 46
15 50 19 56 53 9 59 27 67 84 38 29 -16 45 -31 43 -39 -2 -8 -5 -27 -6 -44 -2
-21 -1 -23 2 -5 2 14 12 31 21 38 14 11 14 13 -4 28 -75 60 -191 72 -248 25z
m99 2 c-3 -10 -9 -30 -12 -45 -4 -18 -15 -30 -36 -37 -16 -6 -32 -11 -33 -11
-7 0 -4 75 4 86 6 11 32 19 71 23 9 1 11 -5 6 -16z m-156 -231 c6 -12 15 -21
19 -21 42 7 41 -13 -3 -34 -19 -9 -35 -21 -35 -26 0 -10 25 -74 42 -108 24
-48 -2 -32 -32 19 -23 39 -29 61 -25 84 4 22 0 35 -14 48 -20 18 -35 60 -40
116 -1 12 -3 12 -11 -2 -12 -19 21 -105 47 -125 9 -7 14 -15 11 -18 -10 -10
-62 54 -74 91 -6 21 -12 31 -13 21 -1 -10 6 -34 14 -54 8 -19 15 -45 16 -57 0
-11 3 -15 6 -9 3 10 10 10 25 2 19 -10 19 -11 2 -30 -9 -10 -23 -19 -31 -19
-7 0 -13 -5 -13 -11 0 -8 -5 -8 -15 1 -20 16 -62 5 -76 -21 -8 -16 -7 -25 7
-40 18 -20 14 -31 -13 -35 -27 -4 -39 9 -17 18 16 7 15 8 -5 4 -49 -10 -97 77
-86 155 4 27 11 49 15 49 5 0 7 -11 4 -24 -7 -38 17 -50 60 -29 30 14 36 22
36 47 0 47 19 106 37 113 9 3 24 1 33 -5 10 -6 21 -8 24 -4 4 3 13 7 21 8 11
2 15 -9 17 -39 l1 -42 4 39 c3 22 12 45 21 52 15 11 18 7 23 -39 3 -29 11 -62
18 -75z m-194 81 c-4 -10 -10 -37 -12 -61 -4 -28 -13 -48 -27 -57 -36 -26 -46
-19 -46 35 0 46 2 51 38 74 45 30 57 32 47 9z m58 -219 c9 -10 -25 -65 -38
-61 -18 6 -17 38 2 52 20 16 27 18 36 9z m74 -46 c37 -71 36 -68 23 -68 -6 0
-8 5 -5 10 3 6 2 10 -4 10 -11 0 -51 71 -51 90 0 20 10 9 37 -42z m-50 -118
c-7 -38 -14 -50 -26 -48 -25 5 -27 38 -2 38 12 0 21 6 21 15 0 18 -16 20 -23
3 -3 -7 -6 1 -6 18 -1 37 6 46 29 34 15 -8 16 -16 7 -60z m-57 36 c0 -13 -8
-33 -17 -45 -16 -19 -20 -20 -37 -8 -17 13 -17 15 -2 45 20 39 56 44 56 8z
m100 -68 c0 -13 -23 -5 -28 10 -2 7 2 10 12 6 9 -3 16 -11 16 -16z m196 -6
c-17 -16 -18 -16 -5 5 7 12 15 20 18 17 3 -2 -3 -12 -13 -22z m-401 -302 c3
-5 2 -10 -4 -10 -5 0 -13 5 -16 10 -3 6 -2 10 4 10 5 0 13 -4 16 -10z m-15
-62 c0 -4 -4 -8 -9 -8 -6 0 -12 4 -15 8 -3 5 1 9 9 9 8 0 15 -4 15 -9z"/>
<path d="M875 1020 c-12 -5 -14 -9 -6 -9 11 -1 10 -5 -5 -17 -16 -13 -16 -15
-1 -10 19 6 24 -9 5 -18 -7 -3 -4 -5 7 -3 13 1 21 13 26 35 7 34 5 35 -26 22z"/>
<path d="M725 850 c4 -39 2 -51 -5 -40 -5 8 -10 10 -10 4 0 -7 9 -22 19 -35
l20 -24 -4 51 c-2 27 -9 61 -15 75 -8 19 -9 13 -5 -31z"/>
<path d="M760 770 c0 -5 5 -10 11 -10 5 0 7 5 4 10 -3 6 -8 10 -11 10 -2 0 -4
-4 -4 -10z"/>
<path d="M520 850 c-12 -8 -12 -10 -1 -10 10 0 11 -3 2 -14 -9 -11 -9 -15 1
-19 9 -3 7 -9 -7 -21 -20 -15 -10 -23 11 -8 12 7 25 82 14 82 -3 0 -12 -5 -20
-10z"/>
<path d="M604 646 c-10 -8 -16 -17 -13 -20 3 -3 14 3 24 14 21 23 17 26 -11 6z"/>
<path d="M4576 1051 c-3 -5 8 -14 25 -21 l31 -13 -27 -14 c-28 -15 -61 -10
-50 7 3 5 11 10 16 10 6 0 7 -4 4 -10 -4 -6 1 -7 11 -3 28 11 -32 36 -70 29
-17 -4 -40 -7 -50 -7 -26 0 -8 -14 37 -29 20 -6 35 -15 32 -20 -3 -4 5 -6 17
-2 13 3 19 1 15 -5 -5 -7 1 -9 15 -6 19 4 20 3 8 -7 -12 -9 -11 -10 7 -5 20 5
21 4 10 -19 -7 -14 -16 -26 -20 -26 -5 0 -6 4 -3 9 3 5 -1 14 -9 21 -8 7 -15
9 -15 4 0 -5 -5 -2 -10 6 -7 12 -12 12 -22 2 -6 -6 -19 -12 -27 -11 -11 0 -12
2 -4 6 10 3 10 8 -1 19 -18 18 -44 17 -76 -1 -30 -17 -21 -20 13 -4 19 8 30 8
43 -1 16 -10 17 -11 2 -6 -10 3 -25 3 -34 -1 -23 -9 5 -24 30 -17 10 4 16 2
13 -2 -3 -5 8 -10 25 -10 17 -1 34 -7 39 -15 4 -7 11 -10 15 -6 4 4 16 -1 26
-10 12 -10 36 -17 64 -17 30 -1 43 -4 40 -13 -3 -8 1 -10 11 -6 11 4 14 2 9
-5 -4 -7 -1 -12 8 -12 27 0 18 28 -14 42 -33 14 -39 28 -12 29 12 0 10 3 -7
10 -13 5 -26 7 -29 4 -3 -3 0 -5 7 -5 7 0 9 -5 6 -11 -4 -6 -14 -8 -22 -5 -8
3 -11 1 -8 -4 3 -6 -3 -10 -14 -10 -11 0 -23 5 -27 12 -5 8 -2 9 11 4 15 -5
16 -4 5 9 -9 11 -10 19 -2 27 16 16 98 -14 94 -36 -2 -9 4 -16 13 -16 9 0 15
9 15 24 0 20 -7 26 -47 36 -45 11 -47 12 -28 26 12 9 32 13 50 9 29 -5 29 -4
-5 9 -33 14 -28 19 15 17 l20 -1 -20 9 c-23 10 -79 -14 -70 -29 4 -6 2 -10 -4
-10 -22 0 -16 26 10 40 28 15 28 16 9 28 -12 7 -20 8 -20 2 0 -5 6 -10 13 -10
8 0 7 -4 -3 -10 -21 -13 -30 -12 -27 3 1 6 -5 12 -13 12 -8 0 -20 4 -27 8 -6
4 -14 3 -17 -2z m-30 -33 c-9 -5 -23 -5 -32 0 -12 6 -7 9 16 9 23 0 28 -3 16
-9z m81 -25 c-4 -3 -1 -13 6 -21 10 -13 9 -14 -12 -3 -19 10 -21 15 -10 22 17
10 25 12 16 2z m-57 -65 c0 -10 -9 -9 -35 2 -17 8 -16 8 8 7 15 -1 27 -5 27
-9z"/>
<path d="M2597 1036 c-3 -8 1 -17 9 -20 9 -4 14 1 14 14 0 23 -15 27 -23 6z"/>
<path d="M2171 1024 c0 -11 3 -14 6 -6 3 7 2 16 -1 19 -3 4 -6 -2 -5 -13z"/>
<path d="M2191 1014 c0 -11 3 -14 6 -6 3 7 2 16 -1 19 -3 4 -6 -2 -5 -13z"/>
<path d="M2508 1023 c-14 -3 -18 -14 -17 -46 1 -27 3 -33 6 -18 3 14 12 35 20
48 8 13 14 22 12 22 -2 -1 -12 -3 -21 -6z"/>
<path d="M4407 1024 c-3 -4 -32 -8 -64 -11 -115 -8 -147 -17 -134 -40 8 -15
81 -46 89 -39 2 2 -15 12 -37 22 -48 22 -51 28 -14 31 19 1 22 -1 12 -8 -10
-6 -11 -9 -1 -9 7 0 15 6 18 13 4 11 27 14 72 9 7 -1 10 -6 7 -12 -3 -5 0 -10
7 -10 9 0 9 -3 -2 -10 -21 -13 -33 -12 -24 2 5 8 2 9 -9 5 -10 -3 -17 -2 -17
3 0 5 -7 7 -16 3 -12 -4 -8 -9 17 -20 28 -11 31 -16 19 -24 -12 -9 -12 -10 3
-5 10 3 21 6 23 6 3 0 2 5 -2 11 -4 8 1 9 17 5 13 -3 18 -3 11 0 -10 5 -9 9 5
20 17 13 17 14 -2 7 -17 -5 -17 -3 5 18 14 14 31 23 39 20 9 -3 12 0 7 7 -8
13 -19 15 -29 6z m-21 -26 c-9 -5 -23 -5 -32 0 -12 6 -7 9 16 9 23 0 28 -3 16
-9z"/>
<path d="M1166 995 c-9 -26 -7 -32 5 -12 6 10 9 21 6 23 -2 3 -7 -2 -11 -11z"/>
<path d="M2347 990 c-3 -11 -1 -20 4 -20 5 0 9 9 9 20 0 11 -2 20 -4 20 -2 0
-6 -9 -9 -20z"/>
<path d="M1991 984 c0 -11 3 -14 6 -6 3 7 2 16 -1 19 -3 4 -6 -2 -5 -13z"/>
<path d="M1108 983 c6 -2 12 -9 12 -14 0 -4 -7 -6 -15 -3 -11 5 -15 -1 -15
-24 0 -41 9 -62 27 -62 11 0 14 7 9 28 -5 21 -4 24 5 12 9 -12 10 -11 6 8 -3
12 -1 20 4 16 5 -3 9 -1 9 5 0 14 -29 41 -43 40 -9 0 -8 -2 1 -6z"/>
<path d="M2380 975 c-10 -12 -10 -15 4 -15 9 0 16 7 16 15 0 8 -2 15 -4 15 -2
0 -9 -7 -16 -15z"/>
<path d="M4680 970 c-13 -9 -13 -10 0 -10 8 0 25 -3 38 -6 14 -4 22 -2 22 6 0
7 -7 10 -15 6 -8 -3 -15 -1 -15 4 0 13 -11 12 -30 0z"/>
<path d="M0 869 c0 -68 4 -94 15 -106 13 -12 18 -13 31 -2 10 8 18 9 25 2 7
-7 2 -16 -15 -27 -15 -9 -26 -21 -26 -27 0 -5 12 2 28 16 16 15 35 24 45 21
12 -3 21 3 27 17 7 17 9 18 9 5 1 -10 6 -18 11 -18 6 0 10 -7 10 -16 0 -14 2
-15 17 -3 15 12 16 12 10 -5 -6 -15 -5 -17 7 -7 8 6 23 14 35 16 18 3 20 1 11
-15 -6 -10 -15 -22 -20 -25 -6 -3 -10 -10 -10 -16 0 -5 13 5 28 22 27 31 29
31 47 13 17 -17 18 -17 12 -1 -9 24 12 22 42 -5 14 -13 19 -15 12 -5 -12 14
-11 17 3 17 9 0 16 5 16 10 0 6 6 10 14 10 12 0 12 -5 -1 -31 -8 -16 -13 -32
-10 -35 2 -3 9 9 15 25 6 17 15 31 20 31 9 0 32 43 32 60 0 4 -24 16 -52 26
-109 35 -258 96 -258 104 0 5 -6 7 -13 4 -8 -3 -37 4 -65 15 l-52 21 0 -91z"/>
<path d="M1981 944 c0 -11 3 -14 6 -6 3 7 2 16 -1 19 -3 4 -6 -2 -5 -13z"/>
<path d="M2325 950 c-3 -6 1 -7 9 -4 18 7 21 14 7 14 -6 0 -13 -4 -16 -10z"/>
<path d="M2373 928 c-2 -18 0 -20 7 -8 12 18 13 30 2 30 -4 0 -9 -10 -9 -22z"/>
<path d="M2260 925 c0 -8 5 -15 10 -15 6 0 10 7 10 15 0 8 -4 15 -10 15 -5 0
-10 -7 -10 -15z"/>
<path d="M1149 902 c-3 -20 -2 -29 4 -23 5 5 7 19 5 32 -3 20 -5 19 -9 -9z"/>
<path d="M2144 922 c-6 -4 -7 -17 -3 -32 6 -23 10 -19 13 13 1 6 6 15 11 19 7
5 7 8 0 8 -5 0 -15 -4 -21 -8z"/>
<path d="M2586 915 c-3 -8 -1 -15 4 -15 6 0 10 7 10 15 0 8 -2 15 -4 15 -2 0
-6 -7 -10 -15z"/>
<path d="M1237 913 c-4 -3 -7 -11 -7 -17 0 -6 5 -5 12 2 6 6 9 14 7 17 -3 3
-9 2 -12 -2z"/>
<path d="M2650 905 c0 -8 -8 -16 -17 -17 -40 -4 -49 -6 -76 -17 -16 -6 -36
-11 -45 -12 -11 0 -13 -2 -4 -6 7 -3 44 3 82 12 56 14 70 21 70 36 0 10 -2 19
-5 19 -3 0 -5 -7 -5 -15z"/>
<path d="M4438 913 c7 -3 16 -2 19 1 4 3 -2 6 -13 5 -11 0 -14 -3 -6 -6z"/>
<path d="M2097 889 c4 -13 8 -18 11 -10 2 7 -1 18 -6 23 -8 8 -9 4 -5 -13z"/>
<path d="M4285 890 c-4 -6 -16 -8 -28 -5 -12 2 -16 2 -9 -1 6 -3 10 -9 8 -12
-2 -4 9 -7 25 -8 22 -1 26 2 19 11 -5 6 -7 15 -3 18 3 4 4 7 0 7 -3 0 -9 -5
-12 -10z"/>
<path d="M4340 890 c-9 -6 -10 -10 -3 -10 6 0 15 5 18 10 8 12 4 12 -15 0z"/>
<path d="M1075 862 c7 -32 6 -33 -22 -26 -15 4 -25 3 -20 -1 4 -5 32 -10 63
-11 46 -2 55 1 52 14 -2 10 -14 18 -28 20 -14 2 -31 11 -38 20 -12 15 -13 13
-7 -16z m60 -23 c-7 -11 -35 -12 -35 -1 0 4 9 8 20 9 11 1 18 -2 15 -8z"/>
<path d="M4435 880 c27 -12 43 -12 25 0 -8 5 -22 9 -30 9 -10 0 -8 -3 5 -9z"/>
<path d="M4483 880 c2 -8 15 -15 28 -16 51 -1 56 -3 39 -14 -8 -5 -10 -10 -4
-10 15 0 39 29 30 37 -3 3 -6 1 -6 -5 0 -6 -7 -9 -16 -5 -12 5 -13 7 -2 14 8
5 4 8 -12 7 -14 -1 -28 -7 -32 -13 -5 -6 -12 -5 -19 5 -9 13 -10 13 -6 0z"/>
<path d="M1215 861 c-3 -12 -9 -33 -11 -48 l-5 -27 21 19 c12 11 25 19 29 17
3 -2 7 5 8 15 2 14 1 15 -5 3 -4 -8 -15 -16 -24 -18 -15 -2 -16 1 -8 24 6 15
9 29 6 31 -2 3 -7 -5 -11 -16z"/>
<path d="M2467 860 c-9 -11 -25 -20 -34 -20 -10 0 -28 -3 -40 -6 -18 -5 -23
-2 -24 12 0 16 -2 15 -9 -3 -6 -13 -18 -23 -30 -23 -29 0 -33 -1 -52 -11 -14
-8 -18 -6 -19 8 0 14 -2 15 -6 3 -3 -8 -11 -18 -17 -22 -19 -13 6 -9 128 17
64 14 118 25 120 25 3 0 4 9 3 20 -1 11 -2 20 -2 20 0 0 -8 -9 -18 -20z"/>
<path d="M4320 859 c0 -5 5 -7 10 -4 6 3 10 8 10 11 0 2 -4 4 -10 4 -5 0 -10
-5 -10 -11z"/>
<path d="M4420 860 c-9 -6 -10 -10 -3 -10 6 0 15 5 18 10 8 12 4 12 -15 0z"/>
<path d="M890 842 c-47 -23 -50 -64 -5 -95 40 -29 51 -43 74 -102 13 -32 20
-42 20 -28 1 12 -8 39 -20 59 -11 20 -18 43 -15 51 3 8 2 12 -2 9 -11 -6 -76
33 -68 41 3 3 18 -3 33 -13 15 -10 31 -17 35 -16 5 1 21 -12 38 -30 16 -17 30
-26 30 -20 0 6 -5 14 -10 17 -6 4 -7 11 -4 17 4 7 2 8 -4 4 -7 -4 -12 -2 -12
3 0 6 5 11 11 11 6 0 9 9 6 20 -3 13 0 20 9 20 8 0 14 5 14 10 0 7 7 7 21 0
11 -7 23 -10 25 -7 2 2 -8 10 -23 18 -20 11 -27 11 -30 2 -3 -7 -12 -13 -20
-13 -9 0 -13 -6 -9 -15 3 -8 1 -15 -5 -15 -5 0 -18 20 -29 45 -11 25 -21 45
-22 45 -2 -1 -19 -9 -38 -18z m53 -38 c1 -11 7 -26 12 -34 8 -13 7 -13 -8 -1
-9 7 -14 17 -12 22 3 4 -3 17 -14 28 -13 13 -16 21 -8 24 13 5 25 -11 30 -39z
m-46 9 c8 -10 11 -12 7 -4 -5 9 -3 12 4 7 20 -12 13 -26 -13 -26 -18 0 -25 5
-25 20 0 25 8 25 27 3z"/>
<path d="M4350 850 c0 -5 5 -10 11 -10 5 0 7 5 4 10 -3 6 -8 10 -11 10 -2 0
-4 -4 -4 -10z"/>
<path d="M4445 850 c-3 -5 -2 -10 4 -10 5 0 13 5 16 10 3 6 2 10 -4 10 -5 0
-13 -4 -16 -10z"/>
<path d="M2130 835 c0 -8 2 -15 4 -15 2 0 6 7 10 15 3 8 1 15 -4 15 -6 0 -10
-7 -10 -15z"/>
<path d="M4290 840 c-9 -6 -10 -10 -3 -10 6 0 15 5 18 10 8 12 4 12 -15 0z"/>
<path d="M4480 839 c-12 -8 -10 -9 9 -4 17 5 21 4 16 -5 -4 -7 1 -13 14 -17
12 -3 21 -10 21 -15 0 -5 10 -6 23 -3 22 7 22 7 -2 -11 -22 -16 -24 -16 -33 0
-5 9 -17 16 -26 16 -15 0 -15 -2 -2 -10 8 -5 11 -10 5 -10 -5 0 4 -10 22 -21
26 -16 36 -18 50 -9 16 10 16 11 1 6 -18 -5 -32 6 -21 17 11 12 65 -24 59 -39
-5 -12 -2 -12 15 -3 16 8 28 8 46 0 25 -12 63 -7 63 8 0 12 -69 30 -76 20 -3
-5 -13 -9 -22 -8 -11 0 -12 3 -4 6 6 2 12 9 12 14 0 6 -4 8 -9 4 -5 -3 -13 0
-16 6 -4 5 -14 8 -22 5 -8 -3 -11 -1 -8 4 3 6 1 10 -5 10 -6 0 -9 4 -6 9 4 5
-2 7 -12 5 -9 -3 -28 -1 -42 5 -14 5 -18 10 -10 11 13 0 13 1 0 10 -19 12 -22
12 -40 -1z m230 -105 c0 -2 -9 0 -20 6 -11 6 -20 13 -20 16 0 2 9 0 20 -6 11
-6 20 -13 20 -16z"/>
<path d="M4574 839 c-4 -8 1 -9 16 -4 16 5 20 4 15 -5 -5 -9 -1 -10 15 -5 15
5 20 4 16 -4 -4 -6 -2 -9 7 -5 15 6 73 -14 64 -22 -3 -3 -15 -1 -26 6 -15 8
-26 8 -39 0 -14 -9 -13 -10 7 -4 16 4 21 3 17 -5 -5 -7 -1 -9 8 -5 9 3 16 2
16 -4 0 -5 11 -7 25 -4 25 4 36 32 13 32 -9 0 -8 4 2 11 12 8 9 9 -10 5 -14
-3 -48 1 -74 9 -59 18 -63 18 -72 4z"/>
<path d="M4670 840 c8 -5 20 -10 25 -10 6 0 3 5 -5 10 -8 5 -19 10 -25 10 -5
0 -3 -5 5 -10z"/>
<path d="M4200 830 c0 -5 7 -7 15 -4 8 4 15 8 15 10 0 2 -7 4 -15 4 -8 0 -15
-4 -15 -10z"/>
<path d="M4321 831 c-9 -6 1 -14 38 -26 42 -14 54 -14 70 -3 15 11 16 15 5 25
-8 8 -15 9 -19 3 -3 -6 0 -10 7 -10 9 0 9 -3 -2 -10 -19 -12 -33 -13 -26 -1 4
5 -4 7 -16 3 -13 -3 -19 -1 -15 5 5 7 -1 9 -15 5 -14 -3 -19 -2 -14 6 9 14 6
15 -13 3z"/>
<path d="M4237 817 c-3 -9 5 -14 25 -15 37 -3 75 -27 58 -37 -6 -4 -19 0 -29
9 -21 19 -57 21 -67 4 -4 -6 -3 -8 3 -5 6 4 16 0 23 -7 6 -8 19 -15 28 -14 24
0 81 -20 59 -21 -11 -1 -16 -6 -12 -13 4 -7 1 -6 -7 2 -7 8 -26 16 -43 16 -51
3 -53 4 -69 19 -9 9 -17 11 -21 5 -3 -5 5 -14 18 -19 13 -5 27 -19 30 -30 3
-13 14 -21 29 -22 12 0 18 -3 11 -5 -6 -3 -46 6 -88 20 -71 23 -112 25 -99 5
3 -5 -1 -6 -9 -3 -8 3 -17 1 -21 -4 -9 -14 23 -52 45 -52 13 0 18 -4 13 -12
-6 -10 -4 -10 7 0 14 13 43 17 36 5 -3 -5 -1 -17 4 -28 6 -17 8 -15 8 11 1 30
1 30 59 30 l57 -1 6 -65 6 -65 0 69 c0 45 4 71 11 74 7 2 12 0 12 -5 1 -22 13
-118 15 -121 2 -2 5 21 7 51 1 30 0 53 -4 50 -5 -2 -8 2 -8 9 0 8 13 15 30 16
l29 2 4 -122 3 -123 2 121 2 121 60 10 c52 8 62 7 70 -6 8 -14 9 -14 10 2 0
25 28 21 33 -5 4 -23 4 -23 6 -1 1 14 7 22 19 21 9 0 37 2 61 5 42 6 43 5 39
-18 -3 -13 -1 -22 3 -19 5 3 9 14 9 25 0 10 7 19 15 19 8 0 15 4 15 9 0 9 -52
7 -92 -4 -22 -5 -22 -5 2 9 33 20 22 20 -25 0 -20 -8 -34 -10 -30 -5 3 6 2 11
-4 11 -5 0 -13 -4 -16 -10 -3 -5 -11 -10 -16 -10 -12 0 7 21 36 39 l20 13 -20
-8 c-11 -4 -36 -7 -55 -6 -19 0 -38 -4 -43 -11 -6 -8 -7 -7 -4 4 4 13 -15 23
-91 48 -54 18 -105 33 -114 35 -10 1 -21 5 -24 9 -11 11 -21 8 -27 -6z m178
-77 c3 -6 -1 -7 -9 -4 -18 7 -21 14 -7 14 6 0 13 -4 16 -10z m-107 -35 c3 -3
2 -8 -2 -12 -4 -4 -10 -3 -14 2 -4 6 -16 10 -26 10 -11 0 -21 5 -23 12 -3 9 4
10 28 3 17 -5 34 -12 37 -15z m90 13 c-2 -7 7 -13 19 -13 11 0 24 -2 27 -5 8
-9 -36 -5 -57 5 -15 6 -16 10 -5 16 17 11 18 11 16 -3z m-253 -18 c3 -5 1 -10
-4 -10 -6 0 -11 5 -11 10 0 6 2 10 4 10 3 0 8 -4 11 -10z"/>
<path d="M1161 811 c-10 -6 -9 -10 5 -15 20 -8 25 -4 16 11 -4 7 -13 9 -21 4z"/>
<path d="M4162 801 c-10 -6 -8 -10 8 -14 30 -8 57 2 38 14 -17 11 -29 11 -46
0z"/>
<path d="M1011 757 c-6 -8 -8 -17 -4 -20 12 -12 19 -7 19 13 0 24 0 24 -15 7z"/>
<path d="M4718 763 c7 -3 16 -2 19 1 4 3 -2 6 -13 5 -11 0 -14 -3 -6 -6z"/>
<path d="M1150 742 c-17 -6 -39 -32 -40 -46 0 -4 9 2 20 15 l20 24 -4 -26 c-2
-14 0 -32 4 -40 7 -11 13 -10 29 5 12 11 21 22 21 26 0 17 -36 48 -50 42z m24
-17 c3 -8 1 -15 -4 -15 -6 0 -10 7 -10 15 0 8 2 15 4 15 2 0 6 -7 10 -15z"/>
<path d="M4130 741 c0 -5 12 -11 28 -14 15 -3 36 -8 47 -12 11 -3 2 3 -20 14
-46 22 -55 24 -55 12z"/>
<path d="M114 634 c-23 -24 -38 -44 -33 -44 11 0 79 71 79 82 0 11 0 11 -46
-38z"/>
<path d="M1050 672 c0 -12 23 -32 37 -32 22 0 15 16 -12 28 -14 6 -25 8 -25 4z"/>
<path d="M4673 625 c0 -33 2 -45 4 -27 2 18 2 45 0 60 -2 15 -4 0 -4 -33z"/>
<path d="M4427 653 c-4 -3 -7 -27 -7 -51 0 -58 8 -50 13 11 5 49 4 51 -6 40z"/>
<path d="M330 621 c-14 -36 -45 -65 -58 -57 -6 4 -8 -3 -5 -15 6 -20 7 -20 30
8 28 34 56 83 50 89 -2 3 -10 -9 -17 -25z"/>
<path d="M127 588 l-52 -51 50 43 c71 61 70 60 61 60 -4 0 -31 -23 -59 -52z"/>
<path d="M4245 630 c-3 -5 -1 -10 4 -10 6 0 11 5 11 10 0 6 -2 10 -4 10 -3 0
-8 -4 -11 -10z"/>
<path d="M4702 615 c0 -16 2 -22 5 -12 2 9 2 23 0 30 -3 6 -5 -1 -5 -18z"/>
<path d="M3387 623 c-16 -4 -15 -7 7 -24 27 -21 60 -26 54 -7 -6 18 -41 35
-61 31z"/>
<path d="M337 550 c-21 -28 -40 -58 -43 -68 -4 -12 -2 -11 7 3 7 11 25 37 42
58 l29 38 15 -28 c8 -15 16 -36 18 -45 2 -10 8 -26 14 -35 23 -39 10 13 -17
70 l-27 58 -38 -51z"/>
<path d="M211 580 c0 -8 4 -24 9 -35 5 -13 9 -14 9 -5 0 8 -4 24 -9 35 -5 13
-9 14 -9 5z"/>
<path d="M4570 563 c0 -13 5 -23 10 -23 13 0 13 11 0 30 -8 12 -10 11 -10 -7z"/>
<path d="M16 545 c-11 -8 -15 -15 -9 -15 6 0 16 7 23 15 16 19 11 19 -14 0z"/>
<path d="M444 537 c-2 -7 -1 -24 4 -37 l9 -24 12 23 c7 12 10 25 7 29 -3 3 -6
0 -6 -6 0 -7 -5 -12 -11 -12 -6 0 -9 9 -6 20 6 22 -1 27 -9 7z"/>
<path d="M4351 534 c0 -11 3 -14 6 -6 3 7 2 16 -1 19 -3 4 -6 -2 -5 -13z"/>
<path d="M27 500 c-15 -16 -23 -30 -18 -30 5 0 19 14 31 30 12 17 20 30 17 30
-2 0 -16 -13 -30 -30z"/>
<path d="M4702 510 c0 -14 2 -19 5 -12 2 6 2 18 0 25 -3 6 -5 1 -5 -13z"/>
<path d="M497 498 c-4 -14 -9 -34 -13 -45 -3 -10 2 -5 11 10 9 16 15 36 13 45
-3 12 -6 9 -11 -10z"/>
<path d="M973 481 c8 -23 13 -28 15 -16 2 10 -3 25 -12 33 -14 15 -15 13 -3
-17z"/>
<path d="M3062 485 c0 -16 2 -22 5 -12 2 9 2 23 0 30 -3 6 -5 -1 -5 -18z"/>
<path d="M4452 475 c0 -16 2 -22 5 -12 2 9 2 23 0 30 -3 6 -5 -1 -5 -18z"/>
<path d="M180 413 c-29 -42 -48 -73 -42 -70 14 10 108 147 99 147 -2 0 -27
-34 -57 -77z"/>
<path d="M3321 474 c0 -11 3 -14 6 -6 3 7 2 16 -1 19 -3 4 -6 -2 -5 -13z"/>
<path d="M4211 474 c0 -11 3 -14 6 -6 3 7 2 16 -1 19 -3 4 -6 -2 -5 -13z"/>
<path d="M4302 450 c0 -19 2 -27 5 -17 2 9 2 25 0 35 -3 9 -5 1 -5 -18z"/>
<path d="M4701 464 c0 -11 3 -14 6 -6 3 7 2 16 -1 19 -3 4 -6 -2 -5 -13z"/>
<path d="M2953 426 c-5 -25 -6 -51 -2 -58 5 -7 9 -11 9 -8 5 38 9 110 7 110
-2 0 -8 -20 -14 -44z"/>
<path d="M81 444 c0 -11 3 -14 6 -6 3 7 2 16 -1 19 -3 4 -6 -2 -5 -13z"/>
<path d="M3152 440 c0 -14 2 -19 5 -12 2 6 2 18 0 25 -3 6 -5 1 -5 -13z"/>
<path d="M3342 435 c0 -16 2 -22 5 -12 2 9 2 23 0 30 -3 6 -5 -1 -5 -18z"/>
<path d="M4232 430 c0 -19 2 -27 5 -17 2 9 2 25 0 35 -3 9 -5 1 -5 -18z"/>
<path d="M205 382 c-57 -76 -72 -103 -29 -52 44 52 86 111 83 115 -2 1 -26
-27 -54 -63z"/>
<path d="M931 440 c-2 -13 37 -102 41 -94 3 5 8 29 11 54 3 25 4 38 1 28 -3
-9 -12 -19 -21 -22 -11 -5 -14 -2 -9 9 3 9 2 14 -3 10 -5 -3 -12 1 -14 7 -3 7
-6 11 -6 8z"/>
<path d="M2261 424 c0 -11 3 -14 6 -6 3 7 2 16 -1 19 -3 4 -6 -2 -5 -13z"/>
<path d="M416 414 c-9 -24 -2 -26 12 -4 7 11 8 20 3 20 -5 0 -12 -7 -15 -16z"/>
<path d="M2232 410 c0 -14 2 -19 5 -12 2 6 2 18 0 25 -3 6 -5 1 -5 -13z"/>
<path d="M2301 425 c1 -19 18 -51 18 -35 0 8 -4 22 -9 30 -5 8 -9 11 -9 5z"/>
<path d="M2801 418 c0 -9 -4 -25 -7 -35 -5 -14 -4 -15 5 -7 7 7 11 22 8 35 -2
13 -5 16 -6 7z"/>
<path d="M2851 414 c0 -11 3 -14 6 -6 3 7 2 16 -1 19 -3 4 -6 -2 -5 -13z"/>
<path d="M4393 275 c0 -144 0 -147 8 -60 5 49 5 116 1 150 -7 48 -8 31 -9 -90z"/>
<path d="M316 390 c15 -52 23 -94 18 -102 -3 -4 -2 -8 1 -8 10 0 44 42 60 75
9 17 10 21 3 11 -7 -11 -22 -29 -33 -40 l-20 -21 -3 34 c-2 19 -10 44 -19 55
-14 20 -15 20 -7 -4z"/>
<path d="M120 391 c0 -6 4 -13 10 -16 6 -3 7 1 4 9 -7 18 -14 21 -14 7z"/>
<path d="M1121 393 c0 -6 -4 -20 -7 -30 -5 -14 -4 -15 5 -7 7 7 11 20 8 30 -3
11 -5 14 -6 7z"/>
<path d="M1796 385 c-3 -9 -6 -22 -5 -28 0 -7 5 -1 10 12 5 13 8 26 5 28 -2 2
-6 -3 -10 -12z"/>
<path d="M434 355 c-10 -20 -32 -45 -49 -55 l-30 -20 27 2 c15 1 26 5 25 8 -1
3 11 25 27 48 15 24 26 46 23 48 -2 2 -12 -12 -23 -31z"/>
<path d="M3141 374 c0 -11 3 -14 6 -6 3 7 2 16 -1 19 -3 4 -6 -2 -5 -13z"/>
<path d="M43 354 c-16 -18 -18 -24 -8 -24 8 0 15 5 15 11 0 5 5 7 10 4 13 -8
42 14 34 26 -9 15 -28 8 -51 -17z"/>
<path d="M480 360 c-8 -5 -11 -12 -8 -16 4 -3 -2 -24 -13 -45 -11 -22 -17 -39
-15 -39 11 0 55 74 49 83 -3 6 -1 7 5 3 7 -4 12 -1 12 8 0 18 -8 20 -30 6z"/>
<path d="M2301 354 c0 -11 3 -14 6 -6 3 7 2 16 -1 19 -3 4 -6 -2 -5 -13z"/>
<path d="M1921 344 c0 -11 3 -14 6 -6 3 7 2 16 -1 19 -3 4 -6 -2 -5 -13z"/>
<path d="M2842 340 c0 -14 2 -19 5 -12 2 6 2 18 0 25 -3 6 -5 1 -5 -13z"/>
<path d="M87 329 c-14 -15 -16 -24 -8 -32 8 -8 11 -6 11 5 0 9 5 18 12 20 6 2
9 10 7 16 -3 8 -10 5 -22 -9z"/>
<path d="M1121 331 c-7 -13 -8 -21 -2 -17 16 10 13 -6 -5 -33 -13 -18 -18 -20
-25 -10 -5 9 -8 3 -6 -18 1 -18 5 -33 9 -33 4 0 6 -8 6 -17 0 -10 0 -22 2 -28
1 -5 2 -20 1 -32 -1 -25 -21 -32 -21 -8 0 8 -4 15 -9 15 -5 0 -7 10 -4 23 3
12 3 19 0 16 -4 -3 -8 -14 -10 -25 -1 -10 -7 -25 -11 -33 -7 -11 -5 -13 10 -8
17 6 17 6 3 -6 -9 -6 -19 -23 -23 -35 -5 -14 -13 -21 -21 -18 -8 3 -16 0 -18
-7 -3 -9 -8 -9 -17 0 -9 8 -7 12 9 18 12 3 21 11 21 16 0 6 4 8 8 5 4 -2 9 7
10 22 l2 27 -21 -32 c-23 -37 -31 -42 -23 -15 3 9 -3 2 -13 -16 -11 -18 -23
-29 -28 -25 -4 4 -5 2 -1 -5 5 -7 10 -11 13 -8 3 2 15 1 27 -4 19 -7 31 0 71
36 27 24 52 44 56 44 3 0 9 15 12 32 3 18 8 42 12 53 6 19 6 19 -8 2 -14 -17
-16 -16 -22 13 -5 25 -2 37 15 55 14 15 20 33 18 51 l-3 29 -14 -24z"/>
<path d="M2182 325 c0 -16 2 -22 5 -12 2 9 2 23 0 30 -3 6 -5 -1 -5 -18z"/>
<path d="M3512 330 c0 -14 2 -19 5 -12 2 6 2 18 0 25 -3 6 -5 1 -5 -13z"/>
<path d="M287 320 c3 -11 7 -20 9 -20 2 0 4 9 4 20 0 11 -4 20 -9 20 -5 0 -7
-9 -4 -20z"/>
<path d="M502 305 c-17 -37 -14 -45 4 -12 9 16 14 31 11 33 -2 2 -9 -7 -15
-21z"/>
<path d="M741 314 c0 -11 3 -14 6 -6 3 7 2 16 -1 19 -3 4 -6 -2 -5 -13z"/>
<path d="M1970 298 c-15 -21 -17 -28 -6 -19 16 13 41 51 33 51 -2 0 -14 -15
-27 -32z"/>
<path d="M2221 314 c0 -11 3 -14 6 -6 3 7 2 16 -1 19 -3 4 -6 -2 -5 -13z"/>
<path d="M1915 310 c3 -5 8 -10 11 -10 2 0 4 5 4 10 0 6 -5 10 -11 10 -5 0 -7
-4 -4 -10z"/>
<path d="M2090 307 c17 -23 24 -121 10 -147 -6 -11 -17 -20 -25 -20 -8 0 -15
-5 -15 -10 0 -16 38 7 50 30 17 31 7 128 -15 148 -18 16 -18 16 -5 -1z"/>
<path d="M3052 300 c0 -14 2 -19 5 -12 2 6 2 18 0 25 -3 6 -5 1 -5 -13z"/>
<path d="M4621 294 c0 -11 3 -14 6 -6 3 7 2 16 -1 19 -3 4 -6 -2 -5 -13z"/>
<path d="M100 296 c0 -2 9 -6 20 -9 11 -3 18 -1 14 4 -5 9 -34 13 -34 5z"/>
<path d="M251 293 c-1 -6 -11 -14 -23 -16 -14 -3 -9 -5 15 -6 20 0 37 4 37 10
0 5 -4 8 -9 5 -5 -4 -12 0 -14 6 -4 9 -6 9 -6 1z"/>
<path d="M701 274 c0 -11 3 -14 6 -6 3 7 2 16 -1 19 -3 4 -6 -2 -5 -13z"/>
<path d="M3477 270 c-4 -14 -6 -47 -6 -75 l1 -50 9 60 c10 66 8 106 -4 65z"/>
<path d="M4322 260 c0 -19 2 -27 5 -17 2 9 2 25 0 35 -3 9 -5 1 -5 -18z"/>
<path d="M2825 230 c-4 -28 -5 -53 -2 -56 2 -3 7 19 11 47 4 28 5 53 3 56 -3
2 -8 -19 -12 -47z"/>
<path d="M4291 264 c0 -11 3 -14 6 -6 3 7 2 16 -1 19 -3 4 -6 -2 -5 -13z"/>
<path d="M1132 250 c0 -14 2 -19 5 -12 2 6 2 18 0 25 -3 6 -5 1 -5 -13z"/>
<path d="M401 234 c-9 -21 -9 -30 0 -38 9 -8 10 -8 5 1 -4 7 -2 22 4 34 7 11
10 23 7 25 -2 2 -9 -8 -16 -22z"/>
<path d="M2161 244 c0 -11 3 -14 6 -6 3 7 2 16 -1 19 -3 4 -6 -2 -5 -13z"/>
<path d="M781 226 c-1 -16 0 -27 2 -25 1 2 9 13 17 23 8 11 10 17 3 13 -6 -4
-14 -1 -16 5 -3 7 -6 0 -6 -16z"/>
<path d="M1916 235 c-11 -8 -15 -15 -9 -15 6 0 16 7 23 15 16 19 11 19 -14 0z"/>
<path d="M4621 234 c0 -11 3 -14 6 -6 3 7 2 16 -1 19 -3 4 -6 -2 -5 -13z"/>
<path d="M366 228 c3 -5 10 -6 15 -3 13 9 11 12 -6 12 -8 0 -12 -4 -9 -9z"/>
<path d="M681 204 c0 -11 3 -14 6 -6 3 7 2 16 -1 19 -3 4 -6 -2 -5 -13z"/>
<path d="M811 197 c-1 -32 -37 -107 -50 -107 -5 0 -11 -7 -15 -15 -4 -13 -2
-13 14 -5 29 16 37 12 11 -6 -21 -15 -24 -15 -41 4 -11 11 -28 23 -40 27 -11
3 -20 13 -20 20 0 9 -6 12 -15 9 -8 -4 -23 0 -33 7 -15 13 -16 12 -4 -3 18
-22 -4 -35 -26 -15 -11 9 -24 12 -37 7 l-20 -8 20 -7 c11 -3 28 -11 39 -17 10
-5 30 -12 43 -14 23 -4 76 -22 116 -39 11 -5 17 -3 17 7 0 7 9 19 21 26 15 10
18 16 10 26 -8 9 -7 22 5 44 8 18 13 44 11 59 l-4 28 -2 -28z m-131 -107 c52
-27 51 -31 -4 -15 -24 8 -47 11 -51 7 -3 -3 -3 1 1 11 8 21 7 21 54 -3z"/>
<path d="M1800 188 c-11 -18 -20 -42 -20 -53 1 -12 6 -5 14 18 8 20 19 44 26
52 7 8 10 15 6 15 -3 0 -15 -15 -26 -32z"/>
<path d="M1868 213 c7 -3 16 -2 19 1 4 3 -2 6 -13 5 -11 0 -14 -3 -6 -6z"/>
<path d="M4642 190 c0 -14 2 -19 5 -12 2 6 2 18 0 25 -3 6 -5 1 -5 -13z"/>
<path d="M2274 184 c21 -20 20 -41 -1 -53 -10 -6 -13 -11 -7 -11 24 0 38 29
26 55 -7 14 -16 25 -22 25 -7 0 -4 -7 4 -16z"/>
<path d="M3672 180 c0 -14 2 -19 5 -12 2 6 2 18 0 25 -3 6 -5 1 -5 -13z"/>
<path d="M4623 140 c0 -25 2 -35 4 -22 2 12 2 32 0 45 -2 12 -4 2 -4 -23z"/>
<path d="M758 153 c-16 -8 -28 -21 -28 -29 0 -11 4 -10 19 5 10 10 25 21 32
23 8 3 12 7 9 10 -3 2 -17 -2 -32 -9z"/>
<path d="M4472 144 c-1 -17 -4 -47 -7 -65 l-5 -34 11 34 c5 18 8 47 6 65 l-4
31 -1 -31z"/>
<path d="M2812 125 c0 -16 2 -22 5 -12 2 9 2 23 0 30 -3 6 -5 -1 -5 -18z"/>
<path d="M47 129 c7 -7 15 -10 18 -7 3 3 -2 9 -12 12 -14 6 -15 5 -6 -5z"/>
<path d="M3671 124 c0 -11 3 -14 6 -6 3 7 2 16 -1 19 -3 4 -6 -2 -5 -13z"/>
<path d="M3691 124 c0 -11 3 -14 6 -6 3 7 2 16 -1 19 -3 4 -6 -2 -5 -13z"/>
<path d="M1970 115 c-7 -8 -9 -22 -6 -32 4 -9 1 -20 -6 -25 -10 -7 -9 -9 2 -5
9 2 15 15 15 32 0 22 6 31 25 36 22 6 23 7 4 8 -12 1 -27 -6 -34 -14z"/>
<path d="M2146 115 c-9 -26 -7 -32 5 -12 6 10 9 21 6 23 -2 3 -7 -2 -11 -11z"/>
<path d="M1105 97 c-16 -12 -42 -36 -58 -54 -15 -17 -38 -34 -50 -36 -21 -4
-21 -4 2 -6 16 -1 37 13 65 43 46 49 75 63 88 44 5 -8 8 -9 8 -2 0 27 -25 32
-55 11z"/>
<path d="M2209 101 c-13 -10 -31 -16 -39 -14 -10 3 -9 0 3 -7 14 -9 23 -6 48
14 35 30 24 36 -12 7z"/>
<path d="M4391 104 c0 -11 3 -14 6 -6 3 7 2 16 -1 19 -3 4 -6 -2 -5 -13z"/>
<path d="M1771 84 c0 -11 3 -14 6 -6 3 7 2 16 -1 19 -3 4 -6 -2 -5 -13z"/>
<path d="M2321 84 c0 -11 3 -14 6 -6 3 7 2 16 -1 19 -3 4 -6 -2 -5 -13z"/>
<path d="M164 75 c11 -8 25 -15 30 -15 6 0 2 7 -8 15 -11 8 -25 15 -30 15 -6
0 -2 -7 8 -15z"/>
<path d="M212 75 c3 -21 16 -35 33 -35 6 0 6 3 -1 8 -6 4 -16 16 -23 27 l-11
20 2 -20z"/>
<path d="M4483 37 c-1 -31 1 -37 7 -22 11 25 12 65 3 65 -5 0 -9 -19 -10 -43z"/>
<path d="M1150 63 c0 -18 20 -66 25 -61 3 3 -1 20 -9 39 -9 19 -15 29 -16 22z"/>
<path d="M2802 50 c0 -14 2 -19 5 -12 2 6 2 18 0 25 -3 6 -5 1 -5 -13z"/>
<path d="M1888 43 c7 -3 16 -2 19 1 4 3 -2 6 -13 5 -11 0 -14 -3 -6 -6z"/>
<path d="M2311 34 c0 -11 3 -14 6 -6 3 7 2 16 -1 19 -3 4 -6 -2 -5 -13z"/>
<path d="M1845 20 c-10 -11 -14 -20 -9 -20 5 0 15 9 22 20 16 26 10 26 -13 0z"/>
<path d="M1746 13 c-6 -14 -5 -15 5 -6 7 7 10 15 7 18 -3 3 -9 -2 -12 -12z"/>
<path d="M2751 14 c0 -11 3 -14 6 -6 3 7 2 16 -1 19 -3 4 -6 -2 -5 -13z"/>
<path d="M3741 14 c0 -11 3 -14 6 -6 3 7 2 16 -1 19 -3 4 -6 -2 -5 -13z"/>
<path d="M297 9 c7 -7 15 -10 18 -7 3 3 -2 9 -12 12 -14 6 -15 5 -6 -5z"/>
</g>
</svg>
