<?xml version="1.0" standalone="no"?>
<!DOCTYPE svg PUBLIC "-//W3C//DTD SVG 20010904//EN"
 "http://www.w3.org/TR/2001/REC-SVG-20010904/DTD/svg10.dtd">
<svg version="1.0" xmlns="http://www.w3.org/2000/svg"
 width="494.000000pt" height="750.000000pt" viewBox="0 0 494.000000 750.000000"
 preserveAspectRatio="xMidYMid meet">

<g transform="translate(0.000000,750.000000) scale(0.100000,-0.100000)"
fill="#000000" stroke="none">
<path d="M692 7294 c-24 -9 -41 -18 -39 -20 2 -2 23 3 47 11 54 19 197 19 268
1 29 -8 74 -27 100 -42 48 -28 147 -122 216 -204 l37 -45 -33 48 c-55 82 -182
195 -256 230 -61 28 -77 31 -182 34 -86 2 -126 -1 -158 -13z"/>
<path d="M572 7245 c-66 -30 -182 -106 -202 -130 -8 -10 10 0 40 23 31 22 96
61 145 86 95 48 107 63 17 21z"/>
<path d="M313 7042 c-52 -92 -61 -111 -86 -175 -15 -37 -27 -73 -27 -80 1 -6
15 24 33 68 18 44 49 111 70 149 20 38 35 71 34 73 -2 1 -13 -14 -24 -35z"/>
<path d="M1322 6970 c7 -10 14 -18 15 -16 6 6 -9 36 -18 36 -5 0 -4 -9 3 -20z"/>
<path d="M1340 6935 c0 -3 14 -45 30 -95 36 -104 79 -288 82 -345 1 -37 2 -37
5 -8 2 18 -3 72 -12 119 -21 111 -105 375 -105 329z"/>
<path d="M186 6739 c-8 -40 -8 -54 1 -46 7 8 16 77 10 77 -3 0 -7 -14 -11 -31z"/>
<path d="M635 6680 c-4 -6 7 -10 24 -10 l31 0 0 -67 c0 -48 3 -64 10 -53 5 8
10 39 10 68 0 48 2 52 24 52 14 0 28 5 31 10 4 6 -18 10 -59 10 -36 0 -68 -4
-71 -10z"/>
<path d="M876 6683 c-3 -3 -6 -17 -6 -29 0 -28 -14 -38 -46 -30 -17 5 -24 13
-24 31 0 14 -4 25 -10 25 -6 0 -10 -32 -10 -77 0 -47 4 -73 9 -67 5 5 11 23
13 39 6 53 78 43 78 -11 0 -13 4 -24 9 -24 10 0 11 139 1 145 -4 2 -10 2 -14
-2z"/>
<path d="M925 6657 c-4 -18 -5 -51 -3 -72 l3 -40 52 0 c29 1 58 6 65 13 19 19
6 21 -40 9 -31 -8 -45 -8 -54 1 -20 20 10 42 58 42 23 0 46 5 50 11 5 9 -9 10
-50 7 -53 -4 -57 -3 -54 16 2 17 11 22 51 24 68 4 58 22 -13 22 -59 0 -59 0
-65 -33z"/>
<path d="M166 6649 c-3 -17 -5 -46 -5 -63 1 -18 5 -7 10 28 9 63 6 88 -5 35z"/>
<path d="M1087 6473 c-2 -5 -1 -19 4 -33 7 -23 7 -23 8 8 1 31 -3 40 -12 25z"/>
<path d="M559 6440 c-2 -99 -9 -105 -45 -40 -37 68 -56 64 -67 -14 -6 -39 -5
-62 2 -69 8 -8 11 1 12 29 0 21 4 48 8 59 8 18 10 17 27 -14 30 -52 50 -75 61
-68 16 10 28 126 14 140 -8 8 -11 2 -12 -23z"/>
<path d="M979 6463 l-47 -4 -6 -58 c-10 -85 -4 -95 57 -87 28 3 58 13 66 21
15 14 12 15 -29 9 -25 -4 -49 -7 -55 -8 -5 0 -10 8 -10 19 0 15 8 21 30 23 49
4 75 12 75 21 0 6 -25 7 -56 4 -51 -6 -56 -4 -52 13 2 13 13 20 33 22 52 5 76
12 70 22 -3 6 -12 9 -18 8 -7 -1 -33 -3 -58 -5z"/>
<path d="M1170 6452 c-37 -18 -51 -49 -28 -63 7 -5 30 -9 50 -9 40 0 55 -12
35 -27 -20 -17 -58 -22 -83 -13 -19 7 -24 6 -24 -5 0 -32 75 -30 113 3 37 33
17 64 -44 66 -51 2 -35 28 24 41 15 3 25 10 22 15 -9 14 -25 12 -65 -8z"/>
<path d="M154 6275 c0 -104 2 -146 3 -92 2 54 2 139 0 190 -1 51 -3 7 -3 -98z"/>
<path d="M611 6398 c-36 -71 -44 -125 -11 -70 26 42 74 46 92 7 15 -32 29 -22
18 13 -5 15 -14 46 -20 70 -16 63 -41 57 -79 -20z m63 16 c10 -27 7 -34 -19
-34 -14 0 -25 4 -25 9 0 20 13 41 25 41 7 0 16 -7 19 -16z"/>
<path d="M765 6450 c-10 -16 -35 -111 -35 -133 0 -34 18 -7 30 45 7 29 15 57
18 62 9 16 22 -19 22 -61 0 -63 16 -60 41 7 12 33 23 60 25 60 1 0 8 -25 14
-55 12 -59 30 -83 29 -38 -1 49 -23 118 -38 118 -15 0 -24 -13 -43 -60 l-12
-30 -5 45 c-6 45 -30 66 -46 40z"/>
<path d="M1460 6329 c0 -57 -2 -142 -5 -189 -3 -68 -2 -76 5 -40 10 52 15 318
6 327 -3 4 -6 -41 -6 -98z"/>
<path d="M2052 6261 c-46 -50 -82 -91 -79 -91 2 0 18 7 35 16 41 20 145 36
213 32 l54 -3 -85 -49 c-47 -28 -131 -73 -187 -102 -125 -62 -133 -69 -133
-105 0 -34 3 -35 38 -10 29 20 107 61 117 61 4 0 -24 -33 -61 -73 -61 -67
-137 -197 -114 -197 5 0 -3 -28 -16 -61 -14 -34 -23 -63 -20 -66 2 -3 22 14
43 38 39 43 109 99 125 99 15 0 -109 -176 -143 -203 -31 -24 -31 -25 -24 -86
4 -33 11 -61 16 -61 5 0 9 7 9 15 0 8 5 15 10 15 14 0 12 -47 -4 -91 -7 -19
-10 -52 -8 -72 l4 -37 17 29 c15 28 121 150 121 140 0 -2 -15 -40 -34 -84 -37
-88 -68 -203 -60 -217 3 -5 14 -6 25 -3 15 5 20 0 25 -24 8 -41 31 -40 40 2
l7 32 9 -25 c5 -14 11 -41 14 -60 2 -19 6 -55 10 -80 l6 -45 30 35 c16 19 34
44 38 55 7 16 9 17 9 3 1 -18 -74 -106 -83 -98 -3 3 -9 35 -13 70 l-9 65 -62
-110 c-34 -61 -85 -138 -115 -172 -73 -85 -96 -137 -120 -267 -16 -88 -19
-148 -18 -293 4 -427 4 -424 -42 -441 -19 -7 -44 -12 -58 -12 -24 0 -23 -1 6
-20 39 -26 59 -26 52 0 -3 11 -1 23 5 26 16 10 20 -3 13 -45 -6 -34 -11 -41
-30 -41 -12 0 -28 7 -35 15 -14 17 -46 20 -55 5 -3 -5 0 -7 9 -4 8 3 25 -1 38
-10 12 -9 31 -16 42 -16 17 0 18 -5 12 -62 -4 -35 -10 -75 -13 -90 l-5 -26
-34 20 c-40 23 -57 49 -48 73 7 16 13 16 71 0 10 -3 2 3 -18 13 -56 27 -70 42
-63 66 5 17 4 19 -7 9 -10 -10 -10 -18 0 -39 6 -14 9 -35 6 -45 -4 -10 0 -33
8 -51 9 -18 18 -45 21 -60 3 -16 9 -38 12 -51 5 -21 3 -22 -34 -19 -22 2 -66
-4 -98 -13 -41 -12 -74 -15 -115 -10 -32 4 -67 4 -79 0 -21 -7 -21 -8 11 -42
19 -19 66 -61 104 -92 63 -50 75 -56 120 -57 93 -3 85 4 85 -79 0 -47 6 -86
16 -108 16 -32 15 -35 -14 -93 -16 -32 -37 -84 -47 -114 -14 -42 -64 -135 -90
-168 -2 -2 -11 1 -22 7 -31 17 -151 61 -166 61 -9 0 -33 -20 -55 -45 -22 -25
-44 -45 -50 -45 -6 0 -14 -10 -18 -22 -4 -13 -21 -41 -39 -63 -34 -43 -56
-104 -48 -133 4 -17 -174 -283 -276 -412 -36 -45 -41 -58 -41 -102 0 -42 5
-54 28 -76 25 -25 27 -30 18 -65 -8 -31 -14 -37 -36 -37 -33 0 -69 -25 -80
-56 -6 -15 -18 -24 -30 -24 -34 0 -114 -46 -182 -104 -49 -41 -73 -71 -101
-127 -23 -47 -48 -81 -68 -94 -17 -11 -42 -40 -57 -65 -35 -60 -64 -95 -117
-139 -24 -20 -54 -49 -66 -66 -13 -16 12 3 56 43 54 50 81 68 86 60 5 -7 1
-20 -7 -29 -7 -8 -14 -22 -14 -29 0 -7 13 7 30 32 16 24 54 62 84 84 30 21 55
43 56 47 0 11 -119 -83 -130 -102 -7 -13 -9 -13 -10 -2 0 31 55 124 92 154 21
18 48 49 59 69 11 21 24 38 30 38 6 0 9 8 6 19 -6 23 20 54 92 115 41 35 63
46 88 46 l34 0 -18 -31 c-11 -19 -40 -42 -74 -59 -30 -16 -72 -47 -92 -69 -20
-23 -37 -38 -38 -34 -1 17 -38 -83 -37 -102 0 -11 5 -3 10 18 9 32 14 38 31
33 15 -4 17 -2 8 7 -16 16 -14 30 3 24 10 -4 13 -1 10 7 -8 20 39 69 96 100
28 15 53 26 55 24 2 -1 6 -28 10 -58 6 -52 5 -57 -17 -67 -33 -15 -86 -61
-100 -87 -6 -11 10 0 36 26 42 42 81 66 91 56 2 -2 19 -34 38 -72 l35 -68 -52
-51 c-28 -29 -59 -63 -70 -76 -14 -19 -20 -21 -27 -10 -7 11 -9 11 -9 -2 0 -9
7 -20 16 -23 9 -4 14 -9 11 -12 -3 -3 -12 -2 -19 2 -22 14 -50 15 -42 2 4 -6
-5 -21 -22 -36 l-29 -24 35 18 c19 11 38 23 41 28 4 5 11 6 17 2 6 -3 18 -3
27 0 12 5 13 9 5 14 -16 10 42 92 93 134 l38 31 17 -22 c23 -29 187 -107 212
-100 25 7 25 -3 0 -47 -22 -36 -57 -60 -46 -30 3 9 8 28 11 42 5 24 4 24 -6
-3 -21 -54 -71 -94 -121 -96 -13 0 -17 -3 -10 -6 19 -7 -16 -32 -48 -33 -21
-1 -22 -2 -6 -9 15 -6 -6 -31 -134 -152 -174 -165 -408 -414 -421 -446 -4 -12
-20 -40 -34 -63 -14 -22 -22 -40 -18 -40 4 0 -2 -7 -13 -16 -19 -15 -19 -15 1
-6 16 8 28 3 65 -27 67 -56 119 -85 116 -67 -1 9 -6 19 -11 23 -4 4 -5 2 0 -6
5 -9 3 -12 -6 -9 -8 3 -13 11 -11 17 1 7 -17 21 -41 31 -54 24 -90 61 -81 84
6 15 8 15 33 1 26 -16 26 -16 5 2 l-21 19 24 47 c13 26 26 47 29 47 3 0 17
-14 31 -30 14 -17 34 -35 46 -42 11 -6 2 7 -21 29 -23 22 -42 44 -42 50 0 5
42 53 94 107 62 65 98 96 107 91 7 -5 10 -4 6 2 -4 6 10 26 30 43 20 18 83 82
139 142 56 60 118 121 138 134 20 14 34 30 30 36 -4 6 -1 9 7 6 18 -7 51 10
44 22 -3 6 0 7 7 5 8 -3 38 12 68 32 39 27 62 53 80 89 33 67 77 104 124 104
50 0 138 35 168 68 14 15 35 46 47 70 12 23 27 42 33 42 7 0 64 53 128 118 65
64 127 124 139 132 12 8 27 31 34 51 14 41 80 119 100 119 7 0 60 49 118 110
83 88 110 110 132 110 16 0 34 9 45 22 37 49 118 118 159 138 23 11 73 40 110
63 140 89 488 251 624 290 163 47 251 58 441 55 l186 -3 -24 -49 c-27 -57 -32
-87 -6 -39 9 17 29 41 43 52 l27 21 4 -30 c3 -22 -2 -35 -20 -52 -14 -13 -33
-42 -44 -65 -28 -63 -42 -66 -33 -7 l7 49 -21 -19 c-23 -21 -29 -35 -7 -17 25
21 6 -70 -20 -102 -13 -16 -24 -33 -24 -38 0 -6 -22 -34 -48 -62 -27 -29 -64
-75 -84 -102 -37 -52 -118 -124 -118 -106 0 6 23 34 51 63 28 28 64 72 81 97
17 25 46 62 64 81 29 31 92 150 79 150 -3 0 -18 -29 -34 -63 -15 -35 -35 -66
-43 -69 -8 -4 -32 -32 -53 -64 -22 -32 -61 -81 -87 -109 -26 -27 -58 -70 -70
-95 -13 -24 -38 -67 -57 -94 -29 -43 -31 -50 -17 -58 9 -5 16 -14 16 -20 0 -7
-5 -6 -15 2 -13 11 -15 8 -15 -18 0 -36 30 -54 31 -19 0 20 2 19 11 -5 12 -34
28 -37 22 -6 -3 18 -1 17 8 -4 7 -16 15 -28 20 -28 4 0 5 -6 2 -14 -3 -8 3
-19 13 -24 26 -14 92 -21 99 -11 3 5 9 7 14 4 5 -3 18 -1 29 4 14 8 21 8 24
-2 4 -9 6 -9 6 0 1 7 -8 27 -19 45 l-20 33 0 -32 c0 -18 -4 -33 -10 -33 -11 0
-13 24 -3 58 6 23 6 23 39 -13 27 -31 35 -35 52 -26 32 17 52 13 52 -10 0 -32
22 -102 37 -117 18 -18 16 -12 -7 39 -11 24 -20 59 -20 77 0 17 -4 32 -9 32
-11 0 -7 67 4 78 5 4 5 -1 2 -11 -4 -9 -2 -17 5 -17 6 0 17 -8 24 -17 13 -17
14 -17 8 2 -3 11 6 0 20 -25 14 -25 25 -39 26 -32 0 8 7 11 18 8 9 -2 32 -8
51 -11 33 -7 34 -6 18 9 -21 21 -22 33 -2 16 8 -7 15 -9 15 -4 0 5 4 3 9 -5
13 -20 34 -3 27 23 -5 20 -5 20 9 2 19 -26 19 -50 0 -43 -8 4 -17 2 -20 -3 -4
-6 1 -10 10 -10 8 0 20 -10 25 -22 5 -13 9 -17 9 -10 1 7 6 10 11 7 14 -9 13
8 -2 23 -9 9 -3 12 28 13 60 2 90 5 101 12 6 4 13 4 16 0 2 -5 2 -3 1 4 -2 7
1 15 6 18 6 4 10 17 10 31 0 13 4 24 9 24 11 0 3 107 -10 130 -5 9 -6 -2 -2
-24 4 -28 3 -37 -5 -32 -7 4 -12 12 -12 17 0 21 -99 109 -123 109 -31 0 -87
20 -87 30 0 5 7 13 15 18 28 15 115 104 115 117 0 8 16 23 35 35 38 23 45 33
18 23 -10 -3 -1 11 20 32 21 22 40 48 43 59 8 31 84 63 84 35 0 -6 -17 -27
-37 -45 -20 -19 -34 -34 -30 -34 12 0 77 62 77 74 0 7 18 18 40 25 22 6 40 16
40 21 0 6 48 57 106 116 140 140 159 178 159 324 0 128 -14 159 -86 190 -26
11 -55 20 -64 20 -8 0 -39 12 -67 26 -45 23 -60 26 -111 20 -46 -5 -66 -2 -96
14 -38 19 -261 89 -313 98 -16 2 -28 7 -28 10 0 8 90 112 135 156 22 21 40 44
40 50 1 6 7 10 14 8 7 -1 9 2 6 9 -5 7 -18 0 -36 -20 -26 -29 -170 -193 -174
-198 0 -1 -62 14 -136 34 -73 19 -156 40 -184 45 -82 17 -81 16 -39 54 21 19
32 32 24 28 -8 -5 -30 -22 -49 -39 -29 -26 -39 -30 -85 -27 -28 2 -77 8 -110
13 -32 6 -60 8 -63 6 -5 -6 115 -26 171 -30 l40 -2 -45 -30 c-24 -16 -51 -39
-61 -50 -14 -18 -41 -32 -151 -80 -16 -7 -28 -16 -27 -21 1 -5 -33 -24 -76
-43 -91 -40 -170 -50 -251 -32 -68 16 -187 94 -242 160 -71 84 -138 209 -100
186 6 -4 8 -9 5 -12 -18 -18 117 -160 179 -189 17 -8 22 -9 11 -2 -73 49 -126
148 -155 293 -12 55 -26 122 -31 149 -15 71 3 77 24 9 26 -83 57 -165 61 -161
2 2 -9 44 -26 93 -39 119 -37 125 10 29 42 -86 136 -218 236 -329 59 -66 215
-187 215 -166 0 5 -6 11 -14 14 -22 9 -117 79 -113 83 2 3 34 -7 70 -21 43
-16 95 -26 149 -29 l83 -5 -80 10 c-124 15 -244 62 -296 115 -24 24 -38 44
-32 44 6 0 39 -9 74 -19 101 -31 224 -50 354 -55 l120 -5 -110 9 c-149 13
-281 36 -371 64 -48 16 -74 20 -74 12 0 -6 -11 3 -24 19 -13 17 -23 31 -21 33
2 2 22 -6 45 -18 23 -12 44 -20 46 -18 2 2 -26 19 -61 37 -54 27 -72 43 -109
99 -25 36 -44 68 -42 69 2 2 52 -19 112 -47 60 -27 114 -50 120 -50 6 0 32 -9
56 -20 53 -23 282 -90 306 -89 9 0 -32 14 -91 31 -59 17 -106 33 -103 36 3 2
47 -3 98 -12 52 -10 123 -15 158 -13 l65 3 -71 2 c-93 3 -374 57 -444 86 -30
13 -94 40 -142 60 l-86 37 -26 65 c-32 79 -33 88 -5 73 72 -38 497 -181 512
-172 5 3 -28 17 -74 30 -134 38 -297 129 -367 205 l-23 25 42 67 c44 67 59 80
59 48 0 -27 67 -100 126 -138 55 -35 70 -41 59 -24 -3 5 10 17 29 27 20 9 36
20 36 24 0 4 -19 -3 -41 -16 -40 -22 -69 -24 -69 -4 0 5 6 9 14 9 22 0 109 50
144 83 40 39 40 29 1 -42 -17 -31 -26 -51 -21 -46 6 6 24 34 41 64 l29 54 -2
-96 c-1 -53 1 -94 4 -92 3 2 11 -5 18 -16 7 -10 11 -19 9 -19 -1 0 -38 14 -80
30 -43 17 -84 30 -90 30 -18 -1 94 -47 206 -85 54 -18 93 -36 88 -40 -6 -3
-11 -11 -11 -17 0 -5 9 0 19 13 l19 24 -56 14 c-78 19 -104 47 -110 118 l-5
56 37 -36 c33 -33 110 -66 123 -53 3 3 -6 8 -21 12 -21 5 -24 9 -16 24 6 10
10 25 9 32 0 7 -5 1 -11 -14 -12 -34 -21 -35 -60 -7 -52 37 -74 124 -47 183
13 28 29 26 29 -4 0 -30 46 -76 88 -88 52 -16 95 -15 137 2 50 21 43 26 -10 8
-58 -19 -125 -9 -165 24 -36 31 -56 94 -39 126 11 20 12 20 24 -16 28 -80 132
-118 220 -82 19 8 35 13 35 10 0 -2 -13 -32 -29 -67 -20 -43 -52 -84 -105
-137 -41 -40 -74 -76 -72 -77 2 -2 32 26 67 62 95 98 99 99 99 23 0 -37 -4
-58 -8 -50 -6 9 -14 0 -24 -27 l-16 -40 36 -6 c34 -5 88 -18 135 -31 9 -3 17
-1 17 5 0 6 -12 11 -26 11 -24 0 -80 31 -96 55 -5 5 -7 36 -6 67 l2 58 20 -35
c22 -39 69 -65 115 -65 43 0 39 -14 -11 -44 -46 -28 -46 -34 -1 -14 15 7 36
23 46 36 10 12 22 20 26 18 4 -3 13 11 20 30 13 37 27 44 34 17 3 -10 3 1 0
25 -3 23 -2 42 2 42 4 0 20 -11 36 -24 29 -25 106 -43 134 -32 18 7 18 4 4
-28 -8 -17 -25 -28 -54 -35 -46 -12 -69 -7 -97 17 -16 13 -18 13 -18 -1 0 -16
90 -50 100 -37 3 4 15 9 28 12 l22 6 -20 -27 c-10 -15 -26 -33 -34 -40 -12
-10 -14 -8 -10 11 l5 23 -10 -23 c-12 -27 -34 -37 -58 -26 -10 4 -47 8 -83 10
-67 2 -63 1 53 -17 46 -7 65 -14 60 -22 -3 -7 2 -4 13 5 10 9 24 17 29 17 15
1 101 147 135 231 17 43 60 114 99 168 38 51 83 120 99 155 17 34 43 82 58
106 15 24 22 41 15 37 -6 -4 -11 -2 -11 3 0 6 7 11 15 11 8 0 17 11 21 25 11
43 -5 92 -37 119 l-30 25 27 41 c22 33 26 48 22 90 -7 73 -57 133 -118 141
-19 3 -26 -1 -28 -18 -6 -43 -121 -42 -199 3 l-43 25 -20 -33 c-11 -18 -20
-40 -19 -48 0 -8 6 -4 12 10 24 50 28 53 43 31 17 -23 77 -45 105 -38 11 3 33
2 48 -3 21 -6 33 -4 46 9 43 39 -27 -47 -75 -94 -29 -27 -73 -82 -100 -120
-26 -39 -72 -100 -102 -135 -30 -36 -76 -96 -102 -135 -25 -38 -68 -95 -95
-125 l-50 -54 -69 -4 c-93 -5 -145 20 -174 84 l-19 45 38 45 c57 67 118 151
162 224 21 36 73 99 114 141 41 41 84 94 96 117 28 55 20 54 -12 0 -14 -24
-58 -77 -99 -118 -41 -41 -91 -104 -113 -140 -21 -36 -64 -98 -94 -139 -31
-41 -73 -97 -94 -125 -21 -28 -46 -54 -55 -58 -31 -12 -103 -8 -136 7 -39 19
-92 72 -99 100 -3 13 -5 9 -6 -12 -3 -75 48 -144 115 -158 23 -5 21 -3 -12 13
-40 19 -73 56 -88 97 -6 17 -3 16 21 -6 54 -51 140 -77 189 -59 30 12 32 -2 4
-30 -11 -11 -20 -23 -20 -27 -1 -52 -66 -59 -150 -15 -65 33 -91 65 -97 123
-4 40 0 51 46 119 28 41 75 111 104 155 30 44 83 114 118 155 35 41 81 95 101
120 l36 46 -28 2 c-16 1 -32 -3 -35 -8 -4 -6 -28 -10 -54 -9 -31 2 -58 -4 -79
-16 l-32 -19 42 -18 c24 -9 56 -17 71 -17 l29 -1 -32 -40 c-17 -22 -37 -40
-44 -40 -7 0 -55 21 -107 47 -52 26 -103 47 -114 48 -11 0 -20 6 -20 14 0 8
-6 16 -14 19 -9 3 -11 0 -6 -9 5 -8 4 -11 -1 -6 -5 5 -9 12 -9 17 0 4 -24 31
-52 59 -29 29 -53 48 -53 42 0 -5 21 -28 46 -50 26 -23 43 -41 37 -41 -15 0
-96 87 -90 98 4 5 -7 27 -23 49 -29 39 -110 193 -110 208 0 4 6 2 14 -4 11 -9
14 -4 19 26 3 21 8 46 12 55 5 12 0 18 -17 21 -16 3 -12 5 13 6 25 1 48 11 76
36 23 19 44 35 47 35 3 0 -1 -19 -9 -41 -21 -59 -19 -64 16 -35 34 29 72 29
94 -1 15 -20 11 -33 -11 -33 -8 0 -22 -16 -31 -35 -13 -28 -14 -39 -5 -60 6
-13 9 -32 6 -40 -5 -11 -2 -13 10 -9 10 4 18 0 22 -10 3 -9 15 -16 25 -16 10
0 19 -5 19 -10 0 -7 6 -7 18 -2 9 5 32 12 51 16 38 7 71 32 71 53 0 16 43 8
75 -13 19 -14 19 -14 0 -14 -11 0 -27 -5 -35 -10 -11 -8 -7 -9 15 -4 16 4 35
7 42 7 23 0 14 17 -14 28 l-26 10 35 24 c41 28 49 42 36 70 -8 18 -8 18 -4 -2
2 -13 0 -26 -6 -29 -17 -11 -93 25 -127 60 l-32 33 22 37 c26 45 35 42 15 -6
-9 -20 -12 -38 -9 -42 12 -12 50 -6 65 12 15 18 111 176 122 202 15 37 -6
-115 -23 -165 l-19 -55 28 0 c40 0 60 9 61 29 0 10 2 11 6 4 11 -29 44 -13 62
30 11 23 33 71 50 107 l32 65 -6 -49 c-9 -88 -23 -120 -78 -178 -58 -63 -73
-70 -80 -35 -3 14 -5 9 -5 -13 0 -19 3 -44 7 -55 5 -11 4 -28 -1 -37 -5 -11
-5 -18 1 -18 5 0 13 9 16 20 8 26 21 26 28 -1 5 -19 12 -21 59 -17 41 2 58 9
77 28 13 14 28 24 33 22 6 -2 8 4 5 12 -4 9 -1 30 5 47 8 24 8 37 -1 51 -10
15 -7 25 15 54 38 49 53 31 31 -37 -15 -47 -15 -53 0 -76 23 -35 11 -131 -26
-199 l-29 -54 23 0 c56 0 117 -41 141 -95 12 -26 13 -27 14 -8 0 27 58 94 107
124 29 18 51 22 112 22 64 1 71 2 41 10 -19 5 -47 7 -62 5 l-28 -5 0 84 c0 99
-26 187 -72 245 l-30 39 -75 -133 c-41 -73 -82 -140 -89 -148 -8 -8 23 51 69
132 106 186 138 286 145 463 7 195 -37 366 -129 502 -126 185 -276 283 -454
298 -33 2 -184 7 -335 11 l-275 6 -83 -91z m710 -82 l33 -21 -55 6 c-82 8
-158 -19 -225 -82 -27 -25 -59 -42 -100 -54 -33 -9 -62 -15 -64 -12 -2 2 24
31 58 64 54 54 71 65 149 90 106 35 160 37 204 9z m191 -19 c53 -25 114 -84
97 -95 -6 -4 -20 5 -32 20 -25 32 -116 75 -157 75 -16 0 -39 8 -52 19 -23 18
-22 18 39 10 34 -5 81 -18 105 -29z m191 -180 c21 -23 35 -44 32 -47 -8 -9
-106 77 -106 93 0 22 29 3 74 -46z m-690 -2 c-4 -7 -15 -24 -24 -38 -11 -16
-17 -50 -19 -98 -2 -66 0 -78 25 -114 l28 -39 -59 -55 c-33 -30 -62 -54 -66
-54 -4 0 -13 14 -21 30 -7 17 -18 28 -25 25 -7 -2 -13 -3 -13 -2 0 1 -4 17 -9
35 -9 29 -6 37 25 77 40 53 38 56 -11 14 -19 -17 -35 -29 -35 -28 0 2 9 36 19
76 10 40 16 74 13 78 -8 8 39 55 73 72 57 30 111 41 99 21z m720 -87 c27 -29
29 -33 23 -97 -3 -46 -10 -72 -21 -80 -9 -6 -14 -18 -10 -27 7 -19 -43 -126
-62 -134 -8 -3 -14 -12 -14 -20 0 -8 -15 -27 -32 -44 l-33 -29 -16 21 -16 22
-7 -27 c-5 -19 -13 -26 -31 -26 -14 0 -26 6 -26 13 -4 37 4 122 12 125 4 2 23
14 42 26 18 13 46 26 61 30 55 14 95 161 71 265 -7 31 -6 32 11 23 10 -6 32
-24 48 -41z m-622 -251 c18 -11 45 -20 61 -20 15 0 27 -5 27 -11 0 -12 -69
-139 -76 -139 -3 0 -22 9 -44 20 -30 15 -38 24 -33 38 6 15 5 15 -10 4 -16
-14 -57 -8 -57 8 0 8 89 120 96 120 2 0 18 -9 36 -20z m208 -93 c0 -16 3 -17
15 -7 8 7 34 13 59 15 l44 3 -2 -66 c-2 -64 -3 -66 -32 -74 -35 -10 -124 0
-124 13 0 6 -6 7 -16 1 -16 -9 -74 14 -74 29 0 3 13 36 30 72 l29 65 36 -16
c22 -10 35 -23 35 -35z m-235 -297 c-15 -44 -19 -49 -36 -40 -25 14 -25 14 13
67 38 52 46 43 23 -27z m-296 -2 c-2 -2 -27 -23 -54 -48 l-50 -45 45 48 c24
26 48 47 54 47 5 0 7 -1 5 -2z m-6 -33 c-3 -9 -8 -14 -10 -11 -3 3 -2 9 2 15
9 16 15 13 8 -4z m-27 -63 c-9 -17 -20 -33 -25 -36 -5 -4 0 12 12 33 25 46 36
48 13 3z m-73 -32 c3 -11 1 -18 -4 -14 -5 3 -9 12 -9 20 0 20 7 17 13 -6z m11
-49 l21 -24 -28 18 c-15 10 -30 15 -33 12 -3 -3 4 -11 16 -17 22 -12 60 -67
60 -87 0 -31 -33 -8 -68 47 -22 33 -43 56 -48 52 -4 -4 -2 1 5 10 7 10 18 15
24 11 6 -4 8 0 4 9 -8 23 5 32 16 11 5 -10 19 -29 31 -42z m899 26 c8 -21 -28
-93 -55 -111 -39 -25 -84 -31 -92 -11 -8 21 8 53 18 36 21 -34 86 9 86 57 0
16 3 32 7 35 11 11 31 8 36 -6z m-596 -67 c0 -17 7 -38 16 -47 21 -21 76 -21
92 1 15 20 45 11 45 -14 0 -41 -60 -66 -119 -50 -64 17 -89 70 -55 118 20 28
21 28 21 -8z m954 -357 c13 -16 12 -17 -3 -4 -10 7 -18 15 -18 17 0 8 8 3 21
-13z m283 -11 c28 -26 56 -88 56 -125 0 -26 -14 -53 -53 -108 -30 -41 -70
-103 -90 -139 -20 -36 -59 -92 -88 -125 -28 -33 -85 -111 -126 -173 -41 -62
-85 -118 -98 -124 -43 -20 -115 -1 -157 42 -51 51 -50 79 5 144 24 28 60 76
80 106 19 30 62 87 94 125 33 39 73 91 91 116 17 25 69 90 117 144 47 54 88
109 91 122 6 21 11 23 33 18 14 -4 34 -14 45 -23z m-854 0 c0 -4 -12 -21 -27
-37 -29 -31 -39 -33 -100 -14 -52 17 -38 28 26 22 53 -5 61 -3 73 16 13 21 28
28 28 13z m625 -20 c-3 -3 -11 0 -18 7 -9 10 -8 11 6 5 10 -3 15 -9 12 -12z
m270 -254 c35 -31 41 -101 8 -106 -12 -2 -39 6 -61 17 -35 18 -41 19 -46 5
-25 -66 19 -114 76 -81 l30 17 -26 -45 c-15 -25 -38 -68 -53 -97 -14 -29 -51
-87 -82 -129 -31 -42 -68 -97 -83 -123 -37 -63 -68 -76 -116 -51 -42 23 -63
66 -45 93 6 9 34 53 61 97 28 44 79 114 114 155 35 41 76 98 92 125 40 72 90
145 98 145 4 0 18 -10 33 -22z m-1392 -81 c41 -38 57 -88 57 -177 0 -61 -4
-72 -60 -173 -33 -59 -77 -130 -97 -158 -36 -48 -40 -50 -76 -46 -48 7 -112
48 -137 90 -32 52 -26 106 19 174 21 32 53 71 69 87 17 16 34 43 37 60 6 30
10 41 33 96 10 23 11 22 7 -10 -5 -35 -5 -35 8 5 16 52 24 64 51 75 37 15 54
11 89 -23z m1369 -47 c25 0 12 -27 -17 -34 -36 -9 -55 3 -55 34 0 28 1 29 28
14 15 -7 35 -14 44 -14z m-1227 -270 c27 -30 104 -64 158 -70 l48 -5 -36 -42
c-30 -35 -43 -43 -70 -43 -70 0 -130 41 -158 108 -8 20 -20 48 -26 62 -10 23
-11 22 -5 -10 8 -45 47 -113 80 -139 15 -12 44 -24 66 -27 21 -4 38 -10 38
-14 0 -10 -74 -46 -110 -54 -14 -3 -19 -3 -12 0 8 4 -2 16 -28 35 -22 16 -49
43 -59 60 -13 21 -21 26 -25 17 -3 -7 -3 -2 0 11 4 13 1 27 -5 31 -12 7 31 93
80 159 l23 31 11 -45 c7 -25 20 -54 30 -65z m384 -10 c49 -25 173 -29 209 -6
8 5 12 0 12 -13 0 -31 57 -89 98 -100 50 -13 105 -17 119 -8 7 4 14 -1 18 -12
3 -11 20 -32 38 -47 25 -21 38 -25 68 -21 37 5 37 4 27 -19 -14 -29 -37 -36
-103 -31 -37 4 -54 11 -72 31 -13 15 -20 33 -16 42 5 12 9 10 18 -12 13 -33
42 -60 52 -50 3 3 1 6 -5 6 -15 0 -42 53 -42 81 0 20 -1 21 -17 7 -10 -9 -27
-18 -38 -21 -18 -4 -18 -5 3 -6 20 -1 21 -3 10 -22 -11 -18 -21 -20 -71 -17
-48 4 -62 9 -91 37 -35 34 -64 107 -48 123 5 5 13 -7 20 -30 17 -54 58 -90
112 -96 40 -5 41 -5 11 3 -18 5 -44 15 -57 22 -26 14 -64 83 -64 118 0 21 -1
21 -39 -9 -68 -55 -156 -51 -218 10 -38 38 -49 84 -27 118 l16 24 18 -40 c13
-29 30 -47 59 -62z m-873 -55 c-9 -37 25 -107 69 -140 44 -35 124 -58 143 -42
10 8 20 3 38 -21 14 -17 60 -55 102 -83 42 -28 68 -48 57 -44 -11 4 -33 12
-50 18 -29 10 -154 93 -166 110 -3 4 -22 -9 -43 -31 l-37 -38 -64 7 c-154 16
-209 116 -119 216 20 22 31 29 24 16 -38 -80 40 -192 139 -199 l46 -3 -41 8
c-93 16 -159 109 -134 188 19 57 49 89 36 38z m1097 -149 c17 -13 50 -23 83
-26 l54 -5 -21 -43 c-16 -31 -24 -40 -30 -30 -7 10 -9 10 -9 1 0 -18 -64 -17
-99 1 -32 17 -53 46 -70 97 -10 31 -9 42 5 72 l17 35 21 -41 c12 -22 34 -50
49 -61z m-1448 -66 c3 -5 2 -10 -4 -10 -5 0 -13 5 -16 10 -3 6 -2 10 4 10 5 0
13 -4 16 -10z m320 -45 c11 -4 47 -10 79 -14 57 -6 59 -7 42 -23 -23 -23 -112
-24 -144 -2 -12 8 -22 11 -22 5 0 -19 38 -31 100 -31 46 0 59 -3 54 -12 -4 -8
-3 -10 2 -5 5 5 9 14 9 19 0 6 6 13 13 16 8 2 12 -8 12 -31 0 -20 3 -42 6 -51
5 -13 -2 -16 -42 -15 -27 0 -69 8 -93 17 -40 15 -47 23 -62 67 -9 28 -19 63
-23 78 l-7 29 28 -19 c15 -11 37 -23 48 -28z m264 13 c28 -17 49 -33 47 -35
-8 -8 -117 47 -111 57 8 14 7 14 64 -22z m751 -63 c4 3 13 -2 20 -10 10 -13 8
-15 -13 -15 -31 0 -40 11 -30 37 7 17 8 17 11 0 2 -9 7 -15 12 -12z m-921
-103 l65 -7 17 -83 c10 -46 34 -112 52 -147 41 -78 31 -76 -19 3 -40 62 -73
102 -86 102 -25 0 10 -82 72 -165 95 -129 246 -224 359 -228 l59 -1 -29 -18
c-67 -41 -220 23 -340 141 -87 86 -129 159 -134 232 -2 39 -9 54 -30 70 -14
12 -28 19 -31 16 -2 -2 6 -11 19 -20 18 -12 24 -25 26 -63 6 -126 172 -313
332 -373 30 -12 66 -21 82 -21 15 0 27 -5 27 -11 0 -18 -115 -4 -185 22 -90
34 -160 92 -227 189 -32 47 -66 96 -75 108 -10 14 -17 44 -17 75 0 49 6 117
10 117 1 0 23 -9 49 -20 26 -11 54 -20 63 -19 9 0 -7 9 -36 19 -61 22 -107 53
-123 82 -10 19 -9 20 12 14 13 -4 53 -11 88 -14z m-439 -50 c15 -12 21 -26 18
-46 l-3 -28 -27 22 c-17 13 -28 31 -28 46 0 29 10 30 40 6z m365 -165 c0 -108
1 -115 36 -188 42 -86 83 -137 148 -181 40 -27 36 -22 -23 33 -54 49 -77 80
-102 134 -33 72 -59 169 -43 159 5 -3 36 -45 68 -92 65 -95 157 -189 193 -196
7 -1 44 -12 82 -24 37 -12 81 -22 98 -22 19 0 27 -4 22 -11 -11 -18 -88 -4
-145 25 -28 15 -49 23 -46 19 8 -13 97 -56 130 -62 l30 -6 -56 -38 c-31 -20
-60 -37 -64 -37 -4 0 -25 -9 -47 -19 -35 -16 -184 -36 -171 -23 2 3 -21 17
-53 32 -61 28 -132 99 -183 180 -16 25 -29 39 -29 32 0 -22 53 -93 114 -152
55 -53 104 -89 156 -113 l25 -11 -32 -4 c-49 -5 -112 28 -188 99 -38 35 -61
53 -52 39 27 -40 139 -130 172 -139 28 -7 29 -8 8 -15 -26 -8 -93 23 -136 63
-35 32 -69 95 -61 114 2 8 -2 19 -10 26 -8 7 -29 47 -47 89 -55 131 -41 247
38 326 29 29 66 36 56 10 -4 -11 -8 -12 -13 -4 -4 6 -18 -14 -33 -48 -31 -68
-35 -159 -11 -227 7 -22 12 -29 9 -15 -22 127 -15 204 23 255 14 19 14 19 7
-5 -4 -14 -10 -51 -12 -82 -4 -51 -1 -63 33 -125 42 -74 95 -137 158 -185 25
-19 13 -4 -30 38 -79 78 -141 179 -150 247 -6 44 15 135 39 165 10 12 75 51
87 52 3 0 5 -51 5 -113z m-358 78 c9 -25 -4 -29 -17 -6 -7 15 -7 21 0 21 6 0
13 -7 17 -15z m94 -30 c-18 -8 -36 -15 -40 -15 -13 1 45 29 59 29 8 0 0 -6
-19 -14z m-101 -13 c0 -5 -7 -17 -16 -28 -8 -10 -14 -14 -11 -9 2 6 7 18 10
28 7 17 17 23 17 9z m-25 -127 c-8 -22 -13 -29 -10 -15 3 14 9 41 13 60 4 23
8 28 10 15 1 -11 -4 -38 -13 -60z m1760 -190 c-41 -35 -127 -85 -145 -85 -8 0
8 11 35 24 28 13 67 37 89 55 46 37 64 42 21 6z m-1706 -150 c0 -5 -6 1 -14
15 -8 14 -14 30 -14 35 0 6 6 -1 14 -15 8 -14 14 -29 14 -35z m28 -93 c9 -24
32 -57 52 -74 l36 -30 -33 17 c-25 12 -40 31 -58 71 -13 30 -23 65 -23 77 1
20 2 20 6 2 2 -11 12 -39 20 -63z m487 -24 c-15 -7 -28 -7 -40 1 -16 9 -12 10
21 10 35 0 37 -2 19 -11z m-144 -53 c0 -7 -57 -35 -72 -35 -7 0 5 9 27 19 48
23 45 22 45 16z m-122 -46 c-22 -5 -54 -5 -75 0 -33 8 -28 9 37 9 65 0 70 -1
38 -9z m-517 -172 c-49 -90 -50 -95 -33 -110 10 -10 33 -17 50 -17 40 0 163
-58 227 -107 101 -76 256 -267 240 -293 -5 -7 -15 1 -27 22 -30 49 -55 74
-138 138 -80 61 -169 114 -210 125 -14 3 5 -9 42 -28 127 -65 285 -199 303
-256 5 -17 0 -30 -21 -52 l-28 -29 -25 32 c-115 148 -314 296 -473 351 -22 8
-13 39 22 77 17 18 24 34 19 41 -8 13 89 215 98 205 3 -2 -18 -47 -46 -99z
m2144 43 c-3 -5 -15 -15 -26 -21 -19 -10 -20 -9 -9 10 6 12 18 21 26 21 8 0
12 -4 9 -10z m149 -8 c3 -5 -8 -6 -25 -4 -16 2 -29 6 -29 8 0 8 49 4 54 -4z
m-115 -150 c-11 -7 -26 -28 -34 -45 -8 -18 -10 -23 -3 -13 7 11 23 30 34 42
21 22 23 22 58 6 47 -22 46 -49 -3 -100 -21 -22 -43 -46 -47 -54 -5 -8 -55
-57 -111 -109 -97 -92 -193 -200 -193 -217 0 -5 -11 -19 -25 -32 -25 -24 -26
-24 -58 -6 -56 33 -67 47 -64 82 1 18 4 31 6 28 2 -2 17 8 34 22 22 18 37 24
56 20 22 -5 23 -4 8 4 -15 10 -11 19 42 89 33 43 66 81 74 84 8 3 28 31 46 62
19 34 36 53 43 49 6 -4 8 -3 5 3 -4 6 3 19 14 29 11 10 27 34 35 54 8 19 24
45 36 57 l21 23 22 -33 c22 -31 22 -32 4 -45z m169 -47 c2 -1 0 -15 -4 -30 -8
-32 -49 -77 -246 -276 -76 -75 -138 -141 -138 -146 -1 -25 -41 -53 -74 -53
-36 0 -49 16 -21 26 8 3 17 14 20 25 4 10 12 25 18 31 7 7 26 31 42 54 17 22
75 83 130 134 122 113 205 207 205 233 0 16 5 18 33 12 17 -4 33 -9 35 -10z
m102 -20 c0 -8 -18 -33 -40 -56 -22 -23 -37 -45 -35 -50 3 -4 0 -11 -6 -15 -8
-4 -9 -3 -5 4 9 16 5 15 -32 -4 -28 -13 -30 -18 -22 -40 6 -14 6 -23 1 -20 -4
3 -19 -7 -32 -22 l-24 -27 25 20 25 20 -19 -22 c-10 -13 -22 -20 -26 -18 -5 3
-29 -11 -54 -30 -25 -19 -57 -37 -72 -41 -17 -4 -22 -9 -14 -14 40 -24 -49
-132 -126 -154 l-51 -14 19 37 c10 20 34 48 53 62 18 14 51 47 73 72 21 26 57
61 80 78 24 17 56 51 73 75 18 27 35 42 42 38 7 -4 9 -4 5 1 -4 4 8 25 27 46
19 21 37 50 41 64 5 22 11 25 50 25 32 0 44 -4 44 -15z m-117 -150 c-3 -9 -8
-14 -10 -11 -3 3 -2 9 2 15 9 16 15 13 8 -4z m-2461 -25 c29 -11 85 -41 123
-66 82 -53 80 -53 -46 9 -53 26 -111 50 -130 53 -20 3 -6 -5 32 -19 171 -63
343 -182 413 -287 22 -34 20 -50 -13 -89 l-28 -34 -21 34 c-23 37 -119 135
-167 170 -16 12 5 -11 47 -50 78 -72 124 -128 115 -137 -2 -3 -21 17 -40 43
-20 26 -66 74 -104 105 -121 102 -123 103 -83 77 32 -21 33 -21 17 -2 -20 24
-96 61 -189 94 -38 13 -68 27 -68 30 0 15 62 89 75 89 8 0 38 -9 67 -20z
m-169 -82 c-12 -6 -56 -62 -99 -125 -59 -89 -86 -119 -112 -130 -19 -8 -36
-12 -39 -10 -2 3 11 10 30 16 27 9 48 33 111 126 73 108 97 135 121 134 6 0 0
-5 -12 -11z m2515 -16 c-16 -9 -28 -24 -28 -34 0 -38 -35 -90 -74 -110 l-39
-20 31 38 c18 21 32 45 32 52 0 16 77 92 93 92 7 0 0 -8 -15 -18z m152 -108
c0 -11 -51 -2 -64 12 -28 28 -17 34 24 13 22 -12 40 -23 40 -25z m26 -35 c17
-19 17 -20 -2 -13 -15 5 -13 1 9 -20 35 -34 35 -49 1 -35 -15 5 -29 7 -32 4
-3 -3 0 -5 6 -5 6 0 12 -10 14 -22 2 -12 9 -23 16 -24 7 -1 8 0 2 3 -15 7 -12
23 5 23 9 0 15 -9 15 -24 0 -29 -30 -42 -59 -27 -11 6 -29 11 -41 11 -18 0
-21 5 -18 32 2 21 9 32 21 34 28 4 33 14 8 14 -19 0 -23 4 -19 25 3 14 1 25
-3 25 -5 0 -9 6 -9 13 0 20 65 9 86 -14z m-298 -164 c0 -16 -2 -15 -8 5 -4 14
-8 36 -8 50 0 22 1 22 8 -5 4 -16 8 -39 8 -50z m-334 -27 c3 -16 4 -28 1 -28
-5 0 -26 44 -30 66 -2 6 -6 22 -9 35 -4 15 0 11 12 -11 11 -19 22 -47 26 -62z
m366 19 c0 -5 -4 -5 -10 -2 -5 3 -10 14 -10 23 0 15 2 15 10 2 5 -8 10 -19 10
-23z m237 1 c-3 -8 -6 -5 -6 6 -1 11 2 17 5 13 3 -3 4 -12 1 -19z m-534 -28
c3 -11 1 -18 -4 -14 -5 3 -9 12 -9 20 0 20 7 17 13 -6z m-2587 -115 c-19 -14
-56 -21 -56 -10 0 7 41 24 60 24 11 0 10 -3 -4 -14z m-447 -1471 c14 -12 -19
-1 -35 12 -18 14 -18 14 6 3 14 -6 27 -13 29 -15z"/>
<path d="M3532 4521 c-20 -65 -16 -80 24 -97 30 -13 42 -13 66 -3 30 12 88 64
88 78 0 5 -23 11 -51 13 -29 3 -62 14 -79 27 -16 11 -31 21 -33 21 -2 0 -9
-17 -15 -39z m63 -16 c22 -14 51 -25 65 -25 l25 -1 -28 -24 c-32 -29 -97 -34
-117 -10 -13 15 -6 85 8 85 4 0 25 -12 47 -25z m88 -12 c-7 -2 -21 -2 -30 0
-10 3 -4 5 12 5 17 0 24 -2 18 -5z"/>
<path d="M2155 4170 c3 -19 8 -51 11 -71 7 -43 -11 -63 -25 -27 -6 13 -10 18
-10 11 -2 -22 11 -43 25 -43 32 0 34 71 4 141 -9 21 -10 20 -5 -11z"/>
<path d="M2603 3893 c-3 -10 -8 -22 -11 -27 -3 -5 0 -6 5 -3 11 7 25 47 17 47
-3 0 -7 -8 -11 -17z"/>
<path d="M2500 3880 c-6 -11 -8 -20 -6 -20 3 0 10 9 16 20 6 11 8 20 6 20 -3
0 -10 -9 -16 -20z"/>
<path d="M1908 3353 c-7 -16 -12 -69 -13 -119 0 -85 2 -95 38 -167 35 -71 127
-187 149 -187 5 0 -13 23 -40 50 -57 58 -116 170 -130 249 -9 51 -1 169 14
192 3 5 3 9 -1 9 -3 0 -11 -12 -17 -27z"/>
<path d="M2214 2889 c22 -14 118 -40 124 -34 5 5 -5 9 -63 23 -22 5 -49 13
-60 17 -19 6 -19 6 -1 -6z"/>
<path d="M2095 2860 c-3 -4 7 -11 21 -14 35 -9 39 -4 8 11 -13 6 -26 8 -29 3z"/>
<path d="M2180 2827 c14 -8 39 -17 55 -20 l30 -6 -30 13 c-16 8 -41 16 -55 20
l-25 7 25 -14z"/>
<path d="M1360 2255 c81 -17 97 -17 45 0 -22 8 -56 13 -75 13 -26 0 -18 -4 30
-13z"/>
<path d="M3470 2260 c-8 -10 -41 -49 -72 -87 -76 -92 -193 -213 -206 -213 -6
0 -13 6 -15 13 -3 7 -6 5 -6 -5 -1 -10 6 -18 16 -18 11 0 4 -10 -20 -31 -21
-17 -37 -39 -36 -48 0 -12 3 -10 9 5 11 29 53 54 92 55 l33 1 -29 7 -29 6 52
63 c29 35 59 66 66 68 8 3 37 37 66 75 29 38 56 69 60 69 8 0 42 50 37 55 -2
1 -10 -5 -18 -15z"/>
<path d="M595 6233 c-42 -6 -47 -14 -51 -81 -5 -62 10 -94 22 -48 9 38 50 43
85 10 16 -15 31 -25 35 -22 8 8 -14 48 -26 48 -16 0 -12 36 5 50 28 23 10 53
-28 49 -7 -1 -25 -4 -42 -6z m45 -43 c-17 -32 -49 -45 -68 -27 -25 26 -8 47
38 47 37 0 40 -2 30 -20z"/>
<path d="M724 6206 c-40 -40 -44 -76 -13 -107 41 -41 128 -3 144 61 4 18 0 34
-15 53 -31 39 -73 36 -116 -7z m98 -3 c24 -21 23 -42 -4 -70 -29 -31 -94 -33
-103 -3 -9 30 3 58 33 75 35 19 52 19 74 -2z"/>
<path d="M933 6224 c-41 -20 -68 -75 -53 -104 14 -26 50 -41 81 -33 30 7 70
43 63 55 -4 5 -16 0 -29 -12 -16 -15 -33 -20 -56 -18 -28 2 -35 8 -37 29 -4
32 51 84 77 74 29 -11 36 -10 36 5 0 21 -44 23 -82 4z"/>
<path d="M1111 6205 c-40 -43 -51 -44 -51 -5 0 17 -4 30 -10 30 -6 0 -10 -32
-10 -76 0 -47 4 -73 10 -69 6 3 10 17 10 31 0 32 24 31 56 -1 29 -29 34 -30
34 -11 0 8 -12 24 -26 35 l-26 21 31 35 c17 20 31 38 31 40 0 13 -19 1 -49
-30z"/>
<path d="M163 6035 c0 -27 2 -38 4 -22 2 15 2 37 0 50 -2 12 -4 0 -4 -28z"/>
<path d="M1427 5946 c-9 -60 -16 -111 -13 -113 6 -7 38 173 34 198 -1 13 -11
-25 -21 -85z"/>
<path d="M1061 5963 c1 -44 3 -52 9 -33 12 36 12 90 0 90 -6 0 -10 -25 -9 -57z"/>
<path d="M617 6003 c-5 -8 -10 -95 -8 -135 1 -21 24 -23 69 -7 42 14 32 29
-14 22 l-36 -6 3 61 c2 59 -3 83 -14 65z"/>
<path d="M737 6003 c-13 -12 -8 -141 5 -145 18 -6 100 10 112 22 7 7 -7 9 -47
4 -48 -6 -57 -4 -57 9 0 22 31 37 74 37 20 0 36 5 36 11 0 8 -17 9 -55 4 -43
-5 -55 -4 -55 7 0 25 23 38 67 38 24 0 43 5 43 10 0 11 -113 14 -123 3z"/>
<path d="M886 5994 c-11 -29 -7 -132 6 -136 20 -7 98 8 111 21 9 9 -1 10 -46
5 -49 -6 -57 -4 -57 10 0 19 38 36 81 36 16 0 29 5 29 11 0 8 -17 9 -55 4 -43
-5 -55 -4 -55 7 0 25 23 38 67 38 24 0 43 5 43 10 0 6 -26 10 -59 10 -44 0
-60 -4 -65 -16z"/>
<path d="M171 5955 c0 -16 8 -69 19 -116 32 -145 117 -289 223 -378 53 -45
120 -81 147 -80 8 0 -2 7 -22 14 -91 34 -188 126 -257 244 -53 90 -75 150 -94
261 -8 47 -15 72 -16 55z"/>
<path d="M1050 5864 c0 -8 5 -12 10 -9 6 3 10 10 10 16 0 5 -4 9 -10 9 -5 0
-10 -7 -10 -16z"/>
<path d="M1353 5716 c-24 -39 -57 -90 -74 -113 -29 -39 -31 -44 -17 -60 34
-41 32 -44 -20 -37 -42 5 -55 2 -88 -18 -87 -55 -203 -94 -324 -109 l-65 -8
80 4 c109 6 232 47 318 107 23 17 37 19 88 13 66 -8 66 -8 24 51 -14 19 -13
24 16 60 36 46 113 173 108 178 -2 2 -23 -28 -46 -68z"/>
<path d="M698 5363 c12 -2 30 -2 40 0 9 3 -1 5 -23 4 -22 0 -30 -2 -17 -4z"/>
<path d="M1210 5080 c-7 -17 -40 -53 -74 -81 -134 -111 -212 -196 -254 -276
-47 -91 -74 -187 -66 -234 4 -27 3 -31 -6 -19 -9 12 -11 9 -7 -17 2 -18 0 -33
-3 -33 -4 0 -10 -33 -13 -72 -17 -189 -16 -201 3 -85 56 341 114 469 289 641
55 55 98 103 95 108 -3 4 -1 8 5 8 11 0 55 79 48 86 -2 3 -10 -9 -17 -26z
m-140 -173 c-128 -123 -205 -248 -236 -380 -3 -15 -9 -26 -11 -23 -11 10 21
114 57 191 21 44 55 100 76 124 39 45 201 191 213 191 3 0 -41 -46 -99 -103z"/>
<path d="M2715 4970 c-3 -6 1 -7 9 -4 18 7 21 14 7 14 -6 0 -13 -4 -16 -10z"/>
<path d="M3550 4823 c0 -3 7 -14 16 -24 9 -10 20 -33 24 -51 7 -28 8 -29 9 -8
0 14 -8 40 -19 58 -19 30 -30 40 -30 25z"/>
<path d="M2947 4770 c-26 -16 -47 -32 -47 -36 0 -4 10 1 23 10 12 9 40 25 62
36 22 11 33 20 24 20 -8 0 -36 -13 -62 -30z"/>
<path d="M2821 4774 c-2 -45 -50 -65 -108 -44 -26 9 -27 9 -9 -5 47 -36 146 3
126 50 -8 20 -9 20 -9 -1z"/>
<path d="M2951 4643 c-10 -25 -10 -26 3 -10 9 11 17 14 20 8 12 -19 83 -32
125 -22 23 5 41 5 41 1 0 -4 -18 -24 -40 -44 -22 -20 -36 -36 -32 -36 8 0 66
59 90 91 11 15 7 16 -50 12 -45 -4 -74 -1 -102 11 -21 9 -39 16 -41 16 -1 0
-7 -12 -14 -27z m76 -9 c-3 -3 -12 -4 -19 -1 -8 3 -5 6 6 6 11 1 17 -2 13 -5z
m50 -10 c-3 -3 -12 -4 -19 -1 -8 3 -5 6 6 6 11 1 17 -2 13 -5z"/>
<path d="M3501 4594 c-45 -31 -117 -33 -155 -3 -14 11 -26 16 -26 10 0 -6 14
-18 32 -27 48 -25 132 -15 166 19 32 33 28 33 -17 1z"/>
<path d="M2941 4593 c-2 -36 33 -63 77 -61 l37 1 -35 4 c-40 5 -67 26 -73 57
-4 21 -4 20 -6 -1z"/>
<path d="M2680 4570 c8 -5 22 -9 30 -9 10 0 8 3 -5 9 -27 12 -43 12 -25 0z"/>
<path d="M3935 4200 c-4 -17 -5 -34 -2 -36 2 -3 7 10 11 27 8 42 0 50 -9 9z"/>
<path d="M757 4120 c-3 -11 -1 -20 4 -20 5 0 9 9 9 20 0 11 -2 20 -4 20 -2 0
-6 -9 -9 -20z"/>
<path d="M3905 4098 c-4 -12 -58 -74 -120 -138 -116 -120 -155 -166 -155 -183
0 -5 13 8 29 29 15 21 60 69 98 106 39 37 69 69 66 71 -2 2 8 12 21 21 26 17
82 103 73 112 -3 3 -8 -5 -12 -18z"/>
<path d="M2643 3973 c9 -2 23 -2 30 0 6 3 -1 5 -18 5 -16 0 -22 -2 -12 -5z"/>
<path d="M2857 3645 c-9 -19 -15 -35 -12 -35 7 0 37 61 33 66 -3 2 -12 -12
-21 -31z"/>
<path d="M3222 3600 c0 -14 2 -19 5 -12 2 6 2 18 0 25 -3 6 -5 1 -5 -13z"/>
<path d="M3275 3485 c-21 -31 -55 -69 -77 -86 -21 -17 -36 -34 -33 -37 8 -8
91 75 126 127 17 24 28 45 26 47 -2 2 -21 -21 -42 -51z"/>
<path d="M3875 3530 c-3 -6 1 -7 9 -4 18 7 21 14 7 14 -6 0 -13 -4 -16 -10z"/>
<path d="M3791 3485 c-74 -40 -103 -64 -94 -78 4 -6 16 1 29 16 13 15 25 27
28 27 7 0 106 62 106 66 0 6 -2 5 -69 -31z m-61 -49 c0 -2 -8 -10 -17 -17 -16
-13 -17 -12 -4 4 13 16 21 21 21 13z"/>
<path d="M2704 3492 c3 -5 23 -12 43 -15 21 -2 76 -12 123 -21 47 -9 144 -18
215 -20 l130 -5 -130 10 c-110 8 -300 37 -369 56 -11 3 -16 1 -12 -5z"/>
<path d="M2884 3378 l-19 -23 23 19 c12 11 22 21 22 23 0 8 -8 2 -26 -19z"/>
<path d="M3018 3333 c18 -2 45 -2 60 0 15 2 0 4 -33 4 -33 0 -45 -2 -27 -4z"/>
<path d="M2460 3286 c14 -9 32 -15 40 -15 13 0 13 1 0 8 -8 5 -26 12 -40 15
l-25 7 25 -15z"/>
<path d="M2315 3132 c19 -20 190 -80 245 -86 68 -7 57 -2 -42 19 -42 9 -93 27
-113 41 -20 13 -40 22 -45 19 -5 -3 -20 -1 -32 6 -14 7 -19 7 -13 1z"/>
<path d="M2693 3072 c-23 -9 -45 -20 -49 -25 -9 -9 69 18 94 32 26 16 2 12
-45 -7z"/>
<path d="M965 2999 c-4 -6 -5 -12 -2 -15 2 -3 7 2 10 11 7 17 1 20 -8 4z"/>
<path d="M931 2921 c-12 -27 -164 -189 -179 -190 -4 -1 -7 -6 -7 -13 0 -6 -6
-13 -14 -16 -8 -3 -11 0 -7 7 5 7 1 8 -10 4 -12 -5 -14 -8 -5 -11 27 -9 -48
-40 -174 -72 -139 -35 -265 -92 -306 -137 -22 -25 -21 -25 16 4 68 52 143 84
282 119 74 19 149 42 166 50 71 38 274 260 255 280 -3 2 -11 -8 -17 -25z"/>
<path d="M580 2679 c-76 -16 -79 -18 -27 -13 32 3 77 12 100 19 59 18 27 16
-73 -6z"/>
<path d="M399 2635 c-94 -38 -173 -100 -251 -197 -64 -79 -73 -104 -14 -41 31
34 56 64 54 67 -6 9 67 77 120 112 29 20 83 46 120 59 37 13 58 23 47 23 -11
0 -45 -10 -76 -23z m-209 -169 c0 -2 -8 -10 -17 -17 -16 -13 -17 -12 -4 4 13
16 21 21 21 13z"/>
<path d="M59 2313 c-13 -16 -12 -17 4 -4 9 7 17 15 17 17 0 8 -8 3 -21 -13z"/>
<path d="M3220 2271 c0 -5 5 -13 10 -16 6 -3 10 -2 10 4 0 5 -4 13 -10 16 -5
3 -10 2 -10 -4z"/>
<path d="M4244 2256 c27 -13 66 -41 87 -62 22 -21 39 -34 39 -29 0 5 12 -2 28
-16 15 -13 5 0 -22 28 -27 29 -53 50 -57 47 -4 -2 -12 4 -18 13 -6 10 -11 14
-11 9 0 -5 -8 -2 -17 7 -10 8 -31 18 -48 22 -23 5 -18 0 19 -19z m106 -61 c13
-14 21 -25 18 -25 -2 0 -15 11 -28 25 -13 14 -21 25 -18 25 2 0 15 -11 28 -25z"/>
<path d="M3789 2213 c-13 -16 -12 -17 4 -4 16 13 21 21 13 21 -2 0 -10 -8 -17
-17z"/>
<path d="M3145 2190 c10 -11 20 -20 22 -20 2 0 -2 9 -9 20 -7 11 -17 20 -22
20 -5 0 -1 -9 9 -20z"/>
<path d="M4140 2148 c6 -7 10 -19 10 -27 0 -9 12 -38 25 -66 14 -27 22 -41 19
-30 -27 80 -43 118 -53 126 -8 6 -8 5 -1 -3z"/>
<path d="M3141 2134 c0 -11 3 -14 6 -6 3 7 2 16 -1 19 -3 4 -6 -2 -5 -13z"/>
<path d="M2765 2120 c10 -11 20 -20 23 -20 3 0 -3 9 -13 20 -10 11 -20 20 -23
20 -3 0 3 -9 13 -20z"/>
<path d="M4300 2116 c0 -3 9 -10 20 -16 11 -6 20 -8 20 -6 0 3 -9 10 -20 16
-11 6 -20 8 -20 6z"/>
<path d="M2445 2101 c-3 -5 -1 -12 5 -16 5 -3 10 1 10 9 0 18 -6 21 -15 7z"/>
<path d="M4343 2083 c-10 -4 81 -98 96 -98 3 0 12 -4 19 -8 27 -18 9 11 -30
48 -24 22 -33 28 -20 14 32 -37 27 -48 -8 -14 -16 15 -27 31 -25 35 7 11 -18
28 -32 23z"/>
<path d="M2425 2069 c-10 -15 3 -25 16 -12 7 7 7 13 1 17 -6 3 -14 1 -17 -5z"/>
<path d="M3760 2055 c13 -14 26 -25 28 -25 3 0 -5 11 -18 25 -13 14 -26 25
-28 25 -3 0 5 -11 18 -25z"/>
<path d="M3901 2064 c0 -11 3 -14 6 -6 3 7 2 16 -1 19 -3 4 -6 -2 -5 -13z"/>
<path d="M4130 2074 c0 -6 7 -19 16 -30 14 -18 14 -18 3 6 -14 31 -19 36 -19
24z"/>
<path d="M2770 2066 c0 -2 7 -7 16 -10 8 -3 12 -2 9 4 -6 10 -25 14 -25 6z"/>
<path d="M4590 2056 c0 -2 8 -10 18 -17 15 -13 16 -12 3 4 -13 16 -21 21 -21
13z"/>
<path d="M2965 2020 c47 -55 48 -56 37 -35 -6 11 -23 31 -39 45 l-28 25 30
-35z"/>
<path d="M3793 2005 c0 -8 4 -15 9 -15 4 0 8 4 8 9 0 6 -4 12 -8 15 -5 3 -9
-1 -9 -9z"/>
<path d="M4009 2005 c5 -11 17 -29 26 -40 l16 -20 -10 20 c-5 11 -17 29 -26
40 l-16 20 10 -20z"/>
<path d="M4160 2007 c0 -19 16 -31 24 -18 3 5 -1 14 -9 21 -12 10 -15 10 -15
-3z"/>
<path d="M4870 2004 c0 -11 36 -46 60 -58 8 -4 5 1 -7 11 -12 10 -29 27 -37
38 -9 11 -16 15 -16 9z"/>
<path d="M3920 1992 c0 -22 41 -104 80 -162 41 -60 130 -151 130 -133 0 6 -6
13 -14 16 -26 10 -126 146 -161 219 -19 40 -35 67 -35 60z"/>
<path d="M2820 1986 c0 -2 8 -10 18 -17 15 -13 16 -12 3 4 -13 16 -21 21 -21
13z"/>
<path d="M4210 1977 c0 -2 6 -10 14 -16 11 -9 16 -9 22 1 4 7 4 10 -1 6 -4 -4
-14 -3 -22 3 -7 6 -13 9 -13 6z"/>
<path d="M3751 1954 c0 -11 3 -14 6 -6 3 7 2 16 -1 19 -3 4 -6 -2 -5 -13z"/>
<path d="M3792 1945 c0 -16 2 -22 5 -12 2 9 2 23 0 30 -3 6 -5 -1 -5 -18z"/>
<path d="M3820 1960 c0 -5 5 -10 11 -10 5 0 7 5 4 10 -3 6 -8 10 -11 10 -2 0
-4 -4 -4 -10z"/>
<path d="M4190 1962 c0 -12 19 -26 26 -19 2 2 -2 10 -11 17 -9 8 -15 8 -15 2z"/>
<path d="M2860 1950 c0 -5 5 -10 10 -10 6 0 10 5 10 10 0 6 -4 10 -10 10 -5 0
-10 -4 -10 -10z"/>
<path d="M4515 1940 c10 -11 20 -20 23 -20 3 0 -3 9 -13 20 -10 11 -20 20 -23
20 -3 0 3 -9 13 -20z"/>
<path d="M2818 1928 c9 -35 32 -76 32 -57 0 15 -28 79 -35 79 -2 0 -1 -10 3
-22z"/>
<path d="M4250 1947 c0 -2 15 -16 33 -33 l32 -29 -29 33 c-28 30 -36 37 -36
29z"/>
<path d="M4069 1912 c11 -16 28 -35 38 -43 9 -8 2 5 -17 29 -38 48 -52 57 -21
14z"/>
<path d="M4500 1920 c6 -11 13 -20 16 -20 2 0 0 9 -6 20 -6 11 -13 20 -16 20
-2 0 0 -9 6 -20z"/>
<path d="M4607 1910 c18 -19 34 -32 36 -29 2 2 -12 17 -32 33 l-36 30 32 -34z"/>
<path d="M4461 1903 c7 -10 24 -30 37 -45 13 -14 24 -30 24 -35 -1 -4 5 -7 12
-5 7 1 20 -5 27 -15 12 -15 12 -16 -4 -10 -11 4 -1 -13 24 -43 46 -55 51 -58
43 -32 -3 9 11 -1 31 -23 26 -28 31 -31 16 -10 -39 55 -51 69 -58 62 -8 -8
-43 21 -43 36 0 6 10 2 23 -9 12 -10 -14 19 -58 64 -77 79 -102 101 -74 65z"/>
<path d="M2894 1902 c4 -3 14 -7 22 -8 9 -1 13 0 10 4 -4 3 -14 7 -22 8 -9 1
-13 0 -10 -4z"/>
<path d="M2940 1902 c0 -5 10 -17 21 -28 22 -19 22 -19 10 3 -12 24 -31 39
-31 25z"/>
<path d="M4145 1900 c3 -5 8 -10 11 -10 2 0 4 5 4 10 0 6 -5 10 -11 10 -5 0
-7 -4 -4 -10z"/>
<path d="M3824 1885 c3 -23 12 -26 13 -5 1 11 -2 20 -7 20 -4 0 -7 -7 -6 -15z"/>
<path d="M4134 1881 c20 -22 26 -25 26 -13 0 4 -10 13 -22 21 -23 14 -23 14
-4 -8z"/>
<path d="M4296 1867 c3 -10 9 -15 12 -12 3 3 0 11 -7 18 -10 9 -11 8 -5 -6z"/>
<path d="M4860 1873 c1 -4 19 -28 42 -53 43 -47 34 -29 -14 28 -16 18 -28 29
-28 25z"/>
<path d="M4251 1867 c2 -1 15 -11 29 -22 l25 -20 -19 23 c-11 12 -24 22 -29
22 -6 0 -8 -1 -6 -3z"/>
<path d="M2857 1830 c3 -11 9 -20 14 -20 11 0 11 3 3 24 -9 23 -23 20 -17 -4z"/>
<path d="M4320 1842 c0 -4 10 -13 23 -21 22 -14 22 -14 3 8 -20 22 -26 25 -26
13z"/>
<path d="M2564 1821 c4 -6 16 -16 28 -22 15 -8 18 -8 14 0 -4 6 -16 16 -28 22
-15 8 -18 8 -14 0z"/>
<path d="M3873 1814 c20 -24 22 -39 5 -28 -7 5 -8 3 -3 -5 5 -9 10 -10 18 -2
8 8 5 17 -13 34 -21 19 -22 19 -7 1z"/>
<path d="M4076 1817 c3 -10 9 -15 12 -12 3 3 0 11 -7 18 -10 9 -11 8 -5 -6z"/>
<path d="M232 1795 c-11 -12 -10 -15 3 -15 8 0 15 7 15 15 0 18 -2 18 -18 0z"/>
<path d="M2750 1806 c0 -2 8 -10 18 -17 15 -13 16 -12 3 4 -13 16 -21 21 -21
13z"/>
<path d="M3980 1801 c0 -6 4 -13 10 -16 6 -3 7 1 4 9 -7 18 -14 21 -14 7z"/>
<path d="M4345 1790 c10 -11 20 -20 23 -20 3 0 -3 9 -13 20 -10 11 -20 20 -23
20 -3 0 3 -9 13 -20z"/>
<path d="M2891 1783 c7 -12 15 -20 18 -17 3 2 -3 12 -13 22 -17 16 -18 16 -5
-5z"/>
<path d="M4475 1780 c10 -11 20 -20 23 -20 3 0 -3 9 -13 20 -10 11 -20 20 -23
20 -3 0 3 -9 13 -20z"/>
<path d="M2588 1774 c12 -8 20 -19 17 -23 -2 -5 2 -17 11 -27 14 -18 15 -18 4
4 -6 12 -8 22 -4 22 4 0 -1 9 -11 20 -10 11 -23 20 -29 20 -6 0 0 -7 12 -16z"/>
<path d="M2470 1751 c0 -6 4 -13 10 -16 6 -3 7 1 4 9 -7 18 -14 21 -14 7z"/>
<path d="M2560 1756 c0 -2 8 -10 18 -17 15 -13 16 -12 3 4 -13 16 -21 21 -21
13z"/>
<path d="M3810 1750 c0 -6 4 -9 9 -6 5 4 12 1 14 -4 3 -6 4 -5 3 2 -3 15 -26
23 -26 8z"/>
<path d="M2963 1733 c5 -6 6 -16 4 -21 -3 -4 -2 -14 2 -21 6 -10 9 -9 14 3 3
8 -2 23 -11 33 -9 11 -13 13 -9 6z"/>
<path d="M3381 1745 c0 -5 8 -26 19 -45 11 -19 19 -30 19 -25 0 6 -8 26 -19
45 -11 19 -19 31 -19 25z"/>
<path d="M4010 1744 c0 -5 16 -25 35 -44 19 -18 32 -36 30 -40 -3 -4 2 -13 10
-20 8 -7 15 -17 15 -23 0 -6 -28 15 -62 48 l-62 60 64 -70 c60 -66 100 -107
73 -75 -19 21 -16 35 4 19 10 -8 6 2 -9 22 -15 20 -25 38 -23 40 2 2 -14 24
-36 49 -21 25 -39 40 -39 34z"/>
<path d="M4230 1745 c0 -6 14 -26 30 -45 16 -19 29 -30 29 -25 0 6 -13 26 -29
45 -17 19 -30 30 -30 25z"/>
<path d="M4820 1725 c13 -14 26 -25 28 -25 3 0 -5 11 -18 25 -13 14 -26 25
-28 25 -3 0 5 -11 18 -25z"/>
<path d="M4415 1710 c10 -11 20 -20 23 -20 3 0 -3 9 -13 20 -10 11 -20 20 -23
20 -3 0 3 -9 13 -20z"/>
<path d="M3851 1700 c14 -31 19 -36 19 -24 0 6 -7 19 -16 30 -14 18 -14 18 -3
-6z"/>
<path d="M4365 1662 c21 -23 41 -42 43 -42 9 0 -27 42 -54 61 -22 17 -20 13
11 -19z"/>
<path d="M1890 1665 c25 -14 56 -33 70 -42 22 -15 23 -16 12 -1 -7 9 -9 18 -3
20 5 1 -3 12 -17 22 l-27 20 19 -22 c23 -27 13 -28 -22 -3 -15 10 -38 21 -52
25 -14 4 -5 -4 20 -19z"/>
<path d="M2616 1671 c7 -28 44 -92 44 -76 -1 6 -12 30 -26 55 -13 25 -22 34
-18 21z"/>
<path d="M4830 1686 c0 -2 8 -10 18 -17 15 -13 16 -12 3 4 -13 16 -21 21 -21
13z"/>
<path d="M3000 1676 c0 -2 8 -10 18 -17 15 -13 16 -12 3 4 -13 16 -21 21 -21
13z"/>
<path d="M3340 1660 c6 -11 13 -20 16 -20 2 0 0 9 -6 20 -6 11 -13 20 -16 20
-2 0 0 -9 6 -20z"/>
<path d="M2039 1653 c12 -24 31 -39 31 -25 0 5 -10 17 -21 28 -22 19 -22 19
-10 -3z"/>
<path d="M4240 1666 c0 -2 8 -10 18 -17 15 -13 16 -12 3 4 -13 16 -21 21 -21
13z"/>
<path d="M2900 1651 c0 -6 4 -13 10 -16 6 -3 7 1 4 9 -7 18 -14 21 -14 7z"/>
<path d="M3915 1641 c19 -22 55 -46 55 -38 0 3 -17 17 -37 33 -31 23 -34 24
-18 5z"/>
<path d="M4870 1644 c0 -6 7 -19 16 -30 14 -18 14 -18 3 6 -14 31 -19 36 -19
24z"/>
<path d="M2497 1634 c-3 -3 -3 -12 0 -20 6 -17 -8 -18 -26 -1 -9 8 -12 8 -7 0
3 -6 3 -13 -1 -16 -5 -2 -2 -2 5 -1 7 2 18 -8 24 -21 12 -27 23 -31 34 -13 4
7 3 8 -4 4 -8 -5 -10 -2 -6 8 4 10 1 16 -7 16 -12 0 -12 2 0 9 9 6 10 11 2 15
-6 4 -9 12 -6 17 7 10 2 12 -8 3z"/>
<path d="M2615 1590 c27 -27 51 -50 54 -50 3 0 -17 23 -44 50 -27 28 -51 50
-54 50 -3 0 17 -22 44 -50z"/>
<path d="M3041 1624 c0 -11 3 -14 6 -6 3 7 2 16 -1 19 -3 4 -6 -2 -5 -13z"/>
<path d="M3136 1624 c-3 -9 -4 -19 -1 -22 3 -3 5 1 5 9 0 11 2 11 10 -1 5 -8
10 -10 10 -5 0 6 -4 16 -9 23 -6 11 -10 10 -15 -4z"/>
<path d="M138 1623 c7 -3 16 -2 19 1 4 3 -2 6 -13 5 -11 0 -14 -3 -6 -6z"/>
<path d="M2410 1605 c13 -14 26 -25 28 -25 3 0 -5 11 -18 25 -13 14 -26 25
-28 25 -3 0 5 -11 18 -25z"/>
<path d="M3827 1610 c3 -11 10 -23 16 -27 7 -4 8 0 4 11 -4 10 -7 22 -7 27 0
5 -4 9 -9 9 -5 0 -7 -9 -4 -20z"/>
<path d="M2577 1595 c10 -13 22 -25 27 -25 5 0 -1 11 -14 25 -30 32 -36 32
-13 0z"/>
<path d="M2790 1617 c0 -3 21 -22 47 -43 26 -21 44 -33 40 -27 -9 14 -87 77
-87 70z"/>
<path d="M2894 1605 c13 -57 18 -67 26 -55 11 18 33 2 25 -19 -5 -12 -4 -13 6
-4 15 15 -7 47 -28 39 -8 -3 -13 2 -13 12 0 9 -5 24 -11 32 -8 12 -9 11 -5 -5z"/>
<path d="M2916 1607 c3 -10 9 -15 12 -12 3 3 0 11 -7 18 -10 9 -11 8 -5 -6z"/>
<path d="M3277 1603 c20 -61 78 -165 111 -203 22 -25 51 -63 66 -84 14 -21 26
-34 26 -28 0 11 -73 106 -90 117 -5 3 -10 11 -10 17 0 6 8 4 18 -5 21 -19 34
-13 24 11 -5 15 -4 16 14 2 18 -14 18 -14 4 5 -27 36 -40 47 -40 35 0 -6 -6
-8 -12 -4 -7 4 -4 -2 6 -14 32 -36 12 -35 -21 1 -40 44 -56 75 -49 93 3 9 1
12 -4 9 -6 -4 -17 10 -25 29 -15 37 -29 51 -18 19z m94 -160 c13 -16 12 -17
-3 -4 -10 7 -18 15 -18 17 0 8 8 3 21 -13z"/>
<path d="M3342 1560 c16 -33 31 -60 34 -60 3 0 0 9 -6 21 -7 11 -9 27 -6 35 3
8 2 13 -3 10 -5 -3 -12 1 -15 10 -9 23 -7 31 3 15 5 -7 15 -11 22 -9 9 3 2 11
-18 21 -18 10 -34 17 -36 17 -2 0 9 -27 25 -60z"/>
<path d="M3523 1584 c41 -44 50 -68 15 -38 l-23 19 19 -23 c11 -12 21 -20 24
-17 3 3 15 -3 26 -12 12 -11 9 -2 -10 24 -17 24 -44 52 -60 65 -23 17 -22 14
9 -18z"/>
<path d="M4650 1617 c0 -2 19 -19 43 -37 23 -19 36 -26 28 -17 -15 19 -71 61
-71 54z"/>
<path d="M2010 1585 c13 -14 26 -25 28 -25 3 0 -5 11 -18 25 -13 14 -26 25
-28 25 -3 0 5 -11 18 -25z"/>
<path d="M3573 1578 c7 -17 19 -34 27 -36 11 -4 11 0 -2 15 -10 11 -18 27 -18
36 0 9 -5 17 -10 17 -6 0 -5 -13 3 -32z"/>
<path d="M4620 1606 c0 -3 9 -10 20 -16 11 -6 20 -8 20 -6 0 3 -9 10 -20 16
-11 6 -20 8 -20 6z"/>
<path d="M3006 1591 c-3 -5 2 -15 12 -22 15 -12 16 -12 5 2 -7 9 -10 19 -6 22
3 4 4 7 0 7 -3 0 -8 -4 -11 -9z"/>
<path d="M4206 1585 c4 -8 11 -15 16 -15 6 0 5 6 -2 15 -7 8 -14 15 -16 15 -2
0 -1 -7 2 -15z"/>
<path d="M2360 1586 c0 -2 8 -10 18 -17 15 -13 16 -12 3 4 -13 16 -21 21 -21
13z"/>
<path d="M2728 1564 c28 -40 143 -147 150 -139 3 3 17 -5 31 -17 14 -13 8 -4
-14 20 -38 41 -53 53 -40 32 3 -5 2 -10 -3 -10 -6 0 -41 33 -78 73 -37 39 -58
58 -46 41z"/>
<path d="M2110 1576 c0 -2 7 -7 16 -10 8 -3 12 -2 9 4 -6 10 -25 14 -25 6z"/>
<path d="M3442 1550 c0 -19 2 -27 5 -17 2 9 2 25 0 35 -3 9 -5 1 -5 -18z"/>
<path d="M3990 1576 c0 -2 8 -10 18 -17 15 -13 16 -12 3 4 -13 16 -21 21 -21
13z"/>
<path d="M4374 1572 c-7 -4 1 -17 20 -32 17 -13 25 -18 19 -9 -7 9 -11 18 -8
21 9 9 -20 27 -31 20z"/>
<path d="M4710 1538 c41 -45 50 -53 50 -45 0 2 -21 23 -47 47 l-48 45 45 -47z"/>
<path d="M1970 1545 c13 -14 26 -25 28 -25 3 0 -5 11 -18 25 -13 14 -26 25
-28 25 -3 0 5 -11 18 -25z"/>
<path d="M3150 1562 c0 -5 7 -9 15 -9 8 0 12 4 9 9 -3 4 -9 8 -15 8 -5 0 -9
-4 -9 -8z"/>
<path d="M3235 1531 c38 -40 63 -58 32 -23 -8 9 -16 21 -16 26 0 4 -12 15 -28
23 -25 13 -24 10 12 -26z"/>
<path d="M3850 1561 c0 -5 7 -15 17 -22 15 -13 15 -12 4 9 -12 23 -21 28 -21
13z"/>
<path d="M2503 1488 c46 -80 73 -115 99 -129 10 -6 5 9 -15 40 -18 26 -35 46
-39 44 -4 -2 -22 24 -40 57 -18 33 -36 60 -40 60 -3 0 12 -33 35 -72z"/>
<path d="M4135 1529 c9 -16 18 -29 21 -29 2 0 0 9 -6 19 -13 26 -13 34 3 25 6
-4 8 -3 4 1 -4 5 -14 10 -22 11 -13 2 -12 -2 0 -27z"/>
<path d="M2125 1530 c10 -11 20 -20 23 -20 3 0 -3 9 -13 20 -10 11 -20 20 -23
20 -3 0 3 -9 13 -20z"/>
<path d="M4566 1535 c10 -8 23 -15 28 -15 6 0 1 7 -10 15 -10 8 -23 15 -28 15
-6 0 -1 -7 10 -15z"/>
<path d="M2420 1531 c0 -6 4 -13 10 -16 6 -3 7 1 4 9 -7 18 -14 21 -14 7z"/>
<path d="M2615 1501 c8 -24 13 -46 11 -50 -2 -3 6 -23 19 -44 19 -32 24 -35
29 -20 4 9 4 14 0 10 -4 -4 -13 1 -20 11 -16 20 -18 36 -4 27 9 -6 -32 90 -44
102 -4 4 0 -13 9 -36z"/>
<path d="M3136 1527 c3 -10 9 -15 12 -12 3 3 0 11 -7 18 -10 9 -11 8 -5 -6z"/>
<path d="M1900 1515 c46 -18 74 -17 35 0 -16 8 -39 14 -50 14 -13 0 -8 -5 15
-14z"/>
<path d="M2912 1489 c18 -26 35 -45 37 -43 6 6 41 -43 41 -58 0 -7 12 -26 26
-43 l26 -30 -21 32 c-12 17 -21 37 -21 45 0 7 -7 22 -15 32 -18 24 -20 40 -3
30 7 -4 8 -3 4 5 -4 6 -11 9 -16 6 -5 -3 -16 11 -26 30 -9 20 -19 34 -21 31
-3 -2 0 -13 6 -24 19 -37 12 -37 -20 -2 -30 35 -30 34 3 -11z"/>
<path d="M4220 1510 c-14 -11 -20 -20 -15 -20 6 0 21 9 35 20 14 11 21 20 15
20 -5 0 -21 -9 -35 -20z"/>
<path d="M6 1511 c5 -5 20 -12 34 -15 l25 -7 -25 15 c-28 17 -50 21 -34 7z"/>
<path d="M3625 1500 c3 -5 8 -10 11 -10 2 0 4 5 4 10 0 6 -5 10 -11 10 -5 0
-7 -4 -4 -10z"/>
<path d="M3681 1505 c0 -5 6 -19 14 -29 8 -11 15 -15 15 -10 0 6 -7 19 -15 30
-8 10 -14 15 -14 9z"/>
<path d="M2704 1423 c23 -38 46 -77 50 -87 3 -10 9 -16 13 -13 7 7 -88 167
-99 167 -4 0 12 -30 36 -67z"/>
<path d="M3154 1476 c1 -8 5 -18 8 -22 4 -3 5 1 4 10 -1 8 -5 18 -8 22 -4 3
-5 -1 -4 -10z"/>
<path d="M3190 1472 c0 -4 18 -26 40 -47 22 -21 40 -36 40 -31 0 4 -18 25 -40
47 -22 22 -40 36 -40 31z"/>
<path d="M3120 1456 c0 -2 8 -10 18 -17 15 -13 16 -12 3 4 -13 16 -21 21 -21
13z"/>
<path d="M3647 1439 c7 -7 15 -10 18 -7 3 3 -2 9 -12 12 -14 6 -15 5 -6 -5z"/>
<path d="M2060 1436 c0 -2 8 -10 18 -17 15 -13 16 -12 3 4 -13 16 -21 21 -21
13z"/>
<path d="M3630 1410 c6 -11 13 -20 16 -20 2 0 0 9 -6 20 -6 11 -13 20 -16 20
-2 0 0 -9 6 -20z"/>
<path d="M1960 1416 c0 -2 15 -6 34 -8 19 -2 32 0 30 4 -5 8 -64 12 -64 4z"/>
<path d="M2760 1400 c0 -5 5 -10 11 -10 5 0 7 5 4 10 -3 6 -8 10 -11 10 -2 0
-4 -4 -4 -10z"/>
<path d="M3746 1397 c3 -10 9 -15 12 -12 3 3 0 11 -7 18 -10 9 -11 8 -5 -6z"/>
<path d="M2285 1381 c11 -13 28 -27 39 -33 29 -16 11 7 -27 33 l-32 23 20 -23z"/>
<path d="M4120 1386 c0 -2 8 -10 18 -17 15 -13 16 -12 3 4 -13 16 -21 21 -21
13z"/>
<path d="M4339 1377 c6 -8 7 -17 3 -21 -4 -4 0 -6 8 -4 9 2 14 -3 12 -12 -2
-8 0 -12 4 -8 4 4 14 2 23 -4 9 -7 0 5 -18 25 -33 35 -56 52 -32 24z"/>
<path d="M2780 1360 c6 -11 12 -20 14 -20 2 0 2 9 -1 20 -3 11 -9 20 -15 20
-5 0 -4 -9 2 -20z"/>
<path d="M3355 1374 c6 -5 28 -25 50 -44 l40 -35 -30 33 c-17 19 -39 38 -50
44 -11 6 -15 7 -10 2z"/>
<path d="M2340 1366 c0 -3 9 -10 20 -16 11 -6 20 -8 20 -6 0 3 -9 10 -20 16
-11 6 -20 8 -20 6z"/>
<path d="M2910 1355 c14 -8 30 -14 35 -14 6 0 -1 6 -15 14 -14 8 -29 14 -35
14 -5 0 1 -6 15 -14z"/>
<path d="M2953 1359 c9 -6 14 -15 11 -21 -4 -7 -2 -8 5 -4 14 9 -3 36 -23 36
-6 0 -3 -5 7 -11z"/>
<path d="M4099 1347 c25 -27 43 -39 22 -14 -6 8 -7 18 -3 23 4 5 3 6 -2 2 -5
-4 -16 -2 -25 4 -9 7 -5 0 8 -15z"/>
<path d="M2574 1351 c4 -6 16 -16 28 -22 15 -8 18 -8 14 0 -4 6 -16 16 -28 22
-15 8 -18 8 -14 0z"/>
<path d="M2685 1331 c8 -17 19 -33 25 -36 5 -3 1 10 -11 29 -25 43 -36 48 -14
7z"/>
<path d="M2870 1343 c14 -9 39 -28 55 -42 17 -14 12 -7 -11 17 -24 23 -49 42
-56 42 -7 0 -1 -7 12 -17z"/>
<path d="M3230 1356 c0 -2 8 -10 18 -17 15 -13 16 -12 3 4 -13 16 -21 21 -21
13z"/>
<path d="M1736 1329 c-29 -29 -15 -32 19 -4 18 15 24 24 15 24 -8 0 -24 -9
-34 -20z"/>
<path d="M3070 1341 c0 -6 4 -13 10 -16 6 -3 7 1 4 9 -7 18 -14 21 -14 7z"/>
<path d="M3981 1348 c2 -2 22 -19 44 -38 l40 -35 -34 38 c-19 20 -39 37 -45
37 -5 0 -7 -1 -5 -2z"/>
<path d="M1880 1330 c8 -6 24 -15 35 -21 16 -8 15 -6 -4 10 -13 12 -28 21 -35
21 -6 0 -4 -5 4 -10z"/>
<path d="M2350 1336 c0 -3 9 -10 20 -16 11 -6 20 -8 20 -6 0 3 -9 10 -20 16
-11 6 -20 8 -20 6z"/>
<path d="M2485 1320 c10 -11 20 -20 23 -20 3 0 -3 9 -13 20 -10 11 -20 20 -23
20 -3 0 3 -9 13 -20z"/>
<path d="M3550 1305 c19 -19 36 -35 39 -35 3 0 -10 16 -29 35 -19 19 -36 35
-39 35 -3 0 10 -16 29 -35z"/>
<path d="M2094 1297 c13 -18 29 -31 34 -30 5 1 18 -7 27 -17 20 -22 8 -27 -15
-7 -8 6 -4 0 9 -15 27 -31 36 -35 27 -13 -7 20 3 19 28 -2 12 -10 -8 11 -44
46 -69 69 -108 91 -66 38z m21 -3 c9 -15 12 -23 6 -20 -11 7 -35 46 -28 46 3
0 12 -12 22 -26z"/>
<path d="M2710 1326 c0 -2 8 -10 18 -17 15 -13 16 -12 3 4 -13 16 -21 21 -21
13z"/>
<path d="M2860 1326 c0 -2 8 -10 18 -17 15 -13 16 -12 3 4 -13 16 -21 21 -21
13z"/>
<path d="M2958 1297 c18 -18 30 -36 27 -38 -2 -3 12 -21 33 -40 24 -22 28 -25
13 -6 -22 24 -19 38 5 20 5 -5 -9 9 -31 29 -22 20 -34 37 -27 38 7 0 36 -21
65 -47 29 -26 39 -33 24 -16 -16 17 -29 35 -28 40 1 4 -2 8 -6 9 -24 3 -44 17
-33 24 8 5 7 9 -5 13 -9 4 -14 3 -11 -2 3 -5 0 -11 -8 -14 -8 -3 -17 1 -20 9
-3 8 -11 14 -18 14 -6 0 3 -15 20 -33z"/>
<path d="M3801 1314 c0 -11 3 -14 6 -6 3 7 2 16 -1 19 -3 4 -6 -2 -5 -13z"/>
<path d="M1997 1309 c7 -7 15 -10 18 -7 3 3 -2 9 -12 12 -14 6 -15 5 -6 -5z"/>
<path d="M3110 1316 c0 -2 14 -14 30 -26 17 -12 30 -19 30 -16 0 2 -13 14 -30
26 -16 12 -30 19 -30 16z"/>
<path d="M3309 1318 c-6 -20 -6 -37 1 -33 4 3 18 -4 31 -14 13 -10 35 -21 49
-25 14 -4 1 7 -28 24 -29 17 -50 35 -47 40 4 6 4 10 1 10 -3 0 -6 -1 -7 -2z"/>
<path d="M1945 1301 c-3 -6 4 -15 16 -21 17 -10 20 -9 14 1 -6 9 -3 11 9 6 10
-4 15 -3 11 4 -4 5 -16 7 -27 3 -14 -4 -18 -2 -14 5 4 6 5 11 2 11 -3 0 -7 -4
-11 -9z"/>
<path d="M2553 1304 c-20 -8 -16 -22 10 -34 20 -10 21 -10 4 3 -10 9 -14 18
-8 21 13 9 61 -11 90 -37 13 -12 21 -16 17 -9 -5 8 -1 12 11 12 14 0 13 3 -7
17 -14 10 -29 18 -35 20 -51 10 -72 11 -82 7z m105 -39 c-3 -3 -9 2 -12 12 -6
14 -5 15 5 6 7 -7 10 -15 7 -18z"/>
<path d="M3520 1306 c0 -2 8 -10 18 -17 15 -13 16 -12 3 4 -13 16 -21 21 -21
13z"/>
<path d="M3760 1301 c0 -6 4 -13 10 -16 6 -3 7 1 4 9 -7 18 -14 21 -14 7z"/>
<path d="M4150 1306 c0 -2 8 -10 18 -17 15 -13 16 -12 3 4 -13 16 -21 21 -21
13z"/>
<path d="M2060 1272 c37 -33 35 -42 -4 -17 -19 13 -23 13 -23 1 0 -8 6 -12 14
-9 7 3 13 0 13 -6 0 -6 5 -11 12 -11 6 0 21 -8 32 -17 21 -18 21 -18 2 5 -11
12 -15 22 -11 22 12 0 -27 40 -50 52 -11 6 -4 -4 15 -20z"/>
<path d="M3590 1296 c0 -2 8 -10 18 -17 15 -13 16 -12 3 4 -13 16 -21 21 -21
13z"/>
<path d="M1685 1270 c17 -11 38 -20 48 -20 9 0 17 -5 17 -11 0 -5 5 -7 12 -3
7 4 -10 17 -42 31 -64 28 -74 29 -35 3z"/>
<path d="M3500 1287 c0 -2 15 -16 33 -33 l32 -29 -29 33 c-28 30 -36 37 -36
29z"/>
<path d="M2189 1257 c13 -15 29 -23 38 -20 13 5 12 8 -3 17 -11 6 -21 11 -24
11 -3 0 -12 4 -20 9 -8 5 -4 -2 9 -17z"/>
<path d="M2360 1262 c6 -13 14 -21 18 -18 3 4 -2 14 -12 24 -18 16 -18 16 -6
-6z"/>
<path d="M2874 1257 c48 -31 72 -55 108 -111 23 -34 37 -50 34 -36 -7 24 -6
24 8 6 9 -11 16 -24 16 -30 0 -5 3 -6 6 -3 10 10 -38 75 -59 81 -9 2 -16 10
-15 17 3 12 -90 89 -107 88 -5 0 -2 -6 9 -12z"/>
<path d="M3090 1233 c18 -24 35 -43 37 -43 7 0 -35 56 -54 71 -9 8 -2 -5 17
-28z"/>
<path d="M1800 1250 c8 -5 22 -9 30 -9 10 0 8 3 -5 9 -27 12 -43 12 -25 0z"/>
<path d="M1961 1256 c2 -2 15 -9 29 -15 24 -11 24 -11 6 3 -16 13 -49 24 -35
12z"/>
<path d="M3787 1240 c3 -11 9 -22 13 -25 5 -3 6 4 3 15 -3 11 -9 22 -13 25 -5
3 -6 -4 -3 -15z"/>
<path d="M3821 1236 c7 -15 15 -23 17 -16 3 7 -3 19 -13 28 -15 16 -16 15 -4
-12z"/>
<path d="M4110 1250 c8 -5 26 -9 40 -9 l25 1 -25 8 c-14 4 -32 8 -40 9 -13 1
-13 0 0 -9z"/>
<path d="M1930 1245 c0 -6 76 -45 87 -45 4 0 3 4 -2 9 -12 11 -85 42 -85 36z"/>
<path d="M2356 1188 c27 -36 51 -64 53 -62 4 4 -77 112 -92 121 -5 3 12 -24
39 -59z"/>
<path d="M2450 1246 c0 -2 8 -10 18 -17 15 -13 16 -12 3 4 -13 16 -21 21 -21
13z"/>
<path d="M3130 1242 c0 -6 5 -14 10 -17 6 -4 8 -10 5 -15 -6 -9 21 -33 41 -36
10 -2 11 2 5 14 -14 25 -61 67 -61 54z m41 -49 c13 -16 12 -17 -3 -4 -17 13
-22 21 -14 21 2 0 10 -8 17 -17z"/>
<path d="M2390 1223 c0 -5 10 -18 23 -29 l22 -19 -20 25 c-11 14 -21 27 -22
29 -2 2 -3 0 -3 -6z"/>
<path d="M2600 1226 c0 -3 9 -10 20 -16 11 -6 20 -8 20 -6 0 3 -9 10 -20 16
-11 6 -20 8 -20 6z"/>
<path d="M2745 1210 c10 -11 20 -20 23 -20 3 0 -3 9 -13 20 -10 11 -20 20 -23
20 -3 0 3 -9 13 -20z"/>
<path d="M3180 1226 c0 -2 8 -10 18 -17 15 -13 16 -12 3 4 -13 16 -21 21 -21
13z"/>
<path d="M4195 1221 c-3 -5 -2 -12 3 -15 5 -3 9 1 9 9 0 17 -3 19 -12 6z"/>
<path d="M391 1197 c-27 -71 -57 -120 -85 -138 -48 -33 -123 -116 -135 -149
-6 -18 -6 -28 -1 -25 6 4 10 11 10 16 0 23 66 101 118 140 37 28 60 55 74 87
31 72 38 92 33 92 -3 0 -9 -10 -14 -23z"/>
<path d="M1837 1209 c7 -7 15 -10 18 -7 3 3 -2 9 -12 12 -14 6 -15 5 -6 -5z"/>
<path d="M2040 1216 c0 -2 8 -10 18 -17 15 -13 16 -12 3 4 -13 16 -21 21 -21
13z"/>
<path d="M4227 1208 c4 -7 8 -17 8 -22 0 -5 8 -10 19 -12 16 -2 16 0 -5 22
-24 26 -35 32 -22 12z"/>
<path d="M2278 1189 c12 -14 19 -29 15 -33 -4 -4 0 -12 10 -18 10 -5 32 -31
48 -56 16 -25 29 -42 29 -37 0 14 -87 140 -107 156 -10 8 -9 3 5 -12z"/>
<path d="M2747 1179 c18 -18 35 -31 37 -28 3 3 -12 18 -32 33 l-37 29 32 -34z"/>
<path d="M2871 1169 c25 -24 66 -59 90 -78 l44 -33 -37 33 c-20 19 -60 54 -90
78 l-53 43 46 -43z"/>
<path d="M2230 1196 c0 -2 8 -10 18 -17 15 -13 16 -12 3 4 -13 16 -21 21 -21
13z"/>
<path d="M3090 1196 c0 -2 8 -10 18 -17 15 -13 16 -12 3 4 -13 16 -21 21 -21
13z"/>
<path d="M3405 1180 c10 -11 20 -20 23 -20 3 0 -3 9 -13 20 -10 11 -20 20 -23
20 -3 0 3 -9 13 -20z"/>
<path d="M3420 1196 c0 -2 8 -10 18 -17 15 -13 16 -12 3 4 -13 16 -21 21 -21
13z"/>
<path d="M3828 1172 c13 -17 28 -35 34 -39 7 -3 2 8 -10 25 -13 17 -28 35 -34
39 -7 3 -2 -8 10 -25z"/>
<path d="M1700 1180 c0 -13 11 -13 30 0 12 8 11 10 -7 10 -13 0 -23 -4 -23
-10z"/>
<path d="M1850 1186 c0 -2 7 -7 16 -10 8 -3 12 -2 9 4 -6 10 -25 14 -25 6z"/>
<path d="M1908 1183 c7 -3 16 -2 19 1 4 3 -2 6 -13 5 -11 0 -14 -3 -6 -6z"/>
<path d="M2092 1174 c10 -10 20 -15 24 -12 3 4 -5 12 -18 18 -22 12 -22 12 -6
-6z"/>
<path d="M3230 1188 c0 -2 21 -21 48 -43 26 -21 38 -28 27 -16 -19 23 -75 66
-75 59z"/>
<path d="M3681 1174 c0 -11 3 -14 6 -6 3 7 2 16 -1 19 -3 4 -6 -2 -5 -13z"/>
<path d="M2920 1157 c0 -2 19 -19 43 -37 23 -19 36 -26 28 -17 -15 19 -71 61
-71 54z"/>
<path d="M1840 1146 c0 -2 7 -7 16 -10 8 -3 12 -2 9 4 -6 10 -25 14 -25 6z"/>
<path d="M2150 1146 c0 -3 9 -10 20 -16 11 -6 20 -8 20 -6 0 3 -9 10 -20 16
-11 6 -20 8 -20 6z"/>
<path d="M3090 1146 c0 -2 7 -7 16 -10 8 -3 12 -2 9 4 -6 10 -25 14 -25 6z"/>
<path d="M3247 1138 c7 -8 9 -19 5 -23 -4 -5 -1 -5 6 -1 7 4 21 2 30 -6 15
-12 16 -11 3 5 -8 10 -24 23 -35 29 -18 10 -19 9 -9 -4z"/>
<path d="M3575 1112 c21 -23 41 -42 42 -42 9 0 -33 48 -56 65 -16 10 -10 1 14
-23z"/>
<path d="M4490 1146 c0 -2 7 -7 16 -10 8 -3 12 -2 9 4 -6 10 -25 14 -25 6z"/>
<path d="M4038 1119 c-28 -16 -21 -30 7 -17 14 6 25 15 25 20 0 11 -11 10 -32
-3z"/>
<path d="M3704 1107 c3 -10 6 -21 6 -23 0 -3 4 -3 9 0 11 7 80 -70 123 -136
17 -27 33 -48 34 -48 9 0 -14 40 -47 85 -45 60 -135 147 -125 122z"/>
<path d="M3166 1085 c-3 -8 0 -17 6 -21 6 -4 8 -3 4 4 -3 5 -1 12 6 14 8 3 9
6 1 11 -6 4 -13 0 -17 -8z"/>
<path d="M731 1056 c-34 -54 -86 -88 -150 -96 -31 -4 -48 -8 -38 -9 20 -1 23
-16 5 -28 -7 -5 -26 -24 -43 -43 l-30 -35 40 38 c23 21 52 37 65 38 21 0 22 1
6 8 -15 6 -10 10 23 20 47 14 115 70 137 113 20 39 10 35 -15 -6z"/>
<path d="M2456 1082 c-3 -6 1 -15 8 -21 8 -7 17 -8 20 -3 3 6 -1 15 -8 21 -8
7 -17 8 -20 3z"/>
<path d="M3846 1041 c15 -28 29 -49 32 -47 5 6 -36 83 -48 91 -6 4 1 -16 16
-44z"/>
<path d="M2587 1059 c12 -12 24 -21 27 -18 2 2 -8 13 -22 23 l-27 19 22 -24z"/>
<path d="M3020 1079 c0 -4 7 -20 15 -35 8 -16 15 -22 15 -13 0 14 -29 61 -30
48z"/>
<path d="M3230 1076 c0 -2 8 -10 18 -17 15 -13 16 -12 3 4 -13 16 -21 21 -21
13z"/>
<path d="M3330 1059 c13 -23 22 -25 13 -2 -5 12 -3 14 8 8 8 -5 11 -4 6 0 -4
5 -14 10 -22 11 -12 2 -12 -2 -5 -17z"/>
<path d="M3196 1061 c-3 -4 4 -17 17 -27 22 -19 22 -19 4 2 -9 11 -14 24 -10
27 3 4 4 7 0 7 -3 0 -8 -4 -11 -9z"/>
<path d="M427 1049 c7 -7 15 -10 18 -7 3 3 -2 9 -12 12 -14 6 -15 5 -6 -5z"/>
<path d="M4308 1023 c29 -35 37 -39 47 -22 5 7 16 5 33 -6 18 -11 16 -7 -7 12
-19 15 -44 28 -55 28 -12 1 -20 6 -19 11 1 6 -4 11 -12 11 -8 0 -4 -12 13 -34z
m47 -5 c4 -3 2 -9 -3 -12 -5 -3 -15 1 -21 8 -10 11 -9 14 3 12 9 -1 18 -5 21
-8z"/>
<path d="M3985 1030 c10 -11 20 -20 23 -20 3 0 -3 9 -13 20 -10 11 -20 20 -23
20 -3 0 3 -9 13 -20z"/>
<path d="M2500 1036 c0 -2 18 -15 40 -30 22 -14 40 -23 40 -19 0 5 -10 15 -22
23 -25 17 -58 31 -58 26z"/>
<path d="M3740 1031 c0 -6 4 -13 10 -16 6 -3 7 1 4 9 -7 18 -14 21 -14 7z"/>
<path d="M205 1019 c-4 -6 -5 -12 -2 -15 2 -3 7 2 10 11 7 17 1 20 -8 4z"/>
<path d="M54 964 l-59 -56 60 48 c83 66 80 64 69 64 -6 0 -37 -25 -70 -56z"/>
<path d="M2926 1011 c-7 -11 12 -25 34 -26 8 0 15 -7 15 -15 0 -8 9 -15 20
-15 11 0 19 -6 17 -13 -1 -8 1 -11 6 -8 5 3 26 -9 48 -25 34 -27 33 -25 -6 10
-67 61 -128 103 -134 92z"/>
<path d="M3175 1000 c10 -11 20 -20 23 -20 3 0 -3 9 -13 20 -10 11 -20 20 -23
20 -3 0 3 -9 13 -20z"/>
<path d="M3040 1007 c0 -2 15 -16 33 -33 l32 -29 -29 33 c-28 30 -36 37 -36
29z"/>
<path d="M3240 1006 c0 -2 8 -10 18 -17 15 -13 16 -12 3 4 -13 16 -21 21 -21
13z"/>
<path d="M478 983 c6 -2 18 -2 25 0 6 3 1 5 -13 5 -14 0 -19 -2 -12 -5z"/>
<path d="M3518 983 c7 -3 16 -2 19 1 4 3 -2 6 -13 5 -11 0 -14 -3 -6 -6z"/>
<path d="M3559 972 c9 -7 10 -11 2 -15 -7 -4 -8 -5 -1 -3 16 2 14 20 -2 24
-10 3 -10 2 1 -6z"/>
<path d="M2021 921 c35 -27 75 -60 88 -75 14 -14 29 -26 34 -26 13 0 -79 85
-131 120 -67 47 -62 35 9 -19z"/>
<path d="M3712 954 c10 -10 20 -16 22 -13 3 3 -5 11 -17 18 -21 13 -21 12 -5
-5z"/>
<path d="M3930 967 c0 -2 15 -16 33 -33 l32 -29 -29 33 c-28 30 -36 37 -36 29z"/>
<path d="M3586 952 c-3 -5 1 -9 9 -9 8 0 12 4 9 9 -3 4 -7 8 -9 8 -2 0 -6 -4
-9 -8z"/>
<path d="M278 853 c-99 -101 -180 -195 -213 -248 -10 -16 -30 -43 -44 -60 -14
-16 -18 -23 -7 -15 10 8 49 56 87 107 38 51 117 142 175 203 59 60 105 110
102 110 -2 0 -48 -44 -100 -97z"/>
<path d="M488 943 c7 -3 16 -2 19 1 4 3 -2 6 -13 5 -11 0 -14 -3 -6 -6z"/>
<path d="M2140 946 c0 -2 8 -10 18 -17 15 -13 16 -12 3 4 -13 16 -21 21 -21
13z"/>
<path d="M623 933 c9 -2 23 -2 30 0 6 3 -1 5 -18 5 -16 0 -22 -2 -12 -5z"/>
<path d="M1587 929 c7 -7 15 -10 18 -7 3 3 -2 9 -12 12 -14 6 -15 5 -6 -5z"/>
<path d="M1650 925 c14 -8 30 -14 35 -14 6 0 -1 6 -15 14 -14 8 -29 14 -35 14
-5 0 1 -6 15 -14z"/>
<path d="M2717 929 c7 -7 15 -10 18 -7 3 3 -2 9 -12 12 -14 6 -15 5 -6 -5z"/>
<path d="M3695 920 c10 -11 20 -20 23 -20 3 0 -3 9 -13 20 -10 11 -20 20 -23
20 -3 0 3 -9 13 -20z"/>
<path d="M2418 923 c7 -3 16 -2 19 1 4 3 -2 6 -13 5 -11 0 -14 -3 -6 -6z"/>
<path d="M3631 915 c23 -33 49 -59 53 -54 2 2 -12 20 -32 39 -19 19 -29 26
-21 15z"/>
<path d="M638 913 c6 -2 18 -2 25 0 6 3 1 5 -13 5 -14 0 -19 -2 -12 -5z"/>
<path d="M588 903 c6 -2 18 -2 25 0 6 3 1 5 -13 5 -14 0 -19 -2 -12 -5z"/>
<path d="M1700 906 c0 -3 14 -12 30 -21 17 -9 30 -13 30 -11 0 3 -13 12 -30
21 -16 9 -30 13 -30 11z"/>
<path d="M2210 886 c0 -2 8 -10 18 -17 15 -13 16 -12 3 4 -13 16 -21 21 -21
13z"/>
<path d="M102 844 c-22 -19 -55 -53 -73 -77 -19 -25 -9 -17 25 20 36 39 69 66
89 71 23 6 27 10 15 14 -10 4 -31 -6 -56 -28z"/>
<path d="M2551 876 c2 -2 15 -9 29 -15 24 -11 24 -11 6 3 -16 13 -49 24 -35
12z"/>
<path d="M2270 867 c0 -3 17 -17 37 -33 20 -15 33 -23 29 -16 -8 13 -66 56
-66 49z"/>
<path d="M2923 840 c14 -11 28 -20 32 -20 4 0 -4 9 -18 20 -14 11 -28 20 -32
20 -4 0 4 -9 18 -20z"/>
<path d="M140 839 c0 -5 5 -7 10 -4 6 3 10 8 10 11 0 2 -4 4 -10 4 -5 0 -10
-5 -10 -11z"/>
<path d="M2254 835 c1 -8 6 -18 11 -22 4 -4 5 -2 1 5 -12 21 6 13 38 -15 27
-24 26 -23 -3 10 -37 40 -51 46 -47 22z"/>
<path d="M3680 846 c0 -2 8 -10 18 -17 15 -13 16 -12 3 4 -13 16 -21 21 -21
13z"/>
<path d="M449 821 c-4 -11 -116 -135 -254 -281 -45 -47 -87 -98 -95 -114 -8
-16 -35 -51 -59 -78 -24 -27 -41 -51 -39 -54 7 -7 81 83 105 128 11 20 91 111
179 203 158 165 180 192 171 201 -3 3 -7 1 -8 -5z"/>
<path d="M2380 775 c19 -19 36 -35 39 -35 3 0 -10 16 -29 35 -19 19 -36 35
-39 35 -3 0 10 -16 29 -35z"/>
<path d="M2280 796 c0 -2 8 -10 18 -17 15 -13 16 -12 3 4 -13 16 -21 21 -21
13z"/>
<path d="M94 768 l-19 -23 23 19 c12 11 22 21 22 23 0 8 -8 2 -26 -19z"/>
<path d="M2173 770 c-1 -11 2 -22 8 -25 5 -4 6 2 2 11 -5 13 -3 15 8 9 12 -8
12 -6 0 8 -17 21 -16 21 -18 -3z"/>
<path d="M2326 748 c3 -5 9 -7 12 -4 3 3 12 0 21 -6 13 -10 14 -10 4 2 -15 16
-46 23 -37 8z"/>
<path d="M2209 727 c6 -14 7 -28 3 -33 -4 -4 -2 -4 5 -1 12 7 7 44 -8 53 -5 3
-5 -6 0 -19z"/>
<path d="M65 729 c-4 -6 -5 -12 -2 -15 2 -3 7 2 10 11 7 17 1 20 -8 4z"/>
<path d="M2170 726 c0 -2 8 -10 18 -17 15 -13 16 -12 3 4 -13 16 -21 21 -21
13z"/>
<path d="M2950 676 c0 -2 8 -10 18 -17 15 -13 16 -12 3 4 -13 16 -21 21 -21
13z"/>
<path d="M2304 626 c1 -8 5 -18 8 -22 4 -3 5 1 4 10 -1 8 -5 18 -8 22 -4 3 -5
-1 -4 -10z"/>
<path d="M3020 626 c0 -3 9 -10 20 -16 11 -6 20 -8 20 -6 0 3 -9 10 -20 16
-11 6 -20 8 -20 6z"/>
<path d="M22 595 c0 -16 2 -22 5 -12 2 9 2 23 0 30 -3 6 -5 -1 -5 -18z"/>
<path d="M2345 600 c10 -11 20 -20 23 -20 3 0 -3 9 -13 20 -10 11 -20 20 -23
20 -3 0 3 -9 13 -20z"/>
<path d="M540 509 c0 -5 5 -7 10 -4 6 3 10 8 10 11 0 2 -4 4 -10 4 -5 0 -10
-5 -10 -11z"/>
<path d="M570 506 c0 -3 9 -10 20 -16 11 -6 20 -8 20 -6 0 3 -9 10 -20 16 -11
6 -20 8 -20 6z"/>
<path d="M291 483 c0 -4 21 -23 47 -42 31 -22 40 -26 27 -11 -25 28 -75 64
-74 53z"/>
<path d="M665 430 c27 -27 51 -50 54 -50 3 0 -17 23 -44 50 -27 28 -51 50 -54
50 -3 0 17 -22 44 -50z"/>
<path d="M914 465 c-10 -8 -15 -15 -10 -15 5 0 3 -7 -4 -15 -7 -8 -8 -15 -3
-15 5 0 17 14 26 30 20 34 19 36 -9 15z"/>
<path d="M477 429 c7 -7 15 -10 18 -7 3 3 -2 9 -12 12 -14 6 -15 5 -6 -5z"/>
<path d="M220 393 c8 -3 24 -10 35 -15 20 -9 20 -9 1 6 -11 9 -27 16 -35 15
-14 0 -14 -1 -1 -6z"/>
<path d="M690 375 c13 -14 26 -25 28 -25 3 0 -5 11 -18 25 -13 14 -26 25 -28
25 -3 0 5 -11 18 -25z"/>
<path d="M276 362 c-2 -4 4 -8 14 -8 10 0 16 4 14 8 -3 4 -9 8 -14 8 -5 0 -11
-4 -14 -8z"/>
<path d="M358 319 c6 -9 10 -18 7 -21 -3 -3 1 -10 8 -16 10 -9 14 -8 14 3 0 8
-10 23 -21 32 -15 14 -18 14 -8 2z"/>
<path d="M454 321 c4 -6 16 -16 28 -22 15 -8 18 -8 14 0 -4 6 -16 16 -28 22
-15 8 -18 8 -14 0z"/>
<path d="M730 271 c0 -6 16 -28 35 -49 19 -22 32 -42 30 -46 -3 -3 -2 -4 1 -1
4 2 19 -4 33 -14 37 -25 51 -33 51 -27 0 2 -16 14 -36 26 -19 13 -53 45 -75
72 -21 27 -39 45 -39 39z"/>
<path d="M1100 238 c24 -27 45 -48 47 -48 8 0 0 9 -44 50 l-48 45 45 -47z"/>
<path d="M420 266 c0 -2 8 -10 18 -17 15 -13 16 -12 3 4 -13 16 -21 21 -21 13z"/>
<path d="M1003 252 c10 -10 15 -22 12 -25 -3 -4 -2 -5 2 -2 3 3 13 -1 22 -7 9
-7 3 2 -13 20 -17 18 -32 32 -34 32 -3 0 2 -8 11 -18z"/>
<path d="M866 251 c-3 -5 11 -19 31 -31 23 -13 32 -16 24 -6 -7 8 -21 18 -32
21 -11 4 -17 11 -14 16 4 5 4 9 1 9 -3 0 -7 -4 -10 -9z"/>
<path d="M220 237 c0 -3 12 -12 26 -22 15 -9 23 -12 20 -6 -7 11 -46 35 -46
28z"/>
<path d="M330 226 c0 -2 8 -10 18 -17 15 -13 16 -12 3 4 -13 16 -21 21 -21 13z"/>
<path d="M454 218 c-4 -7 -4 -10 1 -6 4 4 15 2 24 -5 14 -11 14 -10 2 6 -16
20 -18 21 -27 5z"/>
<path d="M129 172 c14 -11 38 -27 55 -37 l31 -17 -24 20 c-14 11 -38 27 -55
37 l-31 17 24 -20z"/>
<path d="M312 185 c2 -1 12 -7 24 -13 15 -8 21 -8 21 1 0 7 -11 13 -24 13 -14
1 -23 1 -21 -1z"/>
<path d="M706 165 c-11 -8 -15 -15 -9 -15 6 0 16 7 23 15 16 19 11 19 -14 0z"/>
<path d="M60 115 c19 -19 36 -35 39 -35 3 0 -10 16 -29 35 -19 19 -36 35 -39
35 -3 0 10 -16 29 -35z"/>
<path d="M910 146 c0 -2 8 -10 18 -17 15 -13 16 -12 3 4 -13 16 -21 21 -21 13z"/>
<path d="M1060 146 c0 -2 8 -10 18 -17 15 -13 16 -12 3 4 -13 16 -21 21 -21
13z"/>
<path d="M1107 109 c7 -7 15 -10 18 -7 3 3 -2 9 -12 12 -14 6 -15 5 -6 -5z"/>
<path d="M470 106 c0 -7 71 -58 76 -53 2 2 -14 16 -36 31 -22 14 -40 25 -40
22z"/>
<path d="M566 87 c3 -10 9 -15 12 -12 3 3 0 11 -7 18 -10 9 -11 8 -5 -6z"/>
<path d="M7 83 c-4 -3 1 -15 10 -26 10 -10 17 -22 15 -25 -1 -3 5 -7 14 -8 12
-2 11 3 -7 23 -13 13 -22 27 -21 30 6 8 -4 14 -11 6z"/>
<path d="M796 80 c5 -8 9 -18 9 -22 0 -3 3 -9 7 -13 3 -4 5 0 4 9 -1 9 -8 22
-16 29 -10 10 -11 9 -4 -3z"/>
<path d="M110 76 c0 -2 8 -10 18 -17 15 -13 16 -12 3 4 -13 16 -21 21 -21 13z"/>
<path d="M1007 40 c15 -22 32 -40 36 -40 5 0 -6 18 -23 40 -41 52 -50 52 -13
0z"/>
<path d="M61 44 c13 -14 23 -28 21 -32 -1 -3 5 -7 14 -8 11 -2 6 9 -17 32 -18
19 -35 34 -38 34 -2 0 6 -12 20 -26z"/>
<path d="M213 55 c0 -8 12 -25 26 -37 l26 -23 -19 23 c-20 23 -9 31 12 10 7
-7 12 -9 12 -6 0 4 -13 16 -28 27 -22 15 -29 17 -29 6z"/>
<path d="M855 20 c10 -11 23 -20 28 -20 6 0 2 9 -8 20 -10 11 -23 20 -28 20
-6 0 -2 -9 8 -20z"/>
</g>
</svg>
